<?xml version="1.0" standalone="no"?>
<!DOCTYPE svg PUBLIC "-//W3C//DTD SVG 20010904//EN"
 "http://www.w3.org/TR/2001/REC-SVG-20010904/DTD/svg10.dtd">
<svg version="1.0" xmlns="http://www.w3.org/2000/svg"
 width="2500.000000pt" height="2500.000000pt" viewBox="0 0 2500.000000 2500.000000"
 preserveAspectRatio="xMidYMid meet">

<g transform="translate(0.000000,2500.000000) scale(0.100000,-0.100000)"
fill="#000000" stroke="none">
<path d="M15134 20300 c-118 -25 -224 -111 -282 -229 -36 -74 -37 -79 -37
-187 0 -107 1 -112 38 -186 43 -88 102 -147 187 -187 49 -23 67 -26 170 -26
104 0 120 3 173 27 161 76 260 255 237 433 -19 146 -123 281 -258 334 -60 24
-168 34 -228 21z m271 -172 c69 -61 97 -116 103 -203 7 -112 -1 -135 -67 -204
-32 -34 -63 -61 -68 -61 -9 0 -25 12 -71 51 -18 15 -71 29 -88 22 -8 -3 -14 1
-14 10 0 10 -14 18 -40 22 l-40 7 0 54 c0 30 -4 54 -10 54 -5 0 -10 5 -10 11
0 7 -7 17 -15 23 -12 9 -13 18 -5 46 13 46 30 70 37 53 7 -20 22 -15 17 5 -6
24 13 51 24 34 15 -23 36 -8 79 57 23 36 48 68 54 72 19 11 65 -10 114 -53z
m-412 -60 c-3 -18 -11 -36 -17 -40 -5 -4 -11 -17 -12 -30 -1 -13 -5 -48 -8
-79 -5 -51 -3 -58 20 -78 22 -19 25 -29 22 -65 -3 -39 -1 -42 20 -38 25 5 25
7 13 -36 -11 -35 -5 -66 10 -56 5 3 9 0 9 -5 0 -33 -33 -1 -81 79 -33 54 -34
57 -34 170 0 108 2 118 28 163 15 26 30 47 32 47 3 0 2 -15 -2 -32z m127 -18
c0 -5 -4 -10 -10 -10 -5 0 -10 5 -10 10 0 6 5 10 10 10 6 0 10 -4 10 -10z
m-70 -370 c0 -5 -5 -10 -11 -10 -5 0 -7 5 -4 10 3 6 8 10 11 10 2 0 4 -4 4
-10z"/>
<path d="M18984 19270 c-165 -54 -262 -183 -272 -362 -5 -96 22 -186 79 -258
77 -98 164 -135 314 -135 87 0 107 4 156 27 105 48 182 139 215 253 24 83 14
200 -23 272 -87 174 -291 262 -469 203z m177 -99 c-11 -7 -12 -17 -2 -54 19
-77 14 -152 -14 -206 -52 -104 -224 -219 -270 -181 -60 50 -80 194 -38 275 55
106 161 174 273 174 41 1 60 -3 51 -8z"/>
<path d="M7724 19250 c-156 -31 -268 -161 -280 -325 -9 -107 7 -177 54 -241
65 -90 133 -134 239 -155 112 -23 235 13 313 91 122 122 151 284 79 430 -79
157 -234 233 -405 200z m154 -112 c23 -6 42 -16 42 -23 0 -8 4 -15 10 -17 21
-7 12 -205 -11 -248 -4 -8 -15 -36 -25 -62 -9 -26 -30 -62 -47 -79 -33 -35
-26 -48 28 -50 l30 -1 -35 -15 c-45 -20 -132 -12 -187 16 -146 74 -179 275
-65 402 82 92 137 108 260 77z"/>
<path d="M11393 19199 c-231 -22 -506 -147 -738 -334 -293 -237 -509 -533
-647 -890 -9 -22 -28 -68 -42 -101 -14 -34 -26 -65 -26 -69 0 -4 -16 -49 -36
-99 -20 -50 -40 -104 -45 -121 -11 -41 -57 -166 -69 -187 -6 -10 -10 -23 -10
-31 0 -7 -9 -28 -19 -48 -11 -20 -26 -58 -34 -86 -8 -28 -21 -61 -28 -74 -6
-13 -15 -31 -19 -39 -6 -13 -39 -15 -203 -15 -107 0 -199 3 -203 7 -4 5 5 21
21 36 65 65 83 191 42 291 -18 45 -30 59 -66 78 l-44 23 -679 0 c-732 0 -719
1 -776 -52 -27 -27 -52 -105 -52 -169 0 -47 27 -121 63 -172 11 -16 16 -32 11
-37 -5 -4 -75 -11 -156 -15 l-146 -7 -44 40 c-89 81 -56 77 -583 80 l-470 3
-35 61 c-42 72 -100 127 -170 163 -39 20 -76 28 -158 36 -110 10 -934 9 -1302
-1 -233 -6 -254 -13 -334 -95 -60 -61 -67 -93 -73 -305 -3 -102 -10 -191 -15
-197 -6 -7 -30 -13 -54 -13 -77 0 -139 -19 -182 -56 -47 -40 -82 -106 -82
-155 0 -51 -16 -66 -95 -88 -38 -10 -88 -27 -110 -36 -121 -52 -302 -216 -362
-330 -81 -154 -103 -286 -103 -632 0 -125 -3 -238 -6 -251 -8 -26 -17 -25
-113 19 -164 77 -332 96 -518 60 -198 -38 -349 -119 -498 -265 -176 -173 -274
-377 -297 -624 -39 -405 109 -746 421 -970 98 -71 234 -123 384 -148 56 -9
105 -19 109 -23 3 -3 1 -30 -5 -59 -17 -82 3 -192 56 -305 37 -79 45 -105 50
-180 4 -49 11 -107 17 -130 5 -23 14 -94 20 -157 6 -63 19 -160 30 -215 20
-111 36 -209 51 -330 6 -44 17 -109 25 -145 9 -36 19 -99 24 -140 10 -82 42
-257 70 -390 10 -47 24 -141 30 -210 6 -69 14 -134 17 -145 4 -11 9 -474 12
-1030 l6 -1010 23 -37 c31 -49 92 -103 147 -129 l46 -22 -4 -231 c-3 -189 -7
-252 -26 -346 -27 -139 -23 -211 20 -344 80 -243 229 -402 493 -526 181 -85
224 -90 796 -101 552 -11 3861 -13 4347 -3 260 6 314 5 325 -7 7 -8 29 -34 48
-59 86 -113 403 -437 545 -557 274 -231 404 -328 645 -478 398 -247 862 -443
1315 -555 886 -218 1878 -179 2735 110 466 156 809 331 1225 622 90 63 316
236 325 249 3 4 25 23 50 44 79 65 264 250 437 438 92 100 173 186 178 190 6
5 240 5 520 1 890 -13 1879 -12 2105 2 250 16 318 34 441 115 224 150 358 375
375 634 7 111 -10 204 -58 301 l-33 69 -3 2443 c-1 1691 1 2442 8 2442 6 0 27
-7 48 -16 66 -28 171 -44 282 -44 440 0 650 266 730 922 51 425 -2 703 -176
915 -110 134 -361 239 -648 272 -50 6 -94 15 -100 21 -6 6 -13 70 -17 143 -15
284 -100 486 -280 665 -126 125 -230 184 -428 243 -114 34 -124 42 -111 89 12
43 13 363 1 446 -11 75 -47 133 -108 173 -71 47 -127 61 -285 69 l-145 8 -32
36 c-64 73 27 68 -1223 68 l-1123 0 -40 -23 c-23 -13 -53 -43 -70 -70 -24 -38
-40 -51 -84 -67 -74 -28 -107 -54 -134 -103 -21 -40 -22 -53 -23 -298 -1 -141
-4 -261 -8 -268 -5 -7 -40 -11 -96 -11 -101 0 -95 -5 -136 105 -12 33 -33 89
-47 125 -14 36 -34 88 -45 115 -20 52 -142 351 -160 395 -6 14 -45 113 -87
220 -339 866 -477 1121 -760 1406 -60 61 -146 138 -190 171 -177 132 -404 254
-551 296 l-79 22 -1315 1 c-723 1 -1352 -2 -1397 -7z m2622 -234 c193 -9 425
-123 655 -321 181 -157 342 -368 464 -612 108 -216 538 -1262 743 -1809 29
-78 43 -130 40 -145 -10 -38 -64 -95 -114 -120 l-48 -23 -2185 -2 c-1202 -2
-2556 1 -3010 5 l-825 8 -52 23 c-60 27 -123 90 -123 124 1 37 165 514 343
997 317 858 395 1030 576 1270 141 188 280 316 466 430 150 92 345 167 470
180 72 7 2440 3 2600 -5z m-4919 -1568 c4 -4 2 -13 -4 -19 -7 -7 -12 -31 -12
-54 0 -35 -4 -43 -22 -48 -13 -3 -204 -6 -426 -6 -313 0 -404 3 -407 13 -3 6
-1 35 3 62 l7 50 50 6 c71 9 802 6 811 -4z m-3329 -83 l30 -6 6 -141 c9 -198
13 -212 53 -236 l34 -20 1 42 c1 23 4 114 8 202 l6 160 66 -1 c37 0 82 -7 100
-14 49 -20 109 -61 109 -74 0 -6 -31 -50 -70 -96 -38 -46 -70 -89 -70 -94 0
-5 -8 -19 -18 -30 -17 -19 -34 -56 -67 -146 l-13 -35 -368 -3 c-202 -1 -371 1
-376 6 -4 4 -5 114 -1 245 6 234 7 238 27 235 12 -2 21 -10 22 -18 1 -8 2 -82
2 -163 2 -148 2 -148 25 -145 21 3 22 8 31 166 l9 162 48 0 49 0 0 -114 c0
-63 3 -121 6 -130 4 -9 18 -16 34 -16 34 0 40 17 40 126 0 45 3 96 6 113 l7
31 117 0 c65 0 131 -3 147 -6z m-726 -26 c-1 -5 -1 -85 -1 -180 0 -224 -17
-211 -26 21 -7 160 -6 173 10 170 9 -2 17 -7 17 -11z m3599 -167 c29 -6 -24
-8 -150 -8 -181 1 -186 1 -70 7 69 3 136 7 150 7 14 1 45 -2 70 -6z m-1333
-93 c44 -29 62 -63 44 -82 -13 -12 -901 -23 -947 -12 -13 4 -24 14 -24 22 0
29 42 93 64 97 12 3 201 4 422 3 l400 -1 41 -27z m11043 12 c14 -4 -336 -8
-777 -9 -529 -1 -803 2 -803 9 0 12 1542 12 1580 0z m-9117 -75 l377 -8 0 -23
c0 -31 -54 -195 -86 -261 -14 -28 -33 -55 -42 -59 -26 -11 -1891 -15 -1933 -4
-50 14 -59 41 -59 170 0 108 0 110 31 144 24 28 39 36 72 38 98 7 1293 9 1640
3z m9951 -95 c49 -25 70 -63 73 -133 2 -34 -1 -69 -6 -77 -9 -13 -172 -15
-1368 -15 l-1358 0 -3 113 c-3 110 -2 112 20 113 56 4 1814 15 2193 15 353 -1
425 -3 449 -16z m-12877 -100 c40 0 43 -2 29 -15 -9 -9 -20 -35 -26 -58 -6
-23 -15 -58 -21 -77 -5 -19 -9 -54 -9 -77 l0 -43 -44 0 c-30 0 -46 5 -50 15
-6 16 2 230 10 254 3 9 14 12 35 7 18 -3 52 -6 76 -6z m697 3 l68 -6 -6 -36
c-4 -20 -9 -80 -13 -133 l-6 -98 -77 0 -76 0 -11 77 c-8 52 -17 81 -29 90 -29
21 -42 -2 -50 -88 l-7 -79 -72 0 -72 0 -7 89 c-6 67 -12 93 -25 106 -17 15
-20 15 -35 0 -12 -13 -16 -37 -16 -106 l0 -89 -80 0 -80 0 0 140 0 140 263 0
c144 0 293 -3 331 -7z m300 -11 c3 -5 6 -64 7 -133 l1 -124 -74 -3 -75 -3 -6
119 c-4 66 -10 127 -13 136 -5 14 4 16 74 16 45 0 83 -4 86 -8z m-2035 -189
c8 -14 10 -15 11 -3 0 13 2 13 9 1 5 -8 38 -20 73 -27 34 -6 52 -13 38 -14
-49 -3 11 -16 85 -19 38 -1 72 -4 75 -7 3 -3 -135 -4 -307 -2 -206 2 -316 7
-323 14 -13 13 -2 44 16 44 8 0 14 4 14 10 0 5 20 9 45 8 25 0 49 2 52 6 4 3
50 6 104 6 83 0 100 -3 108 -17z m13949 -66 c7 -5 12 -29 12 -56 l0 -48 -392
-6 c-483 -9 -2281 -9 -2302 -1 -12 4 -14 16 -9 57 3 29 9 54 14 57 12 9 2663
5 2677 -3z m-10361 -44 c-109 -2 -285 -2 -390 0 -106 1 -16 2 198 2 215 0 301
-1 192 -2z m340 -131 c11 -6 63 -10 121 -8 59 1 102 -2 102 -7 0 -5 -18 -57
-39 -116 -124 -334 -440 -1363 -497 -1618 -15 -68 -22 -83 -40 -87 -12 -3
-1088 -7 -2391 -7 -2368 -2 -2518 0 -2661 32 -61 13 -131 51 -169 91 -66 69
-65 55 -71 668 -4 496 -3 564 12 639 21 105 67 199 129 267 83 91 173 137 298
153 101 13 5182 6 5206 -7z m10018 -95 c0 -17 -64 -17 -1334 -17 -733 0 -1337
3 -1342 6 -5 3 -9 9 -9 15 0 7 1711 16 2600 14 75 0 85 -2 85 -18z m380 -186
c28 -7 88 -31 135 -53 70 -34 100 -56 170 -127 97 -99 139 -164 184 -288 l31
-88 3 -925 c3 -1044 8 -977 -75 -1050 -29 -25 -71 -49 -112 -63 l-66 -22
-1252 -3 -1252 -3 -66 101 c-149 226 -318 438 -515 644 l-122 129 6 41 c25
160 24 164 -57 391 -41 116 -152 437 -245 715 -94 278 -177 522 -186 542 -24
56 -21 66 22 71 20 2 782 3 1692 2 1305 -1 1666 -4 1705 -14z m-3538 -253 c39
-97 203 -553 203 -563 0 -3 48 -139 106 -303 107 -300 170 -512 153 -512 -5 0
-28 17 -52 38 -312 283 -753 571 -1157 758 -545 251 -1022 379 -1690 456 -166
19 -250 22 -560 22 -397 1 -416 0 -864 -65 -314 -45 -545 -86 -561 -99 -5 -4
-26 -10 -45 -12 -33 -4 -34 -5 -12 -14 l23 -10 -23 -11 c-13 -6 -79 -29 -148
-51 -479 -153 -953 -396 -1372 -704 -231 -170 -368 -288 -573 -493 -181 -182
-392 -419 -475 -535 -57 -81 -179 -270 -214 -332 -21 -37 -42 -70 -46 -73 -5
-3 2 26 15 64 21 64 41 172 66 366 29 224 317 1242 570 2010 22 66 43 126 48
133 7 11 30 9 122 -13 63 -15 123 -30 134 -34 11 -4 1388 -7 3060 -6 l3040 0
65 23 c36 12 79 30 95 41 17 11 35 20 41 20 6 1 29 -45 51 -101z m-2487 -324
c385 -34 729 -104 1099 -225 703 -228 1341 -622 1878 -1158 328 -327 564 -656
778 -1081 86 -172 214 -495 200 -508 -7 -7 -4 -11 -65 98 -78 138 -184 312
-253 415 -69 102 -272 370 -372 490 -80 96 -342 382 -366 398 -9 7 -65 58
-125 113 -199 185 -350 304 -629 495 -148 102 -477 309 -490 309 -3 0 -22 11
-43 23 -20 13 -111 62 -202 110 -436 226 -937 391 -1369 451 -194 27 -430 46
-582 46 -265 0 -701 -59 -774 -106 -11 -6 -65 -24 -120 -39 -193 -52 -581
-167 -700 -207 -613 -209 -1166 -528 -1609 -928 -353 -320 -615 -643 -865
-1068 -200 -338 -426 -905 -506 -1264 l-17 -78 -34 0 c-21 0 -37 6 -40 14 -3
8 13 84 35 169 108 414 297 868 504 1209 186 306 315 482 538 733 388 437 887
825 1378 1074 538 273 1130 451 1675 506 355 36 741 39 1076 9z m-923 -208
c-9 -60 11 -82 78 -89 73 -7 110 9 148 68 34 52 73 71 110 53 19 -10 47 -69
47 -103 0 -20 6 -23 61 -29 116 -12 114 -12 158 53 41 60 72 78 112 66 10 -4
19 -15 19 -26 0 -11 5 -40 11 -64 13 -52 46 -72 137 -81 l59 -7 39 48 c64 79
72 85 108 85 39 0 46 -11 46 -75 0 -55 17 -94 44 -100 149 -32 178 -26 220 45
34 56 46 63 81 50 21 -8 25 -16 25 -51 0 -64 26 -106 80 -134 84 -42 140 -32
187 35 14 20 55 26 101 14 21 -6 23 -11 20 -68 -1 -33 1 -66 5 -72 3 -6 39
-22 78 -34 l72 -23 43 46 c49 53 45 51 77 36 16 -7 29 -25 37 -53 18 -62 35
-83 90 -111 67 -34 101 -32 146 7 l36 32 24 -29 c13 -17 35 -44 49 -62 15 -18
52 -44 83 -59 283 -133 445 -238 782 -507 305 -245 594 -535 816 -822 256
-331 515 -740 629 -995 196 -435 302 -820 357 -1285 21 -178 18 -815 -5 -990
-21 -162 -58 -358 -93 -500 -36 -141 -124 -428 -136 -440 -6 -7 -7 -1 -4 15
69 306 119 744 119 1045 2 880 -223 1710 -669 2471 -241 412 -527 758 -904
1095 -397 354 -1021 712 -1547 888 -378 125 -622 182 -993 228 -206 25 -863
25 -1055 0 -318 -43 -434 -66 -751 -153 -481 -131 -863 -307 -1299 -597 -247
-165 -469 -349 -715 -596 -364 -364 -625 -731 -875 -1230 -223 -447 -333 -799
-431 -1381 l-24 -145 5 200 c12 529 118 1007 341 1546 119 288 229 496 399
756 178 270 323 449 558 686 361 364 688 599 1157 833 227 113 312 148 540
223 275 90 494 140 820 186 102 15 185 27 185 28 0 1 11 24 25 52 26 52 44 62
109 64 l34 1 -6 -44z m-9779 -3 c-10 -2 -26 -2 -35 0 -10 3 -2 5 17 5 19 0 27
-2 18 -5z m-142 -18 c-27 -14 -86 -21 -73 -9 6 7 62 21 87 23 8 0 2 -6 -14
-14z m-111 -27 c-16 -6 -35 -13 -40 -17 -6 -3 -2 2 8 12 11 9 29 17 41 16 17
0 15 -3 -9 -11z m-74 -31 c-6 -8 -8 -16 -5 -19 3 -3 -11 -9 -30 -12 -20 -4
-40 -14 -45 -24 -6 -9 -11 -13 -11 -8 0 5 -7 3 -15 -4 -8 -7 -15 -9 -15 -4 0
10 45 42 95 68 37 19 40 19 26 3z m688 -33 c63 -42 77 -85 101 -299 6 -55 15
-115 20 -132 6 -24 5 -33 -3 -33 -9 0 -9 -2 0 -8 6 -4 14 -19 18 -33 5 -22 3
-26 -15 -25 -17 1 -25 -10 -42 -59 -11 -33 -27 -67 -35 -75 -13 -13 -14 -11
-11 15 2 17 8 34 13 38 6 6 6 10 -2 14 -7 2 -13 12 -13 21 0 10 -5 24 -10 32
-7 12 -10 11 -17 -7 -8 -22 -9 -22 -39 12 -17 19 -29 37 -26 40 3 3 -1 5 -9 5
-8 0 -32 9 -54 19 -115 55 -291 54 -397 -2 -128 -67 -181 -156 -182 -307 -1
-99 18 -164 71 -243 97 -143 154 -166 344 -136 39 6 73 8 76 6 3 -3 -7 -50
-21 -104 -14 -54 -37 -138 -50 -188 -13 -49 -32 -112 -43 -140 -18 -48 -20
-50 -62 -53 -122 -9 -269 29 -388 99 -140 84 -309 285 -356 423 -27 80 -19 86
19 14 19 -38 39 -68 44 -68 24 0 46 37 43 71 -8 76 -4 242 7 291 23 101 44
173 64 218 71 159 244 337 445 457 79 47 215 109 286 130 28 8 70 21 95 28 52
15 82 11 129 -21z m-839 -71 c-13 -9 -31 -25 -39 -35 -45 -50 -62 -67 -73 -75
-7 -4 -28 -25 -46 -46 -17 -21 -32 -33 -32 -28 0 31 193 221 208 206 3 -3 -5
-13 -18 -22z m156 -28 c-36 -19 -45 -19 -20 0 10 8 26 14 34 15 8 0 2 -7 -14
-15z m18049 -34 c216 -46 342 -132 423 -289 69 -132 87 -224 86 -442 0 -160
-4 -205 -28 -335 -35 -184 -82 -325 -149 -449 -52 -96 -170 -186 -244 -186
l-33 0 48 68 c169 236 254 465 284 766 26 263 -36 500 -167 631 -80 79 -194
127 -350 147 -52 7 -96 17 -98 22 -3 6 -2 25 0 43 4 25 11 33 32 36 59 9 110
6 196 -12z m-18135 -36 c0 -2 -10 -9 -22 -15 -22 -11 -22 -10 -4 4 21 17 26
19 26 11z m-54 -50 c-8 -8 -17 -15 -20 -15 -3 0 -3 7 0 15 4 8 13 15 21 15 12
0 12 -2 -1 -15z m-49 -48 c-26 -27 -33 -27 -17 2 6 12 17 21 25 21 10 0 8 -7
-8 -23z m-166 -75 c-6 -21 -18 -46 -26 -57 -16 -20 -16 -20 -10 3 5 16 2 22
-9 22 -9 0 -16 -9 -16 -21 0 -11 -5 -30 -12 -42 -7 -12 -13 -30 -15 -41 -2
-10 -8 -26 -13 -35 -8 -14 -9 -13 -10 6 0 21 6 38 36 110 8 17 14 34 14 37 0
4 12 25 27 47 21 32 28 37 35 25 5 -9 5 -32 -1 -54z m124 29 c-3 -6 -11 -11
-17 -11 -6 0 -6 6 2 15 14 17 26 13 15 -4z m-25 -30 c0 -5 -9 -19 -20 -32 -20
-24 -20 -22 -5 26 5 16 25 21 25 6z m11330 -96 c1007 -119 1903 -542 2630
-1242 220 -212 409 -442 609 -742 81 -120 220 -368 293 -521 92 -193 208 -507
268 -720 37 -134 39 -144 51 -205 6 -33 18 -85 26 -115 16 -61 28 -197 15
-166 -8 18 -9 18 -15 3 -4 -10 -17 -17 -31 -17 -18 0 -24 -4 -20 -15 4 -8 15
-15 25 -15 12 0 19 -7 19 -20 0 -13 -7 -20 -20 -20 -15 0 -20 -7 -21 -27 l-2
-28 -4 28 c-4 22 -9 27 -34 27 -23 0 -29 -4 -29 -21 0 -11 -4 -18 -9 -15 -9 6
-21 -124 -21 -210 0 -25 -5 -46 -15 -54 -11 -9 -15 -9 -15 -1 0 43 -42 311
-66 426 -144 671 -380 1192 -790 1740 -296 397 -632 714 -1039 980 -333 217
-583 340 -980 480 -425 150 -998 237 -1450 220 -639 -23 -1136 -145 -1717
-419 -576 -271 -1101 -722 -1575 -1351 -261 -348 -449 -714 -597 -1163 -141
-430 -202 -789 -213 -1257 -10 -453 42 -846 172 -1300 74 -259 154 -455 311
-766 91 -181 143 -265 304 -504 188 -276 575 -690 794 -850 23 -16 47 -35 54
-42 124 -119 595 -410 822 -508 47 -20 100 -43 118 -51 55 -26 211 -83 337
-125 245 -81 466 -132 740 -169 88 -12 198 -27 245 -35 l85 -13 -102 -1 -102
-1 -3 -97 c-3 -92 -2 -99 20 -120 l23 -23 -28 1 c-102 2 -482 61 -673 105
-584 134 -1191 428 -1660 805 -326 261 -608 550 -846 864 -350 463 -568 896
-728 1451 -145 502 -187 779 -188 1234 0 631 98 1149 332 1752 52 136 238 508
327 658 467 778 1079 1350 1863 1740 85 43 178 86 205 95 28 10 55 22 60 26 6
4 53 24 105 44 375 147 807 243 1275 285 152 13 706 4 865 -15z m-11411 -54
c-16 -35 -30 -42 -22 -11 3 11 9 20 14 20 5 0 9 8 9 17 0 9 3 14 6 10 3 -3 0
-20 -7 -36z m-143 -114 c-17 -57 -37 -87 -28 -42 2 14 8 28 13 31 5 3 9 24 9
47 0 30 3 38 11 30 8 -8 7 -26 -5 -66z m116 48 c-2 -14 -6 -25 -8 -25 -2 0 -4
11 -4 25 0 14 4 25 9 25 4 0 6 -11 3 -25z m18507 -12 c40 -7 63 -40 91 -132
16 -51 20 -92 20 -212 0 -281 -65 -421 -193 -418 -18 0 -27 3 -20 5 7 3 9 12
6 20 -3 8 6 32 21 54 14 22 26 42 26 45 0 2 13 33 29 68 82 179 51 417 -69
537 -48 48 -42 63 19 48 20 -5 51 -11 70 -15z m-17442 -25 c-3 -8 -6 -5 -6 6
-1 11 2 17 5 13 3 -3 4 -12 1 -19z m-1090 -20 c-3 -8 -6 -5 -6 6 -1 11 2 17 5
13 3 -3 4 -12 1 -19z m843 -6 c30 -24 34 -76 17 -206 -18 -133 -25 -140 -111
-132 -72 7 -112 29 -150 83 -61 88 -18 228 84 266 8 3 43 6 76 6 45 1 68 -4
84 -17z m427 -74 c-2 -13 -4 -3 -4 22 0 25 2 35 4 23 2 -13 2 -33 0 -45z
m-131 13 c-6 -9 12 -72 23 -81 4 -3 14 -18 24 -35 15 -24 11 -22 -17 10 -35
40 -53 85 -41 105 3 5 8 10 11 10 3 0 3 -4 0 -9z m544 -92 c36 -5 319 -14 630
-19 311 -5 615 -10 675 -11 l110 -2 -140 -8 c-77 -5 -178 -15 -225 -23 -79
-14 -435 -93 -518 -116 -21 -5 -87 -21 -148 -35 -156 -36 -224 -67 -258 -118
-21 -33 -26 -50 -21 -77 18 -115 26 -339 28 -840 3 -694 -5 -822 -52 -864 -10
-9 -43 -24 -74 -35 l-57 -18 -5 21 c-12 56 -62 387 -113 736 l-36 255 3 590
c2 325 5 593 7 596 2 3 31 0 66 -8 35 -8 92 -18 128 -24z m-405 -157 c-2 -2
-10 9 -19 25 -8 16 -21 35 -30 42 -15 13 -11 45 5 35 5 -3 7 -10 4 -15 -4 -5
1 -9 9 -9 12 0 16 12 17 53 2 38 4 28 9 -38 4 -49 6 -92 5 -93z m17017 131
c57 -60 75 -160 39 -218 -24 -39 -70 -85 -86 -85 -7 0 -15 20 -19 46 -8 60 -8
289 0 297 9 9 34 -6 66 -40z m-11622 2 c0 -4 -6 -19 -14 -34 -27 -52 -97 -266
-142 -436 -25 -93 -50 -176 -55 -185 -8 -12 -9 -11 -5 5 18 74 26 160 24 254
l-3 109 -80 7 c-44 3 -320 5 -612 3 l-532 -3 -23 -23 c-22 -21 -23 -31 -26
-202 l-4 -180 30 -29 c19 -20 43 -31 74 -36 25 -4 278 -5 562 -3 284 1 516 -1
516 -5 0 -5 -9 -30 -21 -56 -20 -47 -22 -49 -72 -55 -29 -3 -257 -6 -507 -6
-517 0 -500 -2 -577 84 -35 38 -48 46 -77 46 -43 0 -58 -22 -47 -71 11 -47 34
-89 68 -123 32 -32 57 -43 128 -57 52 -10 972 -13 998 -3 20 7 29 -9 32 -62 2
-25 5 -47 8 -50 2 -2 39 30 81 72 42 42 79 74 82 72 6 -7 -15 -130 -25 -147
-5 -7 -46 -16 -102 -21 -106 -11 -1185 -13 -1266 -4 l-53 7 0 562 c0 309 3
565 7 568 8 8 1633 9 1633 2z m4805 -24 c382 -51 628 -116 990 -261 227 -91
331 -141 510 -245 500 -292 877 -628 1246 -1110 44 -57 177 -254 231 -340 69
-111 210 -390 276 -545 92 -219 197 -573 251 -851 53 -271 65 -415 66 -769 0
-361 -7 -461 -55 -745 -106 -629 -382 -1259 -779 -1775 -201 -262 -554 -620
-761 -771 -244 -179 -525 -353 -705 -438 -258 -122 -435 -190 -670 -257 -293
-84 -584 -133 -915 -155 -279 -18 -626 5 -995 67 -373 62 -845 236 -1225 450
-122 69 -406 264 -500 343 -30 25 -77 64 -105 86 -85 66 -342 324 -444 443
-135 159 -195 240 -336 452 -211 317 -360 619 -480 973 -145 430 -201 755
-212 1232 -6 272 1 407 38 694 142 1104 766 2132 1709 2816 134 98 370 238
551 327 411 204 768 310 1270 378 257 35 787 35 1044 1z m-11568 -173 c-3 -7
-5 -2 -5 12 0 14 2 19 5 13 2 -7 2 -19 0 -25z m4486 -1 c61 -31 116 -90 150
-164 22 -47 22 -57 29 -728 10 -906 3 -1374 -24 -1514 -34 -180 -98 -346 -232
-596 -66 -123 -155 -273 -193 -323 -14 -18 -23 -35 -20 -38 6 -7 139 37 157
52 8 7 33 17 56 23 22 6 49 20 58 30 10 11 29 22 43 26 13 3 54 28 90 55 35
28 69 50 74 50 19 0 204 193 247 258 23 34 43 68 43 75 1 7 5 -6 10 -28 4 -22
8 -714 8 -1537 l1 -1498 -1296 0 -1295 0 41 47 c22 27 46 57 53 69 88 153 134
284 162 457 19 116 18 18 7 1262 -6 714 -12 1013 -21 1045 -24 92 -108 214
-269 390 -12 14 -35 52 -51 85 -55 116 -56 138 -56 1020 0 935 1 948 70 1090
93 192 192 258 465 310 124 24 596 69 900 86 113 6 264 15 335 19 72 5 191 7
266 6 125 -2 141 -4 192 -29z m-3288 -42 c14 -23 15 -27 3 -17 -13 10 -17 10
-21 0 -3 -7 -6 2 -6 21 -1 19 0 32 2 30 2 -2 11 -17 22 -34z m4740 -215 c73
-5 21 -7 -198 -8 -197 -1 -296 1 -292 8 7 11 333 12 490 0z m91 -119 c-10 -15
-88 -20 -341 -23 -222 -3 -240 -2 -243 15 -3 16 16 17 293 17 174 0 294 -4
291 -9z m10288 -514 c-5 -9 -4 -9 7 1 9 9 54 11 159 10 80 -1 115 -3 78 -5
-48 -3 -68 -8 -68 -17 0 -14 -42 -26 -86 -26 -17 0 -24 6 -24 20 0 11 -5 20
-10 20 -6 0 -10 -8 -8 -17 3 -16 -9 -19 -97 -24 -97 -5 -95 -5 48 -7 153 -2
177 -8 177 -46 0 -11 9 -16 30 -16 17 0 30 5 30 10 0 6 40 10 100 10 60 0 100
-4 100 -10 0 -5 7 -10 16 -10 18 0 44 -23 44 -39 0 -6 -7 -11 -15 -11 -8 0
-15 -5 -15 -11 0 -6 -10 -19 -22 -30 -17 -14 -18 -17 -5 -13 9 3 17 1 17 -5 0
-22 947 9 962 32 5 7 6 23 3 37 -3 14 -9 50 -12 80 -3 30 -10 60 -15 67 -15
18 23 24 132 21 l95 -3 5 -445 c3 -245 6 -1343 8 -2441 l2 -1995 -22 -21 c-32
-29 -75 -49 -133 -61 -54 -12 -1201 -19 -1212 -9 -3 4 -1 12 5 19 6 8 22 49
37 92 14 43 30 86 34 95 11 20 41 107 51 146 5 17 16 59 25 95 9 36 23 79 32
95 8 17 13 41 12 55 l-4 25 -185 -1 c-234 -2 -341 -9 -349 -22 -8 -13 -59 -27
-84 -23 -12 1 -20 -5 -24 -18 -4 -16 -13 -20 -47 -20 -22 1 -80 -2 -127 -6
l-86 -7 -31 43 c-36 49 -45 87 -12 51 11 -12 20 -28 20 -37 0 -8 5 -15 11 -15
6 0 9 6 6 13 -4 11 10 13 69 9 51 -3 74 -1 74 7 0 7 32 11 98 11 54 0 102 4
108 9 5 5 72 14 149 20 77 6 183 16 235 21 52 6 120 12 150 14 30 2 82 10 115
18 33 9 105 21 160 26 55 6 111 14 124 18 20 6 23 4 18 -9 -5 -14 4 -16 78
-15 47 1 85 4 85 7 0 3 -5 13 -10 21 -8 13 -10 12 -10 -2 0 -20 -15 -24 -25
-8 -3 6 0 11 7 11 40 5 -120 20 -261 25 -120 5 -162 3 -157 -5 10 -15 -17 -14
-32 1 -9 9 -89 14 -277 19 -258 6 -266 7 -289 28 -20 19 -45 25 -140 37 -77 8
-122 18 -132 29 -19 19 -73 20 -80 1 -4 -11 -10 -11 -30 -2 -29 13 -29 13 -3
73 12 26 23 62 24 78 1 17 13 73 27 125 26 95 52 219 63 295 4 22 8 51 11 65
2 14 14 107 26 208 l22 182 51 0 c69 0 199 25 265 50 50 20 118 56 130 70 3 3
24 17 47 32 41 27 173 172 173 190 0 5 13 26 29 46 48 62 121 263 141 386 7
43 17 74 28 82 16 13 16 13 0 14 -19 0 -24 15 -10 24 23 14 -8 406 -34 448 -5
7 -9 15 -9 18 -2 23 -29 100 -36 100 -4 0 -13 18 -19 40 -6 22 -15 40 -20 40
-13 0 -51 76 -42 85 4 5 2 5 -5 1 -7 -4 -17 3 -24 16 -18 36 -128 140 -197
187 -35 23 -61 45 -58 49 4 3 11 1 17 -5 6 -6 17 -9 24 -7 7 3 16 1 20 -5 3
-6 0 -11 -7 -11 -26 -1 20 -20 54 -22 25 -2 34 -7 31 -18 -2 -8 14 -30 37 -49
22 -19 40 -40 40 -48 0 -10 6 -12 20 -8 16 5 20 2 20 -19 0 -27 15 -43 25 -26
4 6 10 8 15 5 16 -10 69 -122 75 -162 4 -21 14 -43 22 -50 8 -6 14 -14 14 -17
-4 -35 1 -55 12 -50 10 4 12 -3 9 -26 -2 -18 0 -30 7 -30 6 0 11 -7 11 -15 0
-25 22 -64 39 -68 12 -4 11 -6 -6 -12 -13 -4 -20 -12 -17 -17 4 -6 8 -33 10
-62 2 -28 6 -71 10 -96 3 -25 6 -74 7 -109 0 -36 3 -59 5 -53 2 7 17 12 33 12
20 0 29 5 29 16 0 8 6 22 14 29 15 15 29 143 21 190 -20 122 -67 274 -97 317
-10 14 -18 29 -18 33 0 14 -64 135 -72 135 -4 0 -8 6 -8 14 0 20 -65 99 -153
185 -75 74 -216 171 -249 171 -10 0 -18 5 -18 12 0 6 -3 8 -6 5 -4 -3 -16 0
-28 8 -11 8 -31 15 -43 15 -14 0 -23 6 -23 15 0 15 -5 17 -45 19 -11 1 -20 7
-20 15 0 7 -10 17 -22 22 -13 5 -23 4 -23 -1 0 -5 10 -11 23 -13 19 -4 18 -4
-5 -6 -16 0 -28 3 -28 8 0 5 -26 12 -57 16 -32 4 -61 12 -65 19 -6 8 -8 8 -8
-1 0 -9 -18 -13 -55 -13 -42 0 -55 3 -55 15 0 18 60 21 77 4 9 -9 18 -5 38 15
l26 26 -21 22 c-18 19 -22 20 -30 8 -8 -13 -10 -12 -10 3 0 9 -3 17 -7 17 -5
0 -17 14 -28 30 -20 30 -35 39 -35 21 0 -5 7 -17 16 -25 26 -26 6 -36 -71 -36
l-74 0 6 -48 c4 -36 2 -53 -9 -63 -8 -7 -13 -22 -10 -32 3 -11 -1 -23 -8 -27
-11 -7 -12 -16 -2 -47 8 -28 9 -40 0 -48 -8 -7 -9 -5 -5 7 3 10 2 20 -2 23 -7
4 -31 77 -36 110 0 6 -6 23 -13 38 -7 16 -12 34 -12 40 0 6 -9 34 -20 62 -11
27 -40 106 -64 175 -24 69 -58 156 -75 193 -17 38 -31 74 -31 81 0 7 -6 18
-12 25 -7 6 -13 15 -13 19 -1 4 -23 52 -50 107 -27 55 -49 102 -50 105 0 3 -8
19 -17 35 -8 17 -13 36 -10 44 2 8 1 11 -4 8 -5 -3 -16 7 -25 21 l-15 27 463
-3 c364 -2 462 -5 457 -15z m536 -177 c0 -5 -9 -10 -20 -10 -11 0 -20 5 -20
10 0 6 9 10 20 10 11 0 20 -4 20 -10z m80 4 c0 -18 -34 -34 -72 -33 l-43 1 32
11 c17 7 35 15 39 20 9 8 44 10 44 1z m-10424 -27 c4 -4 -16 -58 -45 -120
-311 -659 -450 -1178 -502 -1866 -17 -232 -7 -688 21 -891 53 -397 119 -692
227 -1010 75 -222 240 -618 329 -791 22 -41 40 -76 41 -79 2 -3 -324 -5 -725
-5 l-727 0 -6 1065 c-9 1607 -10 3696 -1 3704 9 10 1379 3 1388 -7z m9764
-847 c0 -4 -12 -11 -27 -16 l-28 -7 29 -6 c16 -3 31 -11 33 -17 3 -8 -8 -9
-39 -1 -24 6 -45 12 -47 14 -5 3 31 38 40 38 4 0 11 3 15 7 8 9 24 1 24 -12z
m-95 -25 c6 -2 -10 -4 -35 -4 -25 0 -51 3 -59 8 -13 8 69 5 94 -4z m-115 -5
c0 -7 -16 -9 -40 -7 -58 6 -62 17 -7 17 26 0 47 -5 47 -10z m-136 -29 c3 -5
-5 -12 -18 -15 -13 -3 -31 -9 -40 -12 -9 -3 -16 -2 -16 3 0 5 12 14 28 20 36
14 40 15 46 4z m402 -2 c3 -6 15 -8 26 -6 11 3 17 3 14 0 -3 -3 2 -12 12 -20
14 -11 13 -12 -13 -1 -59 25 -81 38 -63 38 9 0 20 -5 24 -11z m115 -52 c-5 -5
-17 -5 -28 2 -16 9 -15 10 9 9 16 -2 24 -6 19 -11z m164 -322 c41 -63 54 -92
36 -81 -7 5 -16 18 -22 29 -5 12 -25 47 -45 77 -21 30 -30 49 -21 42 9 -8 32
-38 52 -67z m-98 -307 c-3 -8 -6 -5 -6 6 -1 11 2 17 5 13 3 -3 4 -12 1 -19z
m-14412 -119 c28 -19 60 -50 73 -69 49 -73 54 -113 61 -465 3 -181 3 -377 0
-435 l-6 -105 1 119 c1 69 -1 111 -6 100 -5 -11 -7 18 -4 68 2 48 0 88 -4 90
-4 2 -10 21 -13 43 -5 30 -4 36 4 25 9 -12 9 -11 4 5 -4 11 -10 30 -12 43 -3
13 -13 22 -24 22 -11 0 -19 6 -19 14 0 8 -5 27 -11 43 -10 25 -12 26 -18 9 -4
-10 -9 -80 -10 -155 -2 -75 -7 -221 -11 -326 l-7 -190 -2 220 c-1 121 -6 290
-10 375 l-8 155 -61 115 c-57 107 -142 306 -142 331 0 7 28 10 88 7 82 -3 91
-5 137 -39z m13348 -429 c-3 -12 -8 -19 -11 -16 -5 6 5 36 12 36 2 0 2 -9 -1
-20z m32 -69 c-3 -18 -9 -31 -11 -28 -8 7 -13 91 -6 101 10 17 23 -39 17 -73z
m-14085 3 c90 -8 472 -6 518 2 l32 6 0 -840 c0 -660 -3 -842 -12 -849 -7 -6
-37 -18 -65 -27 -29 -10 -53 -22 -53 -27 0 -5 -23 -9 -50 -9 -28 0 -66 -6 -85
-14 -21 -9 -37 -11 -40 -5 -4 5 -21 9 -40 9 -19 0 -37 5 -40 10 -3 6 -1 10 4
10 6 0 11 7 11 15 0 8 -7 15 -15 15 -8 0 -15 -5 -15 -12 0 -20 -15 3 -17 25
-5 68 -16 201 -21 262 l-7 70 -61 16 c-34 8 -78 23 -98 33 -29 14 -40 15 -52
6 -12 -11 -14 75 -14 654 l0 666 23 -4 c12 -3 56 -8 97 -12z m14097 -106 c-2
-13 -4 -5 -4 17 -1 22 1 32 4 23 2 -10 2 -28 0 -40z m-210 -244 c-6 -53 -17
-53 -17 0 0 30 4 45 10 41 6 -4 9 -22 7 -41z m0 -331 c-2 -21 -4 -6 -4 32 0
39 2 55 4 38 2 -18 2 -50 0 -70z m0 -265 c-3 -8 -6 -5 -6 6 -1 11 2 17 5 13 3
-3 4 -12 1 -19z m-13636 -1687 c41 -10 145 -29 231 -41 l157 -23 -37 -17 c-52
-24 -68 -45 -114 -151 -33 -79 -87 -232 -89 -256 -2 -12 242 -142 341 -182
l65 -26 845 -3 c465 -2 1557 -5 2428 -7 870 -2 1586 -6 1591 -9 14 -9 64 -86
59 -92 -9 -9 -4605 -3 -4813 6 -129 6 -221 15 -259 25 -114 32 -248 111 -347
206 -66 64 -96 109 -134 204 -24 59 -29 85 -29 165 -1 75 18 220 29 220 1 0
35 -8 76 -19z m16349 -86 c34 -84 35 -249 1 -344 -61 -173 -206 -313 -381
-366 -50 -15 -159 -16 -1225 -15 -643 1 -1214 5 -1268 9 l-97 6 24 35 c24 36
24 36 107 39 46 1 147 6 224 12 77 5 302 12 500 15 212 4 365 11 373 17 6 5
12 19 12 32 0 17 140 307 217 450 6 11 19 41 28 67 l16 46 602 5 c601 5 602 5
707 30 58 14 112 24 120 23 8 -1 26 -28 40 -61z m-12143 2 c3 -4 -54 -7 -128
-7 -77 0 -128 -4 -121 -9 16 -10 -30 -21 -85 -21 -19 0 -46 -6 -61 -13 -39
-20 -165 -35 -332 -42 -80 -3 -199 -12 -265 -20 -66 -7 -166 -16 -223 -19 -56
-3 -133 -10 -170 -16 -113 -17 -231 -29 -357 -35 -139 -6 -346 -32 -359 -45
-5 -5 7 -12 28 -16 54 -10 1083 3 1206 15 128 12 294 18 765 27 304 5 363 4
379 -8 15 -12 16 -18 7 -36 -6 -11 -19 -23 -29 -26 -45 -15 -180 -25 -317 -26
-162 0 -434 -25 -449 -40 -5 -5 -6 -13 -2 -17 4 -4 136 -8 294 -9 298 -1 371
-6 410 -30 50 -32 17 -56 -115 -82 -125 -24 -169 -30 -273 -38 -41 -3 -122
-10 -180 -15 -157 -16 -2147 -23 -2735 -10 -552 12 -662 23 -787 79 -56 24
-60 40 -23 94 14 20 25 41 25 45 0 16 59 73 76 73 10 0 26 -7 35 -16 10 -9 35
-17 56 -18 37 -1 38 0 38 34 0 19 -7 83 -15 143 -9 59 -15 109 -14 110 6 6
3715 0 3721 -6z"/>
<path d="M12380 17809 c-705 -4 -934 -9 -965 -18 -62 -20 -105 -58 -134 -120
l-26 -56 0 -610 c0 -606 0 -610 22 -650 28 -52 68 -90 118 -111 37 -15 142
-17 1285 -18 1236 -1 1245 -1 1280 19 42 25 280 371 310 452 19 50 20 78 20
386 0 484 -10 543 -109 644 -79 82 -68 80 -496 85 -209 2 -796 1 -1305 -3z
m1609 -113 c93 -17 136 -48 167 -121 19 -44 32 -300 33 -650 1 -217 7 -200
-159 -439 -111 -160 -116 -166 -155 -171 -22 -3 -575 -5 -1230 -3 l-1190 3
-41 24 c-23 13 -48 35 -55 49 -12 21 -13 132 -11 601 3 363 8 590 14 613 18
63 57 90 135 97 104 9 2442 6 2492 -3z"/>
<path d="M11637 17649 c-90 -21 -157 -76 -177 -147 -8 -25 -10 -175 -8 -457
l3 -420 28 -48 c32 -54 125 -121 186 -134 20 -5 493 -8 1051 -8 949 0 1019 1
1072 18 74 24 126 60 216 149 94 94 128 163 136 273 3 44 2 202 -2 351 l-7
270 -28 42 c-15 23 -46 53 -68 68 -86 54 -82 54 -1269 53 -602 -1 -1112 -5
-1133 -10z m2361 -308 c5 -50 -25 -223 -54 -310 -38 -117 -111 -257 -164 -314
l-47 -51 -204 -7 c-112 -4 -341 -8 -509 -9 -168 -1 -343 -5 -390 -8 -47 -4
-98 -6 -113 -4 -44 5 -18 26 58 48 36 10 65 22 65 26 0 12 -29 9 -114 -12 -94
-24 -106 -24 -106 -5 0 24 87 183 158 289 43 64 87 116 126 148 34 27 98 87
143 134 45 46 97 91 115 99 28 12 115 14 533 12 l500 -2 3 -34z"/>
<path d="M11387 17381 c-14 -190 -2 -429 16 -316 8 50 7 269 -2 350 l-6 60 -8
-94z"/>
<path d="M16326 15640 c7 -28 12 -35 18 -29 2 2 -2 15 -10 29 l-15 25 7 -25z"/>
<path d="M16350 15561 c0 -11 4 -22 9 -25 4 -3 6 6 3 19 -5 30 -12 33 -12 6z"/>
<path d="M16381 15484 c0 -11 3 -14 6 -6 3 7 2 16 -1 19 -3 4 -6 -2 -5 -13z"/>
<path d="M18093 15285 c-131 -24 -211 -56 -318 -128 -312 -211 -426 -649 -260
-992 98 -201 282 -354 495 -412 49 -14 102 -18 215 -18 130 0 159 3 219 23
321 108 513 339 558 675 9 69 9 107 -1 175 -51 357 -308 621 -661 678 -102 17
-151 16 -247 -1z m283 -136 c219 -39 433 -266 460 -489 9 -70 6 -206 -4 -230
-9 -20 -11 -5 -12 75 -1 161 -38 280 -121 385 -79 100 -143 149 -267 202 -74
31 -82 32 -212 33 -115 0 -144 -4 -194 -22 -194 -73 -339 -219 -397 -403 -27
-83 -36 -229 -19 -312 39 -198 214 -387 436 -470 52 -20 78 -22 222 -22 109 1
167 5 174 12 7 7 21 12 32 11 36 -1 -33 -26 -124 -45 -228 -46 -481 43 -631
223 -52 62 -114 190 -135 278 -32 137 2 326 83 464 58 98 167 200 265 250 46
23 112 48 148 56 79 16 216 19 296 4z m-74 -270 c108 -23 219 -103 263 -188
60 -119 47 -294 -32 -416 -41 -65 -132 -143 -190 -165 -182 -68 -353 -39 -482
83 -79 75 -121 186 -121 317 0 116 29 209 96 305 28 40 15 -14 -21 -85 -42
-83 -56 -143 -48 -196 l6 -39 13 65 c8 36 25 88 38 116 28 56 106 133 170 167
82 42 208 57 308 36z m515 -526 c-3 -10 -5 -2 -5 17 0 19 2 27 5 18 2 -10 2
-26 0 -35z m-312 -243 c-3 -5 -12 -10 -18 -10 -7 0 -6 4 3 10 19 12 23 12 15
0z m-45 -26 c0 -6 -65 -34 -77 -34 -9 1 58 39 70 40 4 0 7 -2 7 -6z m-167 -61
c-7 -2 -19 -2 -25 0 -7 3 -2 5 12 5 14 0 19 -2 13 -5z m322 -32 c-11 -18 -104
-71 -98 -56 3 8 11 15 17 15 7 0 27 11 46 25 36 27 45 30 35 16z"/>
<path d="M16462 15250 c0 -14 2 -19 5 -12 2 6 2 18 0 25 -3 6 -5 1 -5 -13z"/>
<path d="M16477 15197 c3 -15 9 -30 14 -33 14 -8 10 20 -5 41 -13 18 -14 18
-9 -8z"/>
<path d="M16500 15137 c0 -4 14 -49 32 -100 17 -50 35 -105 39 -122 14 -51 88
-251 88 -238 2 24 -131 439 -145 453 -8 8 -14 11 -14 7z"/>
<path d="M11468 15493 c7 -3 16 -2 19 1 4 3 -2 6 -13 5 -11 0 -14 -3 -6 -6z"/>
<path d="M11428 15483 c7 -3 16 -2 19 1 4 3 -2 6 -13 5 -11 0 -14 -3 -6 -6z"/>
<path d="M9666 15404 c-4 -9 -4 -19 -1 -22 3 -3 5 0 5 6 0 7 9 12 21 12 11 0
17 5 14 10 -10 16 -32 12 -39 -6z"/>
<path d="M9755 15365 c22 -14 45 -25 50 -25 6 0 -8 11 -30 25 -22 13 -44 24
-50 24 -5 0 8 -11 30 -24z"/>
<path d="M9827 15329 c7 -7 15 -10 18 -7 3 3 -2 9 -12 12 -14 6 -15 5 -6 -5z"/>
<path d="M8776 12853 c-6 -14 -5 -15 5 -6 7 7 10 15 7 18 -3 3 -9 -2 -12 -12z"/>
<path d="M8751 12794 c0 -11 3 -14 6 -6 3 7 2 16 -1 19 -3 4 -6 -2 -5 -13z"/>
<path d="M8697 12683 c-4 -3 -7 -11 -7 -17 0 -6 5 -5 12 2 6 6 9 14 7 17 -3 3
-9 2 -12 -2z"/>
<path d="M8536 12285 c-3 -9 -6 -22 -5 -28 0 -7 5 -1 10 12 5 13 8 26 5 28 -2
2 -6 -3 -10 -12z"/>
<path d="M9656 13412 c-49 -56 -49 -56 -7 -17 35 33 70 77 59 74 -2 0 -25 -26
-52 -57z"/>
<path d="M9564 13308 l-19 -23 23 19 c21 18 27 26 19 26 -2 0 -12 -10 -23 -22z"/>
<path d="M9439 13153 c-13 -16 -12 -17 4 -4 16 13 21 21 13 21 -2 0 -10 -8
-17 -17z"/>
<path d="M17411 11093 c1 -44 3 -52 9 -33 12 36 12 90 0 90 -6 0 -10 -25 -9
-57z"/>
<path d="M17422 10980 c0 -14 2 -19 5 -12 2 6 2 18 0 25 -3 6 -5 1 -5 -13z"/>
<path d="M17310 10801 c0 -5 5 -13 10 -16 6 -3 10 -2 10 4 0 5 -4 13 -10 16
-5 3 -10 2 -10 -4z"/>
<path d="M12445 5829 c-5 -46 -4 -74 4 -82 17 -17 27 30 23 116 -3 62 -20 42
-27 -34z"/>
<path d="M12234 5865 c-21 -38 -25 -72 -9 -85 20 -16 27 3 23 61 -3 38 -4 41
-14 24z"/>
<path d="M8575 14271 c-22 -4 -45 -10 -52 -14 -7 -4 -273 -9 -592 -10 -319 -1
-582 -5 -586 -8 -3 -4 -9 -23 -12 -44 -6 -38 -6 -38 23 -30 16 4 265 11 554
15 289 5 536 10 549 12 19 2 26 -2 31 -21 8 -34 26 -37 46 -6 16 24 18 25 35
9 11 -10 19 -27 19 -39 0 -25 23 -49 42 -43 11 4 35 111 37 166 1 24 -14 26
-94 13z"/>
<path d="M12815 14295 c-11 -2 -69 -9 -130 -15 -471 -48 -893 -168 -1315 -372
-362 -175 -688 -399 -993 -681 -241 -224 -476 -514 -695 -862 -88 -138 -280
-530 -347 -708 -185 -490 -277 -1037 -261 -1562 11 -387 51 -654 148 -985 75
-258 101 -329 215 -595 128 -299 421 -759 652 -1024 396 -456 872 -805 1431
-1049 479 -210 1034 -323 1595 -325 222 -1 373 12 665 59 344 56 755 182 1017
312 491 245 807 466 1147 806 565 563 944 1246 1110 1996 68 313 86 475 93
840 6 364 -7 549 -58 807 -83 428 -161 669 -339 1053 -110 238 -332 594 -505
810 -349 437 -828 821 -1343 1079 -190 95 -303 142 -511 211 -442 148 -758
199 -1251 205 -168 2 -314 2 -325 0z m785 -255 c30 -5 96 -15 145 -20 113 -13
196 -28 261 -46 28 -8 66 -14 85 -14 19 0 39 -4 44 -9 6 -4 43 -16 83 -27 54
-13 76 -24 88 -42 15 -23 15 -26 -2 -36 -11 -6 -35 -14 -54 -18 -19 -4 -55
-12 -80 -18 -25 -6 -67 -16 -95 -21 -76 -16 -154 -56 -160 -82 -2 -12 -6 -74
-8 -138 -3 -122 -12 -150 -61 -191 -33 -28 -126 -70 -168 -75 -20 -3 -45 -13
-55 -23 -14 -13 -27 -15 -60 -9 -23 5 -75 11 -115 14 -40 2 -131 10 -203 16
-315 27 -772 -34 -1145 -152 -249 -79 -532 -212 -708 -332 -137 -93 -270 -189
-304 -219 -17 -15 -35 -25 -41 -21 -6 3 -7 1 -4 -4 4 -6 -4 -18 -18 -27 -34
-23 -85 -67 -190 -168 -50 -49 -96 -88 -103 -88 -6 0 -9 -7 -5 -17 4 -11 3
-14 -5 -9 -7 4 -12 1 -12 -8 0 -8 -12 -27 -26 -41 -30 -30 -94 -112 -94 -121
0 -3 -7 -12 -15 -21 -21 -20 -145 -197 -181 -256 -16 -27 -39 -65 -52 -85 -41
-67 -202 -394 -202 -411 0 -9 -4 -21 -9 -26 -6 -6 -12 -21 -15 -35 -3 -14 -16
-59 -29 -100 -39 -117 -54 -175 -82 -315 -14 -71 -30 -143 -35 -160 -19 -63
-42 -338 -43 -510 -2 -341 54 -685 164 -1010 33 -96 35 -100 72 -185 25 -57
46 -117 48 -135 0 -5 6 -17 13 -25 7 -8 42 -73 77 -145 35 -71 73 -139 84
-151 11 -12 33 -49 49 -81 17 -32 37 -65 45 -74 9 -10 32 -40 51 -69 19 -28
47 -66 63 -84 15 -19 27 -36 27 -39 0 -5 75 -88 197 -216 34 -37 63 -75 63
-86 0 -14 3 -16 9 -7 6 10 15 6 40 -15 79 -67 93 -83 77 -83 -9 0 -16 -4 -16
-9 0 -10 38 -24 57 -22 7 1 19 -3 25 -8 7 -6 27 -22 43 -35 l30 -25 -32 -7
c-32 -6 -33 -8 -33 -55 l0 -49 -79 0 c-73 0 -79 -2 -86 -22 l-8 -23 -4 23 c-9
44 -23 21 -23 -38 l0 -61 -52 7 c-68 8 -118 31 -111 50 3 10 -2 14 -19 14 -24
0 -94 61 -83 72 3 3 -7 11 -23 17 -16 7 -34 24 -41 37 -6 14 -24 33 -41 42
-16 9 -35 29 -41 44 -6 15 -22 34 -35 43 -13 8 -24 20 -24 25 0 5 -25 33 -56
62 -31 29 -63 66 -71 82 -18 35 -24 42 -84 110 -45 49 -69 82 -135 188 -18 27
-43 62 -57 76 -14 15 -37 52 -51 83 -15 31 -35 64 -46 74 -10 9 -24 34 -31 54
-6 20 -19 45 -29 56 -35 40 -155 277 -192 380 -6 17 -17 39 -24 50 -27 42
-123 327 -129 381 -2 16 -13 65 -25 109 -76 282 -91 390 -97 710 -4 224 -2
287 17 450 12 105 24 217 27 250 3 33 9 65 14 70 4 6 13 47 19 90 37 262 80
429 122 484 10 13 18 30 18 38 0 15 32 100 56 146 8 16 14 36 14 45 0 9 11 39
25 66 14 27 25 58 25 68 0 10 4 18 9 18 5 0 30 45 56 100 27 55 51 100 55 100
4 0 15 19 26 43 10 23 21 44 25 47 3 3 23 34 43 70 21 36 46 74 56 85 10 11
39 52 66 90 45 67 73 103 177 221 26 30 47 58 47 62 1 19 392 402 412 402 6 0
32 19 57 43 104 95 126 113 152 127 15 8 42 28 61 43 87 73 174 137 221 161
29 15 79 42 112 59 258 138 403 203 525 239 19 5 49 16 65 23 55 25 505 134
615 149 76 11 173 27 215 37 22 4 69 11 104 14 36 3 67 8 70 11 10 10 651 -4
711 -16z m607 -76 c-3 -3 -12 -4 -19 -1 -8 3 -5 6 6 6 11 1 17 -2 13 -5z m76
-21 c-7 -2 -19 -2 -25 0 -7 3 -2 5 12 5 14 0 19 -2 13 -5z m-967 -753 c380
-29 754 -135 1107 -311 904 -453 1487 -1279 1632 -2309 77 -542 3 -1096 -212
-1590 -165 -380 -437 -765 -727 -1028 -505 -460 -1109 -732 -1761 -792 -142
-13 -459 -13 -600 0 -798 74 -1555 486 -2062 1123 -360 452 -582 1001 -644
1592 -15 144 -15 439 0 590 24 237 102 575 176 765 66 167 210 451 293 575
257 383 604 722 975 951 349 216 845 384 1252 423 61 6 124 13 140 15 68 7
311 5 431 -4z m3122 -967 c17 -29 27 -55 22 -58 -5 -3 -11 -1 -15 5 -12 20
-52 10 -80 -20 -16 -17 -53 -43 -82 -57 -29 -15 -64 -37 -77 -50 -14 -13 -31
-23 -38 -23 -7 -1 -29 -14 -48 -30 -19 -17 -42 -30 -51 -30 -22 0 -69 -38 -69
-55 0 -8 -9 -19 -20 -25 -11 -6 -20 -17 -20 -25 0 -8 -4 -15 -10 -15 -5 0 -10
7 -10 15 0 8 -7 15 -15 15 -18 0 -49 -45 -40 -59 3 -6 0 -8 -7 -6 -21 9 -70
84 -63 96 4 6 26 19 50 29 24 10 46 23 50 29 3 6 31 27 61 46 31 20 78 54 106
75 27 22 56 40 64 40 8 0 14 4 14 8 0 14 107 84 179 118 36 17 67 31 67 30 1
0 16 -24 32 -53z m59 -98 c9 -24 -1 -27 -15 -5 -8 13 -8 20 -2 20 6 0 13 -7
17 -15z m110 -247 c-3 -8 -6 -5 -6 6 -1 11 2 17 5 13 3 -3 4 -12 1 -19z m130
-320 c-3 -8 -6 -5 -6 6 -1 11 2 17 5 13 3 -3 4 -12 1 -19z m-122 -667 c9 -16
-115 -63 -134 -51 -16 9 -4 35 22 48 28 13 104 15 112 3z m-286 -1232 c21 -8
31 -17 29 -28 -6 -31 -128 -3 -128 29 0 13 60 13 99 -1z m-7019 -220 c0 -11
-4 -17 -10 -14 -5 3 -10 13 -10 21 0 8 5 14 10 14 6 0 10 -9 10 -21z m17 -126
c-3 -10 -5 -4 -5 12 0 17 2 24 5 18 2 -7 2 -21 0 -30z m106 -318 c1 -6 33 -72
70 -148 55 -112 70 -135 85 -130 14 5 15 3 5 -7 -14 -15 23 -90 141 -288 33
-56 66 -110 71 -120 10 -17 90 -136 163 -242 43 -64 111 -155 138 -187 41 -47
89 -107 97 -120 5 -7 13 -11 18 -7 5 3 8 1 7 -4 -10 -32 395 -449 516 -531 12
-8 23 -17 26 -20 3 -4 32 -26 65 -51 33 -25 69 -53 80 -63 32 -29 162 -117
173 -117 6 0 12 -4 14 -8 2 -5 48 -35 102 -68 55 -32 125 -74 155 -92 76 -45
282 -143 466 -222 55 -23 114 -48 130 -55 152 -65 574 -174 740 -190 39 -4 79
-9 90 -11 11 -3 139 -10 285 -16 236 -10 284 -9 436 7 184 19 260 16 104 -4
-348 -45 -757 -41 -1115 10 -208 29 -421 74 -548 115 -792 255 -1454 728
-1945 1389 -272 367 -460 746 -610 1231 -68 218 -75 286 -12 104 28 -80 52
-150 53 -155z m6942 128 c153 -33 230 -61 214 -78 -7 -7 -370 36 -401 47 -29
11 -38 42 -15 52 18 8 121 -3 202 -21z m-295 -832 c40 -11 37 -37 -6 -51 -42
-14 -199 -9 -215 7 -7 7 -2 17 17 32 22 17 39 21 103 20 42 -1 87 -4 101 -8z
m-295 -252 c75 -20 185 -68 185 -81 0 -15 -59 -8 -92 10 -57 30 -100 41 -204
48 -85 5 -103 4 -116 -10 -9 -9 -23 -16 -30 -16 -20 0 -38 -21 -38 -42 0 -11
-11 -23 -26 -28 -14 -6 -24 -16 -22 -23 5 -12 38 -16 323 -36 161 -11 230 -23
202 -34 -10 -3 -151 -7 -315 -8 -237 0 -301 -3 -319 -15 -21 -13 -53 -10 -53
5 0 3 23 24 52 46 29 22 82 70 118 108 39 39 75 67 87 67 11 0 26 6 33 14 22
28 99 26 215 -5z m519 -64 c-4 -8 -8 -15 -10 -15 -2 0 -4 7 -4 15 0 8 4 15 10
15 5 0 7 -7 4 -15z m-80 -120 c-14 -19 -29 -35 -31 -35 -5 0 7 18 36 53 26 31
23 18 -5 -18z m-34 -49 c0 -2 -8 -10 -17 -17 -16 -13 -17 -12 -4 4 13 16 21
21 21 13z m-70 -90 c0 -3 -4 -8 -10 -11 -5 -3 -10 -1 -10 4 0 6 5 11 10 11 6
0 10 -2 10 -4z m-4905 -86 c8 -13 -5 -13 -25 0 -13 8 -13 10 2 10 9 0 20 -4
23 -10z m3845 -19 c0 -6 -4 -13 -10 -16 -5 -3 -10 1 -10 9 0 9 5 16 10 16 6 0
10 -4 10 -9z m-3743 -56 c35 -18 62 -45 44 -45 -6 0 -11 4 -11 8 0 10 -50 37
-62 34 -5 -1 -8 3 -8 8 0 13 1 13 37 -5z m4367 -101 c33 -13 14 -22 -66 -34
-97 -14 -270 -10 -275 6 -8 23 46 33 184 33 78 1 148 -2 157 -5z m-760 -47
c118 -27 74 -54 -99 -61 -63 -3 -123 -10 -134 -16 -27 -14 -31 -13 -31 8 0 12
22 31 63 55 68 39 85 40 201 14z m676 -217 c0 -5 -5 -10 -11 -10 -5 0 -7 5 -4
10 3 6 8 10 11 10 2 0 4 -4 4 -10z m-1593 -816 c-3 -3 -12 -4 -19 -1 -8 3 -5
6 6 6 11 1 17 -2 13 -5z m-142 -34 c-16 -4 -43 -8 -60 -8 l-30 0 30 8 c17 4
44 8 60 8 l30 0 -30 -8z"/>
<path d="M10523 8255 c0 -8 7 -15 15 -15 12 0 12 3 2 15 -7 8 -13 15 -15 15
-1 0 -2 -7 -2 -15z"/>
<path d="M10675 8080 c3 -5 8 -10 11 -10 2 0 4 5 4 10 0 6 -5 10 -11 10 -5 0
-7 -4 -4 -10z"/>
<path d="M10910 7830 c0 -5 7 -10 16 -10 8 0 12 5 9 10 -3 6 -10 10 -16 10 -5
0 -9 -4 -9 -10z"/>
<path d="M11050 7721 c0 -13 26 -32 33 -24 4 3 7 1 7 -5 0 -7 5 -12 10 -12 19
0 10 15 -20 32 -17 9 -30 13 -30 9z"/>
<path d="M10940 7710 c0 -5 5 -10 10 -10 6 0 10 5 10 10 0 6 -4 10 -10 10 -5
0 -10 -4 -10 -10z"/>
<path d="M11000 7710 c0 -5 -7 -10 -16 -10 -8 0 -12 -4 -9 -10 9 -14 34 -12
51 4 19 20 18 26 -6 26 -11 0 -20 -4 -20 -10z"/>
<path d="M12870 13080 c-550 -38 -1073 -225 -1510 -539 -160 -115 -241 -183
-379 -320 -265 -263 -451 -543 -612 -918 -164 -383 -248 -877 -220 -1288 50
-714 286 -1284 744 -1800 340 -384 874 -719 1344 -845 307 -82 482 -104 833
-104 236 0 296 3 424 22 747 114 1439 518 1875 1094 321 424 507 890 577 1443
21 170 21 503 -1 680 -84 686 -393 1322 -855 1761 -160 152 -273 240 -477 370
-510 326 -1137 486 -1743 444z m675 -589 c297 -55 555 -161 818 -335 525 -348
852 -857 974 -1516 24 -131 27 -168 27 -390 1 -189 -3 -271 -17 -358 -77 -486
-284 -892 -631 -1238 -284 -283 -624 -480 -1021 -593 -411 -117 -919 -103
-1320 36 -476 165 -903 494 -1123 865 -45 76 -76 142 -62 133 5 -3 16 -21 25
-39 9 -18 29 -48 46 -67 27 -31 29 -32 23 -9 -4 14 -33 78 -65 144 -33 65 -59
125 -59 132 0 8 -4 14 -8 14 -5 0 -15 26 -22 58 -7 31 -18 63 -23 70 -6 8 -6
12 2 12 6 0 11 5 11 11 0 5 -4 7 -10 4 -5 -3 -10 3 -10 14 0 12 5 21 10 21 6
0 10 -4 10 -10 0 -5 5 -10 11 -10 5 0 7 5 4 10 -3 6 -2 10 3 10 10 0 27 -37
38 -82 3 -16 10 -28 15 -28 5 0 9 -6 9 -14 0 -43 187 -276 221 -276 18 0 5 50
-36 145 -8 17 -17 44 -21 60 -4 17 -9 34 -12 40 -3 5 -7 25 -9 45 -2 19 -12
42 -24 52 -18 15 -18 20 -7 57 7 23 16 41 20 41 5 0 8 5 8 10 0 6 -9 10 -20
10 -11 0 -20 5 -20 11 0 6 -7 18 -16 26 -9 9 -13 25 -10 36 3 11 1 43 -5 71
-7 36 -6 52 1 54 7 3 5 11 -5 22 -12 13 -17 44 -20 125 -2 59 -9 113 -15 120
-7 9 -13 78 -15 187 l-4 173 14 -130 c18 -154 57 -368 86 -461 11 -36 38 -105
60 -152 46 -101 41 -92 108 -207 69 -120 75 -129 81 -135 3 -3 20 -27 39 -55
33 -47 102 -131 181 -219 19 -21 71 -70 115 -108 44 -38 89 -78 100 -87 108
-96 364 -236 520 -286 226 -72 601 -116 720 -84 22 6 87 12 145 14 126 3 246
33 430 106 343 138 583 321 812 619 133 173 206 310 276 517 77 226 102 378
102 622 0 358 -112 710 -317 997 -72 101 -293 321 -414 412 -191 145 -517 297
-741 346 -43 10 -80 21 -83 26 -3 4 6 15 18 23 20 13 42 14 143 6 65 -5 155
-14 199 -19 44 -6 98 -10 120 -9 l40 1 -40 10 c-102 24 -195 51 -190 56 3 4
22 5 43 4 33 -2 35 -1 17 11 -11 6 -36 17 -55 23 l-35 11 30 12 c20 8 35 9 50
2 11 -5 43 -20 70 -32 28 -12 55 -24 60 -27 16 -8 -6 11 -45 40 -57 41 -148
83 -265 122 -297 100 -467 125 -840 126 -117 1 -225 -1 -241 -5 l-29 -5 30 14
c27 12 229 56 320 70 17 2 156 3 310 1 230 -3 300 -7 390 -24z m-268 -187 c-3
-3 -12 -4 -19 -1 -8 3 -5 6 6 6 11 1 17 -2 13 -5z m88 -24 c3 -6 -1 -7 -9 -4
-18 7 -21 14 -7 14 6 0 13 -4 16 -10z m260 -10 c3 -5 19 -10 36 -10 31 0 35
-6 18 -30 -8 -11 -12 -12 -16 -2 -2 6 -13 12 -24 12 -10 0 -19 6 -19 14 0 8
-6 17 -12 19 -10 4 -10 6 -1 6 6 1 15 -3 18 -9z m-175 -10 c0 -11 -14 -11 -50
0 -22 7 -21 8 13 9 20 1 37 -3 37 -9z m90 -26 c0 -2 -9 -4 -20 -4 -11 0 -20 4
-20 9 0 5 9 7 20 4 11 -3 20 -7 20 -9z m190 6 c13 -8 13 -10 -2 -10 -9 0 -20
5 -23 10 -8 13 5 13 25 0z m900 -104 c145 -99 316 -234 369 -292 29 -33 65
-71 79 -86 14 -16 22 -28 16 -28 -13 0 -94 75 -94 87 0 6 -36 43 -80 82 -44
40 -80 67 -80 61 0 -6 -6 -8 -12 -5 -7 4 0 -5 15 -19 15 -14 26 -26 24 -26 -3
0 24 -30 59 -66 35 -36 64 -70 64 -75 0 -11 40 -70 55 -81 5 -4 7 -10 4 -13
-4 -3 -51 50 -105 117 -133 166 -260 290 -374 367 -52 35 -99 69 -105 74 -17
17 86 -43 165 -97z m-794 -480 c11 -8 56 -33 100 -56 88 -47 148 -94 274 -217
148 -143 217 -247 309 -458 34 -77 78 -261 91 -376 21 -185 -6 -412 -72 -604
-27 -81 -73 -182 -87 -195 -4 -3 -17 -27 -30 -54 -24 -46 -81 -126 -81 -112 0
12 25 51 38 59 6 4 12 16 12 27 0 10 3 20 8 22 18 8 90 147 96 186 3 24 14 55
23 69 16 24 16 26 -2 39 -17 12 -14 18 7 15 3 0 9 17 13 39 4 22 11 40 16 40
11 0 12 37 2 43 -5 2 -3 2 4 1 12 -3 27 25 18 34 -3 3 -5 0 -5 -8 0 -10 -3
-10 -15 0 -8 7 -15 19 -15 26 0 8 -4 14 -10 14 -5 0 -10 -11 -10 -25 0 -18 -5
-25 -20 -25 -18 0 -20 7 -20 70 l0 70 -90 0 -90 0 0 60 0 60 34 0 c29 0 33 3
29 20 -4 15 -14 20 -38 20 -18 0 -35 -6 -38 -12 -9 -25 -16 -1 -20 69 -3 39
-8 77 -12 83 -4 6 -11 24 -15 38 -5 16 -6 -10 -3 -63 14 -243 -102 -446 -312
-549 -210 -104 -458 -51 -626 132 -61 67 -101 146 -125 247 l-17 73 -56 11
c-103 20 -149 68 -122 127 18 41 68 64 139 64 48 0 62 3 62 15 0 8 11 38 24
67 70 157 225 277 409 315 74 15 97 16 168 5 49 -7 109 -24 150 -43 38 -18 72
-29 76 -26 3 4 -1 7 -9 7 -18 0 -28 29 -28 85 0 22 -7 72 -16 110 -8 39 -19
86 -23 105 -4 19 -15 50 -25 68 -10 19 -15 36 -12 39 3 3 -5 27 -18 52 -13 25
-31 66 -39 91 -8 25 -22 62 -31 83 -18 41 -8 49 30 23z m1472 -441 c-3 -3 -9
2 -12 12 -6 14 -5 15 5 6 7 -7 10 -15 7 -18z m42 -90 c0 -8 -2 -15 -4 -15 -2
0 -6 7 -10 15 -3 8 -1 15 4 15 6 0 10 -7 10 -15z m24 -70 c5 -22 4 -26 -4 -15
-5 8 -10 24 -10 34 0 26 6 18 14 -19z m16 -50 c0 -8 -2 -15 -4 -15 -2 0 -6 7
-10 15 -3 8 -1 15 4 15 6 0 10 -7 10 -15z m17 -82 c-3 -10 -5 -4 -5 12 0 17 2
24 5 18 2 -7 2 -21 0 -30z m24 -70 c-8 -15 -10 -15 -11 -2 0 17 10 32 18 25 2
-3 -1 -13 -7 -23z m16 -105 c-3 -8 -6 -5 -6 6 -1 11 2 17 5 13 3 -3 4 -12 1
-19z m-4230 -270 c-3 -8 -6 -5 -6 6 -1 11 2 17 5 13 3 -3 4 -12 1 -19z m3063
-254 c0 -9 9 -18 20 -21 11 -3 20 -9 20 -14 0 -5 18 -9 40 -9 35 0 40 -3 39
-22 0 -13 -3 -17 -6 -10 -2 7 -22 12 -45 12 -40 0 -59 11 -71 43 -3 9 -13 17
-22 17 -8 0 -15 5 -15 10 0 6 9 10 20 10 12 0 20 -7 20 -16z m-1888 -66 c-7
-7 -12 -8 -12 -2 0 14 12 26 19 19 2 -3 -1 -11 -7 -17z m1874 8 c19 -20 18
-26 -6 -26 -13 0 -20 7 -20 20 0 24 6 25 26 6z m-1945 -89 c-8 -8 -11 -7 -11
4 0 20 13 34 18 19 3 -7 -1 -17 -7 -23z m1811 26 c-6 -2 -9 -10 -6 -15 4 -7 2
-8 -4 -4 -18 11 -14 26 6 25 10 0 12 -3 4 -6z m-1863 -78 c-12 -19 -17 -35
-12 -35 4 0 15 -4 23 -10 11 -7 8 -14 -18 -37 -17 -15 -33 -37 -35 -48 -1 -11
-8 -29 -15 -40 l-13 -20 5 20 c3 11 10 43 17 70 12 50 32 99 51 123 19 23 17
12 -3 -23z m1891 25 c0 -5 -4 -10 -10 -10 -5 0 -10 5 -10 10 0 6 5 10 10 10 6
0 10 -4 10 -10z m35 -60 c3 -5 -3 -10 -14 -10 -12 0 -21 5 -21 10 0 6 6 10 14
10 8 0 18 -4 21 -10z m-1840 -140 c3 -5 -3 -10 -14 -10 -12 0 -21 5 -21 10 0
6 6 10 14 10 8 0 18 -4 21 -10z m3221 -138 c-11 -10 -14 3 -8 33 l7 30 3 -28
c2 -16 1 -31 -2 -35z m-3326 38 c0 -5 7 -10 15 -10 8 0 15 -4 15 -10 0 -5 9
-10 20 -10 17 0 20 -7 20 -40 l0 -40 80 0 80 0 0 -100 c0 -60 4 -100 10 -100
6 0 10 -27 10 -60 l0 -60 70 0 70 0 0 80 0 80 160 0 160 0 0 -80 0 -80 -80 0
-80 0 0 -80 0 -80 150 0 150 0 0 -35 c0 -33 -2 -35 -37 -37 -36 -1 -61 -3 -90
-7 -7 0 -13 -10 -13 -20 0 -22 47 -38 63 -22 7 7 15 7 25 -2 17 -14 341 -24
370 -12 9 5 44 9 76 11 32 1 62 8 66 14 7 11 90 27 90 18 0 -11 -142 -48 -245
-64 -252 -38 -554 13 -773 133 -130 71 -203 126 -208 157 -3 24 -24 46 -42 46
-16 0 -82 66 -82 82 0 4 8 5 18 2 14 -5 14 -4 2 4 -8 6 -17 9 -20 7 -6 -3 -22
30 -68 140 -18 41 -42 144 -42 177 0 4 14 8 30 8 17 0 30 -4 30 -10z m3187
-92 c-3 -7 -5 -2 -5 12 0 14 2 19 5 13 2 -7 2 -19 0 -25z m-4340 -50 c-3 -7
-5 -2 -5 12 0 14 2 19 5 13 2 -7 2 -19 0 -25z m4313 -67 c-11 -35 -20 -75 -20
-90 0 -14 -8 -39 -18 -56 -10 -16 -35 -77 -56 -135 -21 -58 -49 -116 -63 -130
-28 -29 -27 -25 24 80 36 75 97 239 108 290 4 19 11 40 17 46 5 7 8 16 6 20
-1 5 2 25 7 44 7 25 10 29 12 15 2 -11 -5 -49 -17 -84z m134 27 c-3 -18 -8
-40 -12 -48 -3 -8 -6 -18 -6 -22 -2 -16 -13 -17 -12 -1 3 26 26 103 31 103 3
0 2 -15 -1 -32z m-1214 -8 c0 -5 -4 -10 -10 -10 -5 0 -10 5 -10 10 0 6 5 10
10 10 6 0 10 -4 10 -10z m-3208 -35 c2 -19 0 -35 -4 -35 -4 0 -8 16 -8 35 0
19 2 35 4 35 2 0 6 -16 8 -35z m3173 -5 c-10 -11 -21 -18 -23 -15 -3 3 3 12
14 20 27 20 30 18 9 -5z m-45 -54 c0 -3 -4 -8 -10 -11 -5 -3 -10 -1 -10 4 0 6
5 11 10 11 6 0 10 -2 10 -4z m1250 -37 c0 -16 -4 -28 -9 -25 -8 5 -3 56 5 56
2 0 4 -14 4 -31z m-1312 -29 c-7 -11 -15 -15 -17 -9 -2 6 3 15 10 20 20 12 21
11 7 -11z m1297 -19 c3 -5 2 -12 -3 -15 -5 -3 -9 1 -9 9 0 17 3 19 12 6z
m-4158 -23 c-3 -8 -6 -5 -6 6 -1 11 2 17 5 13 3 -3 4 -12 1 -19z m2823 7 c-7
-9 -15 -13 -19 -10 -3 3 1 10 9 15 21 14 24 12 10 -5z m1305 -60 c-8 -21 -18
-36 -21 -33 -3 4 -1 14 5 25 5 10 12 27 16 37 3 10 8 16 11 14 3 -3 -2 -23
-11 -43z m-1375 -1 c0 -1 -15 -13 -34 -28 -28 -21 -34 -23 -32 -8 2 9 8 18 14
18 33 4 35 6 17 14 -17 8 -16 8 8 7 15 -1 27 -2 27 -3z m-92 -67 c-7 -7 -46
-32 -86 -55 -104 -59 -227 -112 -144 -62 18 11 38 20 46 20 7 0 21 9 30 19 10
11 31 23 46 26 15 3 42 19 61 36 32 29 76 44 47 16z m1233 -160 c-10 -9 -11
-8 -5 6 3 10 9 15 12 12 3 -3 0 -11 -7 -18z m122 -12 c-3 -9 -8 -14 -10 -11
-3 3 -2 9 2 15 9 16 15 13 8 -4z m-188 -105 c-9 -18 -19 -30 -21 -27 -3 2 3
18 13 35 10 17 19 29 21 27 2 -2 -4 -17 -13 -35z m88 -66 c-21 -32 -42 -65
-48 -74 -10 -16 -59 -78 -163 -208 -69 -84 -178 -202 -188 -202 -3 0 -4 10 -2
23 2 17 -2 22 -19 21 -21 -1 -28 12 -24 39 2 12 -20 8 -35 -8 -10 -9 -11 -15
-4 -15 7 0 9 -8 5 -20 -5 -15 -3 -18 9 -14 12 5 15 2 10 -12 -11 -29 -25 -44
-36 -38 -5 3 -7 13 -4 23 5 12 2 11 -9 -3 -8 -11 -17 -17 -20 -14 -9 8 13 58
26 58 6 0 9 6 6 14 -6 15 32 56 52 56 7 0 9 5 6 10 -10 16 7 12 27 -7 17 -15
18 -15 18 1 0 9 -6 19 -14 22 -12 5 -10 10 6 30 24 26 39 24 17 -2 -10 -13
-11 -18 -2 -21 7 -2 9 -11 6 -19 -3 -8 0 -14 7 -14 8 0 11 -9 8 -25 -3 -14 -3
-25 0 -25 12 0 42 34 42 47 0 7 4 12 9 11 17 -5 72 66 67 85 -3 13 0 17 9 13
12 -4 12 0 3 22 -7 15 -16 32 -20 39 -5 6 -5 14 2 18 5 3 10 0 10 -8 0 -21 25
-28 60 -15 21 7 29 15 26 25 -3 8 -1 11 4 8 6 -3 10 -1 10 4 0 15 67 101 73
94 4 -3 9 6 13 21 3 14 11 30 18 34 6 4 17 16 24 27 7 11 20 32 30 47 9 15 18
23 20 18 2 -5 -14 -35 -35 -66z m-238 -153 c-3 -6 -11 -11 -17 -11 -6 0 -6 6
2 15 14 17 26 13 15 -4z m35 -51 c0 -5 -4 -10 -10 -10 -5 0 -10 5 -10 10 0 6
5 10 10 10 6 0 10 -4 10 -10z m-3648 -174 c7 4 8 2 4 -5 -9 -13 -26 -5 -25 12
0 9 2 8 6 -1 2 -6 10 -9 15 -6z m3327 -73 c-8 -10 -20 -24 -27 -32 -7 -7 -11
-20 -8 -27 3 -8 1 -14 -4 -14 -6 0 -10 -8 -10 -17 0 -15 -2 -16 -10 -3 -8 12
-10 12 -10 1 0 -16 -60 -71 -77 -71 -7 0 -13 5 -13 10 0 6 -7 10 -15 10 -8 0
-15 -4 -15 -10 0 -5 -7 -10 -15 -10 -8 0 -15 -4 -15 -10 0 -5 -10 -14 -21 -21
-49 -26 -8 14 86 84 55 41 111 86 125 100 29 29 49 36 29 10z m92 -22 c-11 -7
-9 -10 8 -16 21 -6 21 -7 4 -20 -15 -11 -19 -11 -26 1 -11 19 -2 44 15 44 10
0 10 -2 -1 -9z m-46 -86 c-16 -13 -32 -21 -35 -18 -3 3 1 8 9 11 7 2 20 13 29
23 9 10 18 16 21 13 4 -3 -7 -16 -24 -29z m-3122 -90 c27 -25 52 -45 58 -45 5
0 9 -4 9 -10 0 -5 -3 -10 -7 -10 -12 1 -129 109 -118 109 6 0 32 -20 58 -44z
m3052 25 c-3 -5 -12 -10 -18 -10 -7 0 -18 -9 -25 -21 -7 -12 -16 -19 -19 -16
-6 7 27 42 47 50 22 8 22 8 15 -3z m-270 -50 c-3 -5 -12 -10 -18 -10 -7 0 -6
4 3 10 19 12 23 12 15 0z m190 -10 c-3 -5 -12 -10 -18 -10 -7 0 -6 4 3 10 19
12 23 12 15 0z m-257 -34 c-7 -8 -17 -12 -22 -9 -4 3 -2 9 5 14 22 13 31 11
17 -5z m217 4 c-3 -5 -12 -10 -18 -10 -7 0 -6 4 3 10 19 12 23 12 15 0z
m-2827 -19 c12 -10 22 -21 22 -25 0 -9 -49 27 -50 37 0 11 5 9 28 -12z m2568
-16 c-11 -8 -29 -15 -40 -15 -17 1 -15 4 9 15 40 18 55 18 31 0z m219 5 c-3
-5 -12 -10 -18 -10 -7 0 -6 4 3 10 19 12 23 12 15 0z m-35 -20 c0 -5 -5 -10
-11 -10 -5 0 -7 5 -4 10 3 6 8 10 11 10 2 0 4 -4 4 -10z m-2692 -13 c6 -7 27
-19 47 -27 19 -7 35 -17 35 -21 0 -9 118 -69 136 -69 7 0 16 -9 19 -20 3 -11
10 -20 15 -20 17 0 143 -61 137 -66 -7 -8 -157 64 -157 75 0 4 -6 8 -13 8 -16
0 -191 102 -227 132 -14 11 -20 20 -14 21 6 0 16 -6 22 -13z m2449 -3 c-3 -3
-12 -4 -19 -1 -8 3 -5 6 6 6 11 1 17 -2 13 -5z m-37 -14 c0 -5 -7 -10 -16 -10
-8 0 -12 5 -9 10 3 6 10 10 16 10 5 0 9 -4 9 -10z m205 -19 c-3 -5 -27 -21
-53 -36 l-47 -26 27 26 c15 14 34 25 42 25 8 0 18 5 21 10 3 6 8 10 11 10 3 0
3 -4 -1 -9z m-305 -26 c0 -2 -10 -10 -22 -16 -21 -11 -22 -11 -9 4 13 16 31
23 31 12z m-1985 -25 c3 -5 1 -10 -4 -10 -6 0 -11 5 -11 10 0 6 2 10 4 10 3 0
8 -4 11 -10z m70 -38 c-3 -3 -11 0 -18 7 -9 10 -8 11 6 5 10 -3 15 -9 12 -12z
m2075 -2 c-24 -15 -36 -11 -14 4 10 8 21 12 24 10 2 -3 -2 -9 -10 -14z m-2005
-20 c3 -6 -1 -7 -9 -4 -18 7 -21 14 -7 14 6 0 13 -4 16 -10z m1652 4 c-3 -3
-12 -4 -19 -1 -8 3 -5 6 6 6 11 1 17 -2 13 -5z m-40 -20 c-3 -3 -12 -4 -19 -1
-8 3 -5 6 6 6 11 1 17 -2 13 -5z m-1506 -14 c5 0 9 -4 9 -10 0 -15 -20 -12
-38 7 -16 16 -16 16 1 10 10 -4 23 -7 28 -7z m1436 -6 c-3 -3 -12 -4 -19 -1
-8 3 -5 6 6 6 11 1 17 -2 13 -5z m-1302 -34 c16 -7 13 -9 -17 -9 -20 -1 -40 4
-43 9 -7 12 32 12 60 0z m-255 -20 c0 -4 18 -10 40 -13 22 -3 47 -12 55 -21 9
-9 25 -16 35 -16 10 0 22 -4 25 -10 3 -5 -1 -10 -9 -10 -19 0 -128 40 -140 51
-6 5 -18 9 -29 9 -10 0 -16 4 -13 8 6 10 36 12 36 2z m567 -31 c126 -15 215
-20 306 -16 123 4 127 3 85 -11 -48 -17 -257 -12 -403 9 -44 6 -91 12 -105 13
-14 2 -32 5 -40 9 -8 3 -22 8 -30 10 -28 10 9 7 187 -14z m706 14 c-7 -2 -19
-2 -25 0 -7 3 -2 5 12 5 14 0 19 -2 13 -5z m-86 -9 c-3 -3 -12 -4 -19 -1 -8 3
-5 6 6 6 11 1 17 -2 13 -5z m420 -30 c-3 -3 -12 -4 -19 -1 -8 3 -5 6 6 6 11 1
17 -2 13 -5z m-1364 -31 c15 -3 27 -10 27 -15 0 -10 -28 -3 -75 18 -24 12 -25
13 -5 8 14 -3 37 -8 53 -11z m1277 7 c-20 -13 -33 -13 -25 0 3 6 14 10 23 10
15 0 15 -2 2 -10z m-1167 -37 c-7 -2 -19 -2 -25 0 -7 3 -2 5 12 5 14 0 19 -2
13 -5z"/>
<path d="M14180 10772 c6 -13 14 -21 18 -18 3 4 -2 14 -12 24 -18 16 -18 16
-6 -6z"/>
<path d="M14200 10726 c0 -2 6 -18 14 -36 12 -29 14 -30 19 -11 3 12 1 19 -4
15 -5 -3 -9 4 -9 15 0 12 -4 21 -10 21 -5 0 -10 -2 -10 -4z"/>
<path d="M14300 10495 c0 -9 10 -15 26 -15 17 0 28 -6 31 -20 3 -12 14 -20 25
-20 16 0 19 -5 15 -26 -3 -20 1 -27 19 -34 13 -5 24 -15 24 -22 0 -16 45 -38
77 -38 15 0 21 -5 17 -13 -3 -8 2 -20 11 -27 9 -7 15 -8 15 -2 0 6 -6 12 -12
15 -10 4 -10 7 0 18 7 7 12 38 12 71 0 51 -2 58 -20 58 -11 0 -20 -7 -20 -15
0 -11 -11 -15 -40 -15 -29 0 -40 4 -40 15 0 8 -9 15 -20 15 -13 0 -20 7 -20
20 0 13 -7 20 -20 20 -11 0 -20 7 -20 15 0 10 -10 15 -30 15 -20 0 -30 -5 -30
-15z m180 -105 c3 -3 14 -10 25 -15 17 -8 16 -10 -13 -13 -26 -3 -39 2 -57 22
l-23 25 31 -6 c18 -3 34 -9 37 -13z"/>
<path d="M14541 10223 c1 -10 4 -29 8 -43 7 -24 7 -24 14 9 10 47 9 51 -8 51
-8 0 -15 -8 -14 -17z"/>
<path d="M12221 9674 c0 -11 3 -14 6 -6 3 7 2 16 -1 19 -3 4 -6 -2 -5 -13z"/>
<path d="M12455 9273 c24 -17 32 -16 38 1 4 11 -2 14 -25 14 -28 -1 -29 -2
-13 -15z"/>
<path d="M12565 9200 c-3 -5 -1 -10 4 -10 6 0 11 5 11 10 0 6 -2 10 -4 10 -3
0 -8 -4 -11 -10z"/>
<path d="M12680 9170 c0 -5 7 -10 15 -10 8 0 15 5 15 10 0 6 -7 10 -15 10 -8
0 -15 -4 -15 -10z"/>
<path d="M15020 8650 c0 -5 5 -10 11 -10 5 0 7 5 4 10 -3 6 -8 10 -11 10 -2 0
-4 -4 -4 -10z"/>
<path d="M5838 10242 c-10 -7 -16 -18 -13 -23 4 -5 0 -9 -8 -9 -7 0 -22 -12
-34 -27 -18 -26 -69 -82 -225 -248 -31 -33 -54 -62 -51 -65 2 -3 12 5 21 17 9
12 31 30 48 40 60 34 196 135 201 149 3 7 13 16 24 19 10 4 19 15 19 26 0 10
6 19 14 19 8 0 18 9 21 20 3 11 13 20 21 20 8 0 14 5 14 10 0 6 7 10 15 10 8
0 15 -5 15 -11 0 -21 138 24 154 50 10 16 -213 19 -236 3z"/>
<path d="M6471 8969 c-254 -12 -961 -57 -1075 -70 -49 -5 -114 -16 -145 -24
-53 -13 -48 -14 119 -11 251 5 1053 34 1265 46 99 6 190 10 202 10 28 0 52 38
32 51 -16 10 -127 9 -398 -2z"/>
<path d="M6130 8780 c-69 -4 -147 -11 -175 -15 -27 -3 -89 -10 -138 -13 -48
-4 -87 -11 -87 -17 0 -19 222 -26 688 -23 389 3 464 6 472 18 11 18 -2 42 -26
48 -32 8 -602 9 -734 2z"/>
<path d="M6670 8560 c15 -5 -65 -9 -190 -10 -197 -3 -330 -6 -482 -13 -31 -1
-59 -5 -62 -8 -8 -8 160 -17 252 -14 39 2 72 0 72 -4 0 -5 130 -9 289 -10 239
-2 289 0 294 12 8 22 -5 34 -48 46 -47 13 -166 14 -125 1z"/>
<path d="M5958 8553 c12 -2 32 -2 45 0 12 2 2 4 -23 4 -25 0 -35 -2 -22 -4z"/>
<path d="M17550 13159 c0 -11 5 -17 10 -14 6 3 10 13 10 21 0 8 -4 14 -10 14
-5 0 -10 -9 -10 -21z"/>
<path d="M18030 12555 c0 -8 4 -15 10 -15 5 0 7 7 4 15 -4 8 -8 15 -10 15 -2
0 -4 -7 -4 -15z"/>
<path d="M19011 11194 c0 -11 3 -14 6 -6 3 7 2 16 -1 19 -3 4 -6 -2 -5 -13z"/>
<path d="M19641 11114 c-25 -32 -25 -33 -5 -63 15 -21 22 -23 77 -18 32 3 63
9 67 14 4 4 6 23 3 40 -4 27 -11 34 -42 43 -56 16 -78 12 -100 -16z"/>
<path d="M19012 11035 c0 -16 2 -22 5 -12 2 9 2 23 0 30 -3 6 -5 -1 -5 -18z"/>
<path d="M19105 10963 c-4 -24 -3 -39 4 -41 6 -2 11 -10 11 -18 0 -20 20 -17
21 4 1 9 5 4 9 -13 6 -23 8 -15 9 38 1 64 0 67 -23 67 -20 0 -25 -7 -31 -37z"/>
<path d="M19020 10855 c0 -8 5 -15 10 -15 6 0 10 7 10 15 0 8 -4 15 -10 15 -5
0 -10 -7 -10 -15z"/>
<path d="M19107 9863 c-8 -10 -19 -30 -22 -45 l-7 -28 80 0 c58 0 83 4 92 15
18 22 5 44 -35 60 -46 20 -88 19 -108 -2z"/>
<path d="M18363 9618 c2 -7 19 -13 37 -13 18 0 35 6 38 13 2 8 -9 12 -38 12
-29 0 -40 -4 -37 -12z"/>
<path d="M18205 9357 c-30 -12 -44 -40 -25 -52 5 -3 10 0 10 7 0 7 7 0 15 -17
12 -23 22 -30 45 -31 17 -1 30 2 30 6 0 4 37 8 83 9 64 1 85 5 94 18 16 21 -7
50 -46 57 -68 13 -178 14 -206 3z"/>
<path d="M18642 9332 c-23 -15 -31 -68 -17 -109 13 -36 16 -38 70 -46 31 -4
90 -4 132 1 62 7 76 6 81 -6 4 -12 8 -12 19 4 7 10 13 25 13 33 -1 13 -4 12
-17 -4 -14 -18 -15 -18 -9 -2 3 10 6 28 6 38 0 11 5 17 10 14 6 -3 10 -1 10 4
0 6 -3 11 -8 11 -4 0 -20 12 -35 26 -15 14 -42 30 -60 35 -39 11 -177 12 -195
1z"/>
<path d="M18920 8880 c-32 -7 -33 -7 -7 -9 15 0 30 -7 33 -14 4 -10 74 -13
339 -13 184 0 335 4 335 8 0 3 10 10 23 14 21 7 21 7 -5 15 -36 9 -672 9 -718
-1z"/>
<path d="M19648 8838 c17 -8 26 -8 34 0 9 9 4 12 -22 11 -33 0 -34 -1 -12 -11z"/>
<path d="M19325 8511 c-3 -8 -2 -18 2 -22 4 -4 91 -9 193 -11 142 -3 193 -8
217 -20 38 -19 43 -15 43 29 l0 33 -52 2 c-29 1 -131 2 -225 2 -140 1 -174 -2
-178 -13z"/>
<path d="M19273 8513 c9 -2 23 -2 30 0 6 3 -1 5 -18 5 -16 0 -22 -2 -12 -5z"/>
<path d="M7390 10678 c-1 -51 -11 -231 -27 -458 -12 -162 -4 -1806 8 -1792 3
4 14 31 23 61 15 46 19 126 28 505 13 615 -1 1736 -23 1736 -5 0 -9 -24 -9
-52z"/>
<path d="M3513 9683 c3 -10 9 -39 13 -66 10 -74 25 -68 22 10 -3 57 -6 68 -21
71 -14 3 -18 -1 -14 -15z"/>
<path d="M16524 19156 c-59 -27 -116 -90 -132 -145 -20 -64 -15 -178 9 -228
75 -155 313 -192 431 -66 126 134 88 351 -75 433 -78 39 -158 41 -233 6z"/>
<path d="M3318 19060 c-31 -11 -74 -30 -95 -42 -50 -29 -143 -107 -151 -127
-3 -9 -14 -24 -23 -34 -9 -10 -27 -48 -39 -83 -18 -56 -21 -83 -18 -182 3
-102 6 -124 30 -175 32 -69 125 -165 189 -197 115 -57 241 -73 340 -44 199 58
333 218 346 414 14 199 -81 362 -260 446 -73 34 -92 39 -172 41 -70 3 -102 -1
-147 -17z m242 -114 c0 -15 -14 -35 -21 -30 -5 3 -6 -1 -4 -8 3 -8 -1 -22 -9
-33 -13 -18 -14 -17 -11 15 2 19 4 41 4 48 1 10 41 19 41 8z m-76 -147 c-10
-12 -18 -24 -16 -28 4 -10 -54 -111 -125 -222 -47 -72 -82 -107 -131 -131 -31
-16 -32 -16 -56 13 -27 32 -61 123 -51 139 10 15 17 12 52 -20 31 -30 63 -40
63 -20 0 6 6 10 14 10 15 0 76 55 76 69 0 5 16 15 35 21 19 6 36 17 36 23 1 7
2 17 4 22 1 6 3 21 3 34 2 16 6 21 17 17 9 -3 15 0 15 10 0 8 17 32 38 53 38
39 60 47 26 10z"/>
<path d="M6440 18741 c-78 -24 -120 -88 -120 -185 0 -59 3 -69 31 -101 43 -49
78 -65 141 -65 67 0 128 28 158 71 48 66 34 186 -27 241 -45 41 -122 57 -183
39z"/>
<path d="M21974 17101 c-69 -18 -133 -71 -159 -133 -19 -47 -20 -167 -1 -211
18 -42 71 -92 120 -112 56 -24 157 -21 211 5 57 28 122 101 136 154 28 102
-15 215 -102 268 -49 31 -146 44 -205 29z"/>
<path d="M22159 15255 c-112 -27 -226 -95 -302 -179 -39 -43 -92 -140 -116
-213 -29 -86 -29 -254 -1 -345 53 -174 219 -327 401 -372 192 -47 381 6 523
147 121 121 196 305 181 445 -27 256 -195 453 -440 517 -71 18 -170 18 -246 0z
m213 -100 c73 -9 179 -67 235 -129 184 -201 177 -475 -16 -667 -54 -54 -79
-70 -140 -92 -145 -54 -277 -45 -406 28 -135 75 -207 185 -227 343 -10 76 -9
99 5 156 52 210 287 392 477 370 14 -2 46 -6 72 -9z"/>
<path d="M2044 11351 c-85 -39 -133 -118 -134 -219 0 -77 22 -125 81 -175 97
-84 251 -70 339 29 44 50 60 93 60 156 -1 92 -58 177 -142 212 -52 22 -153 20
-204 -3z m186 -89 c61 -45 76 -138 28 -189 -36 -39 -72 -53 -134 -53 -50 0
-59 3 -90 34 -41 41 -45 83 -11 146 43 82 140 111 207 62z"/>
<path d="M21399 11337 c-110 -46 -173 -116 -209 -235 -24 -77 -25 -125 -4
-205 30 -116 96 -196 203 -245 47 -22 70 -26 146 -26 79 0 98 4 155 31 71 33
144 102 179 170 27 54 45 159 37 215 -10 64 -66 176 -112 222 -63 63 -132 90
-244 93 -82 3 -103 0 -151 -20z m246 -86 c76 -34 140 -129 151 -224 19 -164
-125 -321 -279 -303 -93 10 -189 80 -223 162 -22 53 -18 159 8 213 28 58 97
127 151 151 54 25 139 25 192 1z"/>
<path d="M19960 7244 c0 -8 5 -12 10 -9 6 3 10 10 10 16 0 5 -4 9 -10 9 -5 0
-10 -7 -10 -16z"/>
</g>
</svg>
