<?xml version="1.0" standalone="no"?>
<!DOCTYPE svg PUBLIC "-//W3C//DTD SVG 20010904//EN"
 "http://www.w3.org/TR/2001/REC-SVG-20010904/DTD/svg10.dtd">
<svg version="1.0" xmlns="http://www.w3.org/2000/svg"
 width="3548.000000pt" height="3700.000000pt" viewBox="0 0 3548.000000 3700.000000"
 preserveAspectRatio="xMidYMid meet">

<g transform="translate(0.000000,3700.000000) scale(0.100000,-0.100000)"
fill="#000000" stroke="none">
<path d="M18225 35688 c-38 -5 -167 -24 -285 -43 -118 -19 -243 -38 -277 -41
-45 -5 -60 -10 -56 -20 2 -7 14 -14 26 -16 50 -7 20 -34 -93 -84 -389 -170
-620 -351 -921 -724 -236 -292 -326 -451 -354 -627 -9 -59 0 -80 45 -103 50
-25 91 -25 166 0 118 40 169 94 393 416 161 230 223 308 360 448 261 266 496
437 850 617 94 48 164 91 198 122 77 71 76 72 -52 55z m-1327 -1118 c-14 -22
-50 -36 -68 -25 -21 13 20 43 63 44 15 1 15 -2 5 -19z m-115 -116 c-18 -14
-33 -32 -33 -41 0 -12 -49 -74 -156 -196 -11 -13 -19 -16 -26 -9 -14 14 4 42
80 124 32 35 73 82 91 106 21 26 41 42 54 42 20 0 19 -3 -10 -26z"/>
<path d="M19438 35693 c7 -3 16 -2 19 1 4 3 -2 6 -13 5 -11 0 -14 -3 -6 -6z"/>
<path d="M20105 35679 c68 -10 136 -31 450 -138 149 -51 376 -125 505 -166
129 -40 300 -96 378 -125 79 -28 146 -49 148 -47 3 2 -30 23 -73 45 -223 115
-776 317 -1010 368 -233 50 -362 74 -402 73 l-46 -1 50 -9z"/>
<path d="M19255 35629 c-263 -10 -399 -30 -580 -85 -365 -113 -725 -303 -985
-522 -129 -108 -310 -295 -359 -371 -54 -85 -82 -162 -88 -246 -4 -58 -1 -75
16 -102 46 -73 128 -86 242 -38 130 55 210 121 432 356 288 306 480 462 731
594 202 107 456 194 682 232 84 14 105 21 113 38 8 17 10 17 10 3 2 -38 101
-16 101 22 0 32 18 32 25 -1 6 -27 10 -30 34 -25 14 3 116 20 226 36 110 17
204 35 209 40 10 10 -9 19 -109 53 -52 17 -89 20 -285 21 -124 1 -310 -1 -415
-5z m-1005 -522 c0 -7 -6 -22 -14 -33 -14 -18 -15 -18 -24 6 -5 14 -8 28 -5
33 7 12 43 8 43 -6z m-379 -290 l33 -42 -36 34 c-20 18 -41 30 -46 27 -6 -4
-8 2 -5 14 7 25 13 21 54 -33z m-83 -70 c52 -74 74 -128 48 -119 -5 2 -3 -4 4
-13 9 -11 15 -13 20 -5 5 8 9 6 13 -5 4 -9 3 -14 -2 -11 -5 3 -12 -4 -15 -17
-7 -20 -9 -18 -22 17 -7 21 -19 45 -26 53 -9 11 -9 17 3 24 11 8 10 9 -5 7
-14 -2 -28 12 -53 52 -18 30 -33 58 -33 62 0 19 42 -9 68 -45z m-100 -38 c9
-10 33 -46 54 -81 22 -35 30 -52 18 -39 -11 13 -24 21 -27 17 -11 -11 -73 96
-72 124 0 14 3 19 6 11 3 -8 13 -22 21 -32z m232 -15 c11 -19 11 -27 2 -36 -7
-7 -12 -9 -12 -6 0 3 -7 22 -15 41 -12 30 -12 35 -1 31 7 -3 19 -16 26 -30z
m-246 -164 c5 -17 4 -21 -2 -11 -7 10 -11 10 -17 1 -10 -16 -47 90 -39 110 6
16 44 -50 58 -100z m-133 13 c-6 -11 -11 -13 -11 -5 0 8 -5 10 -12 6 -6 -4 -3
4 8 18 21 29 33 12 15 -19z m252 -13 c3 -11 1 -18 -4 -14 -5 3 -9 -1 -9 -9 0
-8 -7 -20 -16 -28 -13 -10 -17 -10 -25 2 -5 8 -9 22 -9 32 0 14 5 16 25 11 19
-5 25 -2 25 10 0 22 7 20 13 -4z m-223 -68 c13 -11 19 -23 15 -34 -6 -15 -8
-15 -23 -2 -9 8 -28 24 -42 34 l-25 19 26 1 c15 0 37 -8 49 -18z m105 -45 c0
-9 -4 -16 -10 -15 -5 1 -9 9 -7 16 2 9 -1 11 -9 6 -8 -4 -10 -3 -5 5 11 16 31
8 31 -12z m-211 -2 c-4 -8 -8 -15 -10 -15 -2 0 -4 7 -4 15 0 8 4 15 10 15 5 0
7 -7 4 -15z"/>
<path d="M17070 35458 c-25 -11 -83 -33 -130 -50 -124 -43 -351 -156 -455
-226 -214 -144 -478 -421 -666 -699 -129 -190 -282 -499 -295 -595 -8 -61 17
-83 95 -82 112 1 188 62 304 246 133 212 268 411 351 520 241 313 600 706 763
835 46 37 83 68 83 70 0 4 2 5 -50 -19z"/>
<path d="M15015 35399 c-11 -16 -1 -19 13 -3 7 8 8 14 3 14 -5 0 -13 -5 -16
-11z"/>
<path d="M14930 35370 c-9 -6 -10 -10 -3 -10 6 0 15 5 18 10 8 12 4 12 -15 0z"/>
<path d="M19864 35289 c-644 -62 -1362 -398 -1532 -717 -57 -108 -39 -177 60
-226 61 -31 147 -35 206 -11 23 10 92 72 187 169 162 166 226 214 412 309 229
117 501 189 933 248 130 17 221 22 555 25 220 3 415 7 433 10 26 4 32 9 32 30
0 46 -27 82 -70 94 -219 59 -914 99 -1216 69z m-979 -512 c-10 -7 -32 -24 -47
-39 -24 -23 -28 -24 -28 -8 0 22 47 59 75 59 20 0 20 0 0 -12z m-17 -135 c-18
-15 -48 -45 -68 -67 -19 -22 -49 -55 -66 -74 l-31 -35 -34 20 c-36 21 -69 68
-56 80 4 4 23 -5 44 -19 l36 -26 53 54 c48 50 63 60 87 56 5 -1 18 10 29 24
11 14 24 23 29 19 5 -3 -5 -17 -23 -32z m-183 -12 c-28 -29 -55 -39 -55 -21 0
10 59 51 74 51 6 0 -3 -13 -19 -30z"/>
<path d="M14743 35267 c-18 -12 -35 -28 -38 -36 -4 -10 -2 -11 7 -4 7 6 31 22
52 37 21 14 33 26 25 25 -8 0 -29 -10 -46 -22z"/>
<path d="M21275 35200 c5 -8 39 -62 76 -120 191 -301 299 -591 355 -955 22
-136 24 -546 5 -770 -7 -82 -30 -350 -51 -595 -22 -245 -51 -580 -65 -745 -14
-165 -39 -446 -56 -625 -29 -320 -58 -660 -99 -1160 -11 -140 -32 -365 -45
-500 -13 -135 -47 -513 -75 -840 -28 -327 -68 -802 -90 -1055 -22 -253 -55
-656 -75 -895 -45 -549 -66 -791 -109 -1260 -19 -206 -65 -717 -101 -1135
-139 -1612 -151 -1721 -221 -2080 -62 -313 -167 -675 -276 -945 -64 -159 -301
-631 -366 -731 -27 -42 -68 -91 -92 -110 -99 -80 -132 -110 -192 -174 -76 -82
-217 -196 -342 -276 -189 -123 -345 -189 -542 -229 -53 -11 -111 -29 -128 -39
-36 -22 -129 -51 -165 -51 -13 0 -43 -8 -65 -18 -23 -11 -93 -29 -156 -42
-150 -29 -266 -63 -343 -100 -85 -40 -273 -139 -266 -140 13 0 117 39 157 59
22 11 45 21 50 21 5 0 21 -37 36 -82 32 -100 42 -120 51 -96 4 9 2 26 -4 37
-10 17 -9 20 4 15 8 -3 12 -11 8 -18 -3 -6 3 -3 15 7 25 23 38 16 47 -23 4
-17 10 -30 15 -30 5 0 51 40 103 89 52 49 128 114 171 145 69 52 76 60 76 91
0 24 5 35 15 35 22 0 20 -66 -2 -80 -16 -10 -16 -10 2 -6 71 18 76 18 95 1 18
-16 22 -16 65 -2 25 9 45 13 45 9 0 -12 -31 -53 -97 -130 -34 -40 -70 -84 -79
-98 -61 -92 108 43 208 167 40 49 74 89 77 89 2 0 12 -7 22 -16 21 -19 129
-32 129 -15 0 6 5 11 10 11 6 0 10 -6 10 -13 0 -10 39 -17 150 -27 170 -15
185 -12 296 46 38 20 101 53 139 73 63 33 111 65 198 132 15 12 31 18 35 15 9
-10 -13 -41 -29 -41 -8 0 -29 -17 -46 -38 -33 -39 -42 -70 -23 -82 6 -3 10 3
10 14 0 26 76 101 101 101 17 0 17 -4 -7 -57 -53 -119 -54 -133 -6 -133 38 0
135 35 207 75 60 33 61 34 57 74 -3 33 -1 41 12 41 9 0 16 -8 16 -20 0 -20 1
-20 31 -5 23 12 29 21 24 33 -18 42 -17 59 4 65 16 4 21 0 21 -16 1 -38 33
-92 55 -92 12 0 20 7 20 17 0 24 14 34 21 14 3 -9 1 -23 -6 -31 -10 -12 -7
-13 17 -9 37 7 40 11 50 68 6 39 13 50 29 52 20 3 20 1 12 -57 -6 -33 -7 -63
-4 -66 3 -3 202 -7 443 -8 384 -1 634 -13 651 -29 2 -3 -12 -29 -31 -59 -39
-58 -189 -358 -183 -365 2 -2 37 62 77 141 39 80 93 172 118 206 175 231 435
501 616 641 61 46 148 116 195 155 47 39 117 95 155 126 120 96 289 253 276
257 -7 2 -20 -3 -29 -11 -9 -9 -36 -22 -58 -30 -39 -13 -41 -13 -36 5 2 10 8
18 13 18 20 0 7 26 -18 37 -28 13 -157 28 -225 27 -21 -1 -36 2 -33 5 2 4 -9
6 -23 5 -15 -1 -37 -3 -49 -3 -14 -1 -23 -7 -23 -17 0 -14 -3 -14 -15 -4 -12
10 -24 10 -59 0 -25 -7 -50 -10 -58 -7 -7 2 -22 0 -33 -6 -18 -9 -19 -9 -6 6
7 10 10 18 5 18 -31 4 -41 3 -60 -9 -22 -13 -84 -6 -84 9 0 5 -6 9 -13 9 -19
0 -18 31 2 54 9 11 -9 1 -39 -20 -141 -103 -372 -223 -545 -284 -83 -29 -284
-87 -330 -94 -11 -2 -42 -14 -68 -26 -43 -19 -72 -22 -260 -28 -117 -4 -241
-3 -276 2 -44 6 -98 5 -165 -3 -56 -6 -133 -11 -172 -10 -40 1 -77 -2 -83 -5
-18 -11 -13 13 7 29 9 8 36 28 59 44 117 84 446 660 571 1001 198 538 290
1035 372 2000 11 129 26 309 35 400 32 360 95 1079 115 1325 12 143 32 373 45
510 14 138 32 345 40 460 9 116 31 392 50 615 33 390 45 539 100 1215 14 171
32 373 40 450 8 77 28 302 45 500 16 198 39 452 50 565 11 113 60 696 110
1295 50 600 97 1158 105 1240 85 875 114 1511 80 1800 -42 359 -165 663 -393
972 -70 94 -161 197 -137 153z m-1035 -14923 c0 -40 -17 -52 -24 -17 -3 18 -3
36 0 41 9 15 24 0 24 -24z m120 11 c0 -18 -38 -78 -49 -78 -9 0 1 58 13 79 10
15 36 14 36 -1z m77 -20 c-3 -8 -6 -5 -6 6 -1 11 2 17 5 13 3 -3 4 -12 1 -19z
m60 15 c-9 -2 -15 -8 -12 -13 3 -5 1 -11 -5 -15 -5 -3 -10 0 -10 8 0 18 10 27
29 26 13 -1 12 -2 -2 -6z m-298 -56 c13 -16 5 -27 -21 -27 -11 0 -16 4 -12 11
4 7 -1 7 -15 -1 -12 -6 -32 -32 -43 -58 -16 -35 -22 -42 -26 -28 -2 10 1 22 8
26 9 6 9 9 1 15 -15 9 2 31 44 57 36 21 49 22 64 5z m79 -10 c2 -10 -3 -17
-12 -17 -10 0 -16 9 -16 21 0 24 23 21 28 -4z m-294 -22 c-4 -8 -11 -12 -16
-9 -6 4 -5 10 3 15 19 12 19 11 13 -6z m-51 -2 c-7 -2 -19 -2 -25 0 -7 3 -2 5
12 5 14 0 19 -2 13 -5z m112 -50 c8 -44 2 -52 -46 -59 -47 -8 -87 -36 -100
-73 -10 -25 -11 -25 -25 -7 -8 11 -14 25 -14 30 0 6 7 2 15 -8 15 -19 15 -19
15 2 0 12 5 22 11 22 5 0 7 5 4 10 -3 6 1 10 10 10 9 0 19 9 22 20 5 17 11 19
44 14 l39 -7 -3 42 c-1 26 -7 41 -15 41 -7 0 -10 4 -7 10 11 18 43 -13 50 -47z
m-158 25 c-3 -8 -6 -5 -6 6 -1 11 2 17 5 13 3 -3 4 -12 1 -19z m423 -18 c0
-16 -4 -32 -10 -35 -6 -4 -10 10 -10 35 0 25 4 39 10 35 6 -3 10 -19 10 -35z
m190 36 c0 -3 -4 -8 -10 -11 -5 -3 -10 -1 -10 4 0 6 5 11 10 11 6 0 10 -2 10
-4z m-280 -61 c-6 -19 -18 -35 -26 -35 -18 0 -18 3 8 53 24 47 36 36 18 -18z
m-283 39 c-3 -3 -12 -4 -19 -1 -8 3 -5 6 6 6 11 1 17 -2 13 -5z m668 -43 c-8
-39 -23 -49 -18 -13 3 23 2 24 -6 7 -6 -12 -10 -15 -10 -6 -1 14 30 52 37 45
2 -1 1 -16 -3 -33z m-107 5 c4 -21 -65 -53 -81 -37 -13 13 -3 26 35 46 28 16
42 13 46 -9z m-348 -36 c0 -36 -29 -100 -46 -100 -12 0 -24 22 -24 46 0 10 6
11 24 4 19 -7 25 -5 28 8 3 10 2 26 -2 37 -4 11 -5 26 -3 32 8 21 23 3 23 -27z
m546 -2 c2 -26 1 -29 -6 -13 -10 24 -13 61 -3 52 3 -4 7 -22 9 -39z m-306 -4
c0 -8 -7 -14 -15 -14 -8 0 -15 2 -15 4 0 2 -3 11 -6 19 -4 12 0 14 15 10 12
-3 21 -12 21 -19z m160 2 c0 -7 -7 -29 -15 -47 -10 -25 -15 -29 -15 -14 l-1
20 -9 -20 c-5 -11 -9 -14 -9 -7 -1 8 9 28 21 44 21 30 21 30 0 19 -11 -6 -23
-16 -25 -23 -3 -8 -6 -6 -6 5 -1 10 9 22 22 27 31 12 37 12 37 -4z m-280 0 c0
-3 -4 -8 -10 -11 -5 -3 -10 -1 -10 4 0 6 5 11 10 11 6 0 10 -2 10 -4z m1243
-3 c8 -13 -11 -53 -25 -53 -9 0 -9 3 0 12 17 17 15 38 -3 38 -8 0 -15 -5 -15
-11 0 -5 -5 -7 -12 -3 -8 5 -9 1 -5 -12 7 -18 6 -18 -8 1 -15 19 -14 20 7 27
33 9 56 9 61 1z m118 -1 c23 -10 6 -52 -20 -52 -21 0 -54 38 -45 52 6 9 42 10
65 0z m-985 -18 c-3 -9 -6 -20 -6 -25 0 -5 -4 -9 -10 -9 -11 0 -14 33 -3 43
12 13 25 7 19 -9z m142 -4 c12 -19 11 -20 -8 -8 -11 7 -20 16 -20 20 0 15 15
8 28 -12z m-937 -13 c-10 -9 -11 -8 -5 6 3 10 9 15 12 12 3 -3 0 -11 -7 -18z
m418 -39 c1 -5 -3 -8 -9 -8 -5 0 -10 12 -9 28 0 24 1 25 9 7 5 -11 9 -23 9
-27z m57 18 c7 -30 -2 -47 -21 -39 -20 7 -20 63 0 63 8 0 17 -11 21 -24z m144
15 c0 -5 -9 -7 -20 -4 -11 3 -20 7 -20 9 0 2 9 4 20 4 11 0 20 -4 20 -9z
m-470 -21 c0 -13 -5 -18 -15 -14 -8 4 -15 12 -15 20 0 8 7 14 15 14 8 0 15 -9
15 -20z m39 -43 c1 -47 -3 -57 -27 -78 -15 -13 -21 -17 -14 -9 6 8 12 20 12
28 0 12 -3 12 -15 2 -14 -11 -14 -9 0 16 8 16 15 35 15 42 0 10 21 52 26 52 1
0 2 -24 3 -53z m408 21 c-3 -7 -5 -2 -5 12 0 14 2 19 5 13 2 -7 2 -19 0 -25z
m200 -30 c-2 -13 -4 -5 -4 17 -1 22 1 32 4 23 2 -10 2 -28 0 -40z m137 36 c12
-31 7 -74 -9 -74 -8 0 -15 6 -15 13 0 8 -4 7 -10 -3 -7 -11 -10 -4 -10 26 0
22 3 44 7 47 11 12 31 7 37 -9z m-826 -31 c0 -26 -6 -42 -19 -51 -12 -8 -19
-25 -19 -47 0 -26 -6 -39 -25 -51 -14 -9 -28 -14 -32 -10 -3 3 -1 6 5 6 7 0
12 8 12 18 0 14 -2 15 -10 2 -5 -8 -10 -10 -10 -4 0 5 4 14 8 20 5 5 19 35 32
67 12 31 27 57 32 57 5 0 7 4 4 9 -4 5 0 12 6 14 7 3 14 6 15 6 0 1 1 -16 1
-36z m637 27 c-4 -6 -11 -8 -16 -5 -5 4 -9 1 -9 -6 0 -7 -3 -10 -6 -6 -9 9 5
27 22 27 8 0 12 -5 9 -10z m111 -15 c1 -8 -2 -17 -7 -21 -5 -3 -9 7 -9 22 0
27 12 26 16 -1z m873 6 c7 -5 10 -14 6 -21 -5 -8 -12 -7 -24 4 -10 9 -21 13
-26 9 -4 -5 -5 -2 -1 5 8 14 25 15 45 3z m-1307 -26 c3 -13 1 -22 -3 -19 -9 5
-13 44 -5 44 2 0 6 -11 8 -25z m1205 -11 c-3 -3 -12 -4 -19 -1 -8 3 -5 6 6 6
11 1 17 -2 13 -5z m-2850 -90 c3 -8 17 -20 30 -25 21 -8 23 -12 13 -24 -17
-21 -67 -19 -78 3 -11 19 2 62 18 62 6 0 13 -7 17 -16z m297 -39 c-4 -10 0
-15 11 -15 10 0 13 4 9 13 -5 8 -2 8 9 -2 9 -7 17 -16 17 -20 0 -11 -49 -11
-55 0 -7 10 0 39 9 39 3 0 3 -7 0 -15z m-740 -271 c3 -8 2 -12 -4 -9 -6 3 -10
10 -10 16 0 14 7 11 14 -7z"/>
<path d="M20460 20120 c0 -5 -7 -10 -17 -10 -9 0 -14 -3 -10 -6 8 -8 47 5 47
17 0 5 -4 9 -10 9 -5 0 -10 -4 -10 -10z"/>
<path d="M20301 20014 c0 -11 3 -14 6 -6 3 7 2 16 -1 19 -3 4 -6 -2 -5 -13z"/>
<path d="M16192 35158 c-7 -7 -12 -8 -12 -4 0 5 -7 3 -15 -4 -12 -10 -15 -10
-15 0 0 7 -12 -1 -27 -17 -16 -17 -50 -43 -78 -58 -68 -38 -189 -122 -313
-216 -57 -44 -105 -79 -108 -79 -15 0 32 63 75 100 56 48 61 65 10 28 -118
-83 -580 -641 -619 -747 -9 -25 -38 -95 -64 -155 -131 -297 -138 -416 -27
-416 48 0 94 31 141 93 38 50 49 71 188 357 136 279 297 510 547 783 56 62
143 150 193 196 50 46 103 98 117 117 26 34 29 44 7 22z"/>
<path d="M14876 33991 c-21 -28 -41 -50 -44 -48 -4 1 -29 -16 -55 -37 -34 -28
-44 -42 -35 -47 7 -4 17 -5 23 -1 6 4 -1 -4 -15 -18 -14 -14 -19 -20 -11 -15
25 16 -103 -136 -208 -247 -161 -171 -442 -521 -428 -534 8 -9 102 55 198 133
76 64 180 176 250 273 24 32 294 453 348 543 35 57 19 55 -23 -2z"/>
<path d="M13508 33853 c-71 -77 -63 -163 19 -194 14 -5 27 -8 28 -7 1 2 16 41
32 88 28 78 30 88 17 113 -20 37 -61 37 -96 0z"/>
<path d="M18465 33794 c-156 -8 -335 -26 -444 -45 -299 -51 -1477 -336 -1871
-453 -244 -71 -510 -147 -629 -177 -80 -21 -133 -40 -151 -56 -36 -30 -53 -83
-85 -263 -14 -80 -40 -218 -57 -308 -17 -90 -28 -166 -24 -169 7 -8 120 27
312 97 72 26 210 67 307 91 98 24 177 47 177 50 0 4 -33 -1 -72 -11 -40 -10
-134 -32 -208 -50 -74 -18 -153 -41 -174 -51 -22 -10 -41 -19 -43 -19 -12 0 7
194 25 260 9 31 60 65 115 78 23 6 94 26 157 45 211 65 702 196 925 247 121
28 292 68 380 90 88 21 234 55 324 75 197 44 257 65 382 137 51 30 103 58 113
62 45 16 -14 -30 -73 -59 -33 -15 -59 -31 -58 -34 1 -3 -4 -15 -10 -26 -20
-38 -25 -103 -7 -117 8 -7 25 -23 36 -35 12 -13 28 -23 35 -23 7 0 13 -4 13
-10 0 -5 25 -28 55 -50 53 -39 55 -43 49 -75 -3 -18 -1 -42 5 -52 14 -27 -4
-43 -48 -44 -20 0 -54 -3 -75 -7 -21 -4 93 -7 255 -8 182 0 372 -7 498 -17
113 -9 207 -15 209 -12 3 3 -7 5 -21 5 -38 0 -34 11 18 44 47 29 78 65 112
126 l20 35 -76 56 c-106 79 -148 125 -171 192 -48 136 -5 239 104 252 133 16
378 -21 916 -140 184 -40 427 -92 540 -115 113 -23 313 -68 445 -100 313 -77
507 -121 513 -115 22 22 -53 65 -278 160 -534 225 -1197 405 -1885 511 -158
24 -413 37 -580 28z"/>
<path d="M17770 33320 c-9 -6 -10 -10 -3 -10 6 0 15 5 18 10 8 12 4 12 -15 0z"/>
<path d="M14990 32929 c-14 -10 -61 -33 -105 -50 -370 -143 -591 -258 -891
-461 -99 -66 -124 -78 -124 -58 0 21 -16 8 -33 -28 -69 -139 -78 -172 -78
-263 1 -105 24 -166 93 -242 l43 -46 40 18 c22 10 46 25 54 34 18 22 37 22 46
0 4 -12 0 -22 -11 -28 -69 -41 -194 -142 -194 -158 0 -11 53 26 105 73 24 21
146 88 298 164 141 71 257 131 257 133 0 2 -4 1 -10 -2 -5 -3 -10 -1 -10 5 0
6 -11 26 -24 43 -31 42 -37 62 -23 76 18 18 25 13 36 -22 7 -19 24 -45 39 -60
l27 -26 50 24 c28 13 95 42 150 65 55 22 110 50 122 62 24 23 29 41 78 303 20
105 45 237 56 295 11 58 25 118 31 133 14 36 8 40 -22 16z m-175 -689 c-14
-15 -31 -20 -74 -20 -72 0 -56 20 26 30 32 4 60 8 62 9 2 0 -4 -8 -14 -19z
m-158 -67 c-3 -10 -5 -2 -5 17 0 19 2 27 5 18 2 -10 2 -26 0 -35z m-85 -30
c-6 -57 -7 -59 -27 -43 -20 16 -19 49 2 72 25 28 31 22 25 -29z m-198 -97 c25
-39 27 -49 15 -57 -8 -5 -17 -9 -21 -9 -6 0 -48 102 -48 116 0 18 29 -9 54
-50z m-93 17 c3 -29 -2 -97 -7 -115 -3 -9 -31 -29 -62 -43 -31 -15 -75 -36
-96 -47 -38 -19 -41 -19 -53 -2 -11 15 -11 19 2 27 9 5 26 10 38 11 34 5 100
36 125 59 17 16 22 32 22 67 0 26 3 50 7 53 12 12 23 7 24 -10z m-81 -64 c0
-16 -6 -30 -12 -30 -7 -1 -26 -2 -43 -4 -16 -1 -41 -6 -54 -10 -21 -7 -22 -6
-12 12 11 21 51 38 51 22 0 -22 27 -6 37 22 14 37 33 30 33 -12z m150 -25 c0
-8 -4 -14 -8 -14 -4 0 -8 9 -8 19 0 11 4 17 8 15 4 -3 8 -12 8 -20z m-302 -50
c-4 -23 -73 -77 -90 -72 -9 3 1 19 28 46 43 44 68 54 62 26z"/>
<path d="M19840 32816 c25 -7 119 -32 210 -56 204 -52 405 -109 573 -161 71
-22 131 -38 135 -35 3 3 3 6 0 6 -3 0 -79 23 -169 50 -260 80 -748 211 -781
209 -7 0 7 -6 32 -13z"/>
<path d="M15684 32739 c-19 -21 -19 -21 11 -17 18 2 30 9 30 17 0 23 -20 23
-41 0z"/>
<path d="M15584 32691 c-63 -39 -44 -53 39 -30 34 9 52 29 26 29 -5 0 -7 5 -4
10 10 17 -28 11 -61 -9z"/>
<path d="M22372 32695 c-75 -23 -107 -66 -122 -162 -26 -159 65 -365 237 -537
188 -188 452 -351 1048 -649 359 -179 483 -246 506 -273 17 -21 33 -17 51 14
9 15 30 42 45 61 28 32 30 33 47 16 10 -10 21 -14 26 -9 4 5 22 65 39 133 28
110 31 139 31 274 0 88 -7 191 -16 251 -32 205 -113 511 -144 544 -11 11 -16
22 -13 26 3 3 -2 17 -11 31 -9 14 -13 25 -9 25 4 0 -2 6 -12 14 -11 8 -23 12
-27 10 -5 -3 -8 0 -8 5 0 6 -4 11 -10 11 -5 0 -10 -9 -10 -21 0 -13 4 -18 12
-13 7 5 8 3 4 -5 -5 -7 -14 -10 -22 -7 -20 8 -27 -15 -14 -48 5 -15 7 -33 3
-39 -4 -7 -8 -25 -9 -40 -2 -16 -7 -34 -13 -41 -6 -7 -12 -29 -13 -49 -3 -31
-7 -37 -25 -37 -22 0 -40 -31 -28 -50 3 -6 -1 -7 -9 -4 -12 5 -16 0 -16 -20 0
-19 -4 -24 -16 -19 -12 4 -15 2 -12 -8 3 -8 -2 -19 -9 -24 -12 -9 -11 -15 6
-37 12 -14 21 -29 21 -32 0 -10 18 -31 78 -90 52 -53 71 -83 30 -46 -131 113
-486 355 -733 500 -176 103 -583 303 -682 335 -84 28 -137 30 -201 10z"/>
<path d="M15945 32659 c-27 -10 -62 -18 -77 -19 -15 0 -62 -11 -105 -25 -79
-25 -175 -35 -203 -22 -13 6 -15 1 -12 -33 5 -53 19 -59 49 -21 15 19 33 31
49 31 20 0 24 -5 25 -32 2 -32 2 -32 6 -5 5 33 6 33 180 87 73 23 135 45 138
51 4 5 5 8 3 8 -2 -1 -25 -10 -53 -20z"/>
<path d="M20815 32540 c28 -10 57 -18 65 -18 8 0 -7 8 -35 18 -27 10 -57 18
-65 18 -8 0 8 -8 35 -18z"/>
<path d="M20910 32510 c8 -5 22 -9 30 -9 10 0 8 3 -5 9 -27 12 -43 12 -25 0z"/>
<path d="M20975 32490 c11 -5 27 -9 35 -9 9 0 8 4 -5 9 -11 5 -27 9 -35 9 -9
0 -8 -4 5 -9z"/>
<path d="M17940 32484 c-291 -21 -641 -71 -940 -134 -90 -19 -369 -80 -530
-115 -197 -43 -862 -209 -1057 -263 -76 -22 -171 -47 -211 -57 -71 -19 -72
-19 -83 -59 -28 -102 -85 -426 -109 -616 -6 -47 -13 -102 -16 -122 -5 -30 -3
-38 10 -38 8 0 129 38 268 84 139 46 326 103 415 127 90 23 161 44 159 46 -1
2 -87 -17 -190 -42 -217 -53 -240 -54 -244 -8 -4 38 2 42 136 87 53 18 126 50
162 70 71 41 70 41 -40 -2 -41 -16 -100 -35 -130 -42 -30 -7 -77 -19 -104 -26
-66 -18 -76 -18 -76 6 0 13 9 22 28 26 15 4 54 20 87 35 121 57 226 93 455
157 33 9 32 9 -15 6 -53 -3 -102 -17 -305 -82 -69 -22 -137 -43 -151 -46 -14
-3 -42 -17 -62 -31 l-37 -25 6 28 c13 53 51 80 168 116 431 133 879 251 1350
356 267 60 325 79 506 171 171 86 252 106 460 114 122 5 201 2 370 -14 356
-36 404 -40 695 -61 807 -57 1107 -97 1640 -214 88 -19 213 -47 279 -61 65
-14 145 -36 177 -49 51 -20 57 -21 49 -6 -12 23 -73 76 -108 94 -42 21 -500
193 -662 248 -462 156 -946 265 -1410 318 -146 17 -258 22 -535 25 -192 1
-375 1 -405 -1z m-2558 -1171 c23 -21 24 -78 2 -87 -21 -8 -21 -10 -26 52 -6
57 -3 60 24 35z"/>
<path d="M17760 32181 l55 -6 -75 -8 c-41 -5 -106 -17 -145 -28 -80 -23 -243
-84 -265 -100 -17 -12 -13 -11 90 20 119 36 237 62 289 64 43 2 54 -2 74 -23
l23 -25 -20 -18 c-15 -13 -17 -20 -8 -23 19 -8 14 -35 -10 -61 -28 -30 -10
-30 56 1 49 23 239 66 289 66 36 0 97 28 97 45 0 8 -13 29 -28 46 l-28 32
-175 13 c-96 7 -196 13 -224 12 l-50 -1 55 -6z m82 -122 c5 -3 0 -9 -11 -12
-12 -3 -24 -1 -27 4 -3 5 0 9 5 9 6 0 11 8 12 18 0 13 2 14 6 2 3 -8 10 -18
15 -21z"/>
<path d="M14745 31755 c-16 -8 -106 -44 -200 -80 -193 -76 -483 -214 -629
-300 -54 -32 -134 -87 -177 -121 -43 -35 -83 -64 -88 -64 -16 0 -59 -92 -77
-160 -17 -66 -14 -117 10 -195 23 -75 137 -244 165 -245 8 0 35 13 60 29 25
16 80 44 121 61 41 18 91 39 110 47 78 35 261 107 350 138 l95 34 3 50 c3 47
1 51 -20 52 -22 0 -22 1 -3 9 40 17 44 12 42 -44 -3 -60 -3 -60 68 -23 17 9
38 18 47 21 10 3 19 19 22 38 36 221 120 656 136 702 11 33 20 61 20 63 0 7
-26 1 -55 -12z m-155 -714 c0 -12 -11 -23 -31 -30 -40 -14 -39 -14 -39 3 0 7
15 21 33 30 40 19 37 20 37 -3z m-154 -75 c3 -14 4 -32 2 -42 -6 -34 -24 -23
-34 21 -9 41 -9 45 8 45 10 0 20 -10 24 -24z m-86 -51 c0 -60 -26 -63 -32 -4
-4 43 -2 49 19 49 9 0 13 -14 13 -45z m-95 -32 c-11 -59 -45 -88 -45 -39 0 38
18 76 36 76 13 0 15 -7 9 -37z m-109 -69 c-4 -13 -11 -24 -16 -24 -14 0 -13
33 2 67 11 28 12 28 16 4 2 -12 1 -34 -2 -47z m-66 4 c0 -7 3 -23 6 -35 5 -18
2 -23 -14 -23 -23 0 -37 37 -20 57 13 16 28 17 28 1z m-99 -60 c9 -36 -14 -59
-30 -29 -6 11 -11 29 -11 41 0 31 32 22 41 -12z m-103 -66 c3 -23 -11 -28 -42
-16 -12 5 -13 10 -5 26 13 25 43 19 47 -10z"/>
<path d="M17795 31749 c-82 -12 -159 -36 -224 -69 -31 -15 -82 -36 -113 -45
-107 -34 -70 -35 207 -6 55 6 201 14 325 17 258 8 412 -3 690 -47 102 -16 194
-28 205 -28 l20 1 -20 5 c-11 2 -112 32 -225 65 -245 72 -253 74 -400 99 -123
20 -352 24 -465 8z"/>
<path d="M15845 31449 c-60 -21 -105 -38 -99 -38 17 -1 172 45 214 63 64 28
-3 14 -115 -25z"/>
<path d="M22283 31446 c-66 -21 -118 -69 -154 -142 -30 -60 -32 -69 -27 -147
12 -188 142 -388 361 -558 169 -131 491 -320 706 -415 56 -24 206 -80 334
-123 262 -89 324 -114 402 -166 54 -36 75 -38 75 -9 0 9 12 41 26 72 121 260
145 394 90 505 -118 242 -555 537 -1241 840 -214 94 -292 122 -395 141 -97 19
-121 19 -177 2z"/>
<path d="M20330 31410 c8 -5 20 -10 25 -10 6 0 3 5 -5 10 -8 5 -19 10 -25 10
-5 0 -3 -5 5 -10z"/>
<path d="M20440 31370 c8 -5 22 -9 30 -9 10 0 8 3 -5 9 -27 12 -43 12 -25 0z"/>
<path d="M15958 31363 c7 -3 16 -2 19 1 4 3 -2 6 -13 5 -11 0 -14 -3 -6 -6z"/>
<path d="M15918 31353 c7 -3 16 -2 19 1 4 3 -2 6 -13 5 -11 0 -14 -3 -6 -6z"/>
<path d="M20491 31356 c8 -9 212 -77 216 -72 3 2 -40 19 -94 36 -54 18 -105
35 -113 38 -8 3 -12 2 -9 -2z"/>
<path d="M15878 31343 c7 -3 16 -2 19 1 4 3 -2 6 -13 5 -11 0 -14 -3 -6 -6z"/>
<path d="M20730 31270 c8 -5 20 -10 25 -10 6 0 3 5 -5 10 -8 5 -19 10 -25 10
-5 0 -3 -5 5 -10z"/>
<path d="M17815 31264 c-528 -42 -935 -107 -1515 -241 -739 -171 -1342 -320
-1364 -337 -10 -8 -19 -63 -30 -191 -9 -99 -25 -261 -36 -360 -33 -296 -32
-278 -12 -270 78 34 203 76 279 96 l92 23 -1 149 c0 87 4 153 10 160 6 7 28
18 49 26 21 7 79 28 128 46 50 19 129 46 176 60 117 34 614 153 884 210 121
25 315 71 430 100 187 48 489 115 516 115 6 0 8 -4 4 -10 -3 -5 -11 -8 -18 -6
-7 1 -9 1 -4 -1 4 -3 7 -11 7 -19 0 -8 7 -17 16 -21 10 -4 12 -8 5 -13 -7 -4
-2 -12 14 -20 14 -7 25 -19 25 -26 0 -7 14 -12 36 -12 20 0 39 -4 43 -8 3 -5
26 -10 50 -11 52 -3 70 -22 38 -40 -20 -11 -19 -13 16 -17 6 0 12 -5 12 -11 1
-24 17 -33 50 -28 23 4 35 2 35 -6 0 -6 9 -11 21 -11 11 0 17 -5 14 -10 -9
-14 49 -4 84 15 45 23 150 135 180 192 42 81 -39 146 -194 156 -37 2 -35 3 34
20 210 49 1055 -14 1656 -124 154 -28 651 -127 955 -189 80 -17 181 -37 225
-46 90 -19 142 -37 200 -71 l40 -24 -43 40 c-95 87 -612 298 -1044 425 -423
124 -961 235 -1343 277 -101 10 -627 20 -720 13z m-308 -400 c-3 -3 -12 -4
-19 -1 -8 3 -5 6 6 6 11 1 17 -2 13 -5z"/>
<path d="M19444 30657 c10 -7 51 -35 91 -63 69 -49 73 -50 84 -31 10 16 20 18
54 14 52 -7 51 -7 -113 47 -74 24 -127 39 -116 33z"/>
<path d="M14539 30580 c-20 -10 -81 -37 -135 -59 -292 -116 -573 -253 -737
-361 -59 -38 -112 -70 -116 -70 -13 0 -78 -75 -97 -111 -52 -101 -69 -224 -40
-294 17 -40 159 -229 187 -248 18 -13 18 -15 2 -29 -10 -8 -34 -24 -53 -36
-32 -19 -89 -82 -74 -82 3 0 34 22 68 48 84 66 110 81 271 152 77 34 158 70
180 80 22 11 58 27 80 36 22 9 34 18 27 21 -7 3 -24 27 -37 53 -21 41 -22 50
-10 60 16 13 35 -12 55 -72 6 -21 14 -38 16 -38 3 0 22 9 44 20 22 11 44 20
50 20 6 0 39 13 73 29 34 16 80 34 103 40 29 8 44 19 53 38 12 26 52 281 86
543 14 112 29 190 50 258 9 27 1 27 -46 2z m-199 -765 c34 -18 38 -30 13 -39
-14 -6 -59 10 -93 32 -7 5 23 22 38 22 7 0 26 -7 42 -15z m-141 -69 c7 -26 7
-45 0 -58 -15 -28 -25 -14 -32 43 -10 82 11 92 32 15z m71 4 c0 -5 7 -6 17 -3
11 4 14 3 9 -6 -9 -14 -58 -9 -64 7 -2 7 6 12 17 12 12 0 21 -4 21 -10z m-271
-79 c24 -34 31 -72 14 -78 -16 -6 -53 54 -53 85 0 30 15 28 39 -7z m-71 -54
c14 -33 14 -40 1 -48 -28 -18 -39 -10 -39 30 0 22 -5 43 -12 47 -7 5 -5 11 8
21 15 11 19 11 22 1 2 -7 11 -30 20 -51z m-98 9 c0 -16 -18 -31 -27 -22 -8 8
5 36 17 36 5 0 10 -6 10 -14z m-16 -75 c-1 -25 0 -26 22 -4 13 13 16 14 12 3
-2 -8 -17 -19 -32 -25 -33 -11 -51 8 -35 38 13 24 34 16 33 -12z"/>
<path d="M17843 30453 c9 -2 25 -2 35 0 9 3 1 5 -18 5 -19 0 -27 -2 -17 -5z"/>
<path d="M15370 30290 c-30 -11 -62 -20 -70 -20 -10 0 -21 -14 -27 -35 -12
-39 -11 -39 45 4 19 13 55 35 80 47 58 29 45 30 -28 4z"/>
<path d="M22157 30195 c-85 -32 -159 -107 -178 -179 -16 -58 -6 -190 19 -260
35 -96 100 -196 181 -277 158 -158 341 -251 1066 -544 190 -77 447 -198 582
-274 40 -23 70 -36 68 -28 -3 7 22 88 55 179 65 181 86 281 76 350 -17 110
-178 297 -366 424 -293 198 -815 456 -1175 581 -119 41 -262 54 -328 28z"/>
<path d="M15255 30170 c2 -14 5 -31 5 -37 0 -19 21 -15 65 13 22 14 31 23 20
21 -74 -18 -75 -18 -86 5 -9 22 -9 22 -4 -2z"/>
<path d="M17645 30043 c-429 -35 -1012 -137 -1687 -297 -692 -164 -1143 -277
-1180 -297 -24 -13 -16 -28 59 -105 150 -156 173 -185 226 -293 30 -59 70
-154 88 -210 18 -55 38 -101 44 -101 19 0 229 69 245 81 12 8 11 9 -6 5 -26
-8 -42 10 -84 93 -17 35 -42 75 -55 89 -28 30 -24 42 13 42 15 0 70 16 122 36
172 65 272 94 495 144 121 27 247 58 280 69 63 22 56 21 -90 -10 -49 -11 -115
-24 -145 -29 -72 -13 -261 -60 -375 -95 -200 -60 -339 -95 -357 -89 -16 5 -45
43 -36 48 2 1 50 11 108 23 58 12 155 36 215 52 174 49 477 126 630 160 406
92 721 167 815 193 58 17 188 69 290 115 102 47 195 86 206 87 12 0 20 4 18 7
-3 6 95 40 112 38 12 0 -36 -21 -61 -26 -11 -2 -22 -9 -24 -15 -2 -7 -19 -28
-37 -46 -19 -19 -36 -50 -40 -68 -3 -19 -10 -34 -15 -34 -5 0 -9 -6 -9 -13 0
-13 -78 -174 -96 -199 -6 -7 -9 -31 -8 -53 1 -22 -1 -44 -5 -50 -3 -5 -6 -23
-7 -38 -1 -22 4 -30 25 -38 14 -5 39 -16 55 -23 29 -14 28 -14 -35 -24 -55 -8
-48 -9 46 -3 194 11 542 5 650 -12 55 -9 210 -32 345 -52 295 -43 442 -69 575
-101 55 -13 111 -26 125 -29 l25 -6 -25 11 c-14 7 -64 22 -112 35 -79 21 -162
36 -625 110 -90 15 -179 36 -219 51 -82 34 -196 108 -251 165 -66 69 -75 105
-81 323 l-4 189 153 -6 c154 -7 532 -43 763 -72 350 -45 673 -115 1061 -230
105 -32 259 -77 344 -102 180 -52 602 -156 608 -150 2 3 -24 20 -59 40 -35 19
-103 58 -153 87 -345 201 -1059 423 -1735 539 -424 73 -860 106 -1125 84z m10
-233 c-11 -5 -27 -9 -35 -9 -9 0 -8 4 5 9 11 5 27 9 35 9 9 0 8 -4 -5 -9z"/>
<path d="M15280 30010 c-13 -9 -13 -10 0 -9 8 0 24 4 35 9 l20 9 -20 0 c-11 0
-27 -4 -35 -9z"/>
<path d="M26909 29640 c-294 -58 -540 -117 -694 -167 -77 -25 -189 -73 -171
-73 4 0 114 29 245 65 227 62 319 84 573 140 111 24 240 64 208 63 -8 0 -81
-13 -161 -28z"/>
<path d="M27795 29640 c3 -5 8 -10 11 -10 2 0 4 5 4 10 0 6 -5 10 -11 10 -5 0
-7 -4 -4 -10z"/>
<path d="M14183 29275 c-403 -154 -667 -287 -821 -414 -24 -20 -47 -35 -51
-34 -4 1 -22 -25 -40 -58 -27 -49 -34 -75 -38 -139 l-6 -78 83 -103 c79 -99
130 -184 130 -221 0 -9 9 -18 22 -20 37 -5 31 -26 -14 -50 -24 -12 -48 -23
-53 -23 -6 0 -21 -10 -34 -22 -12 -11 -60 -42 -107 -68 -72 -40 -101 -65 -78
-65 7 0 100 51 265 146 148 85 292 155 371 179 32 10 64 25 72 34 8 9 37 70
66 136 61 142 190 394 285 555 117 199 173 321 148 319 -5 0 -94 -33 -200 -74z
m-278 -804 c-3 -12 -13 -21 -21 -21 -18 0 -18 9 3 32 20 22 27 17 18 -11z
m-45 -15 c0 -3 -14 -15 -31 -27 -30 -21 -31 -21 -20 -1 10 19 25 29 44 31 4 1
7 -1 7 -3z m15 -47 c-4 -41 -43 -66 -60 -39 -5 7 50 70 61 70 1 0 0 -14 -1
-31z m-82 -79 c-4 -4 -18 -11 -30 -14 -29 -9 -47 22 -33 58 l9 25 31 -31 c17
-17 28 -34 23 -38z m-125 13 c-4 -63 -22 -65 -26 -3 -2 40 0 50 13 50 13 0 15
-9 13 -47z m-48 -52 l24 -19 -27 -13 c-23 -11 -30 -10 -44 3 -17 18 -11 48 9
48 7 0 24 -9 38 -19z m90 9 c0 -5 -2 -10 -4 -10 -3 0 -8 5 -11 10 -3 6 -1 10
4 10 6 0 11 -4 11 -10z"/>
<path d="M27933 29184 c5 -7 7 -18 6 -26 -3 -20 22 -107 33 -114 6 -4 7 12 2
42 -4 27 -11 51 -15 52 -5 2 -7 7 -4 12 3 4 -3 16 -13 27 -9 10 -13 13 -9 7z"/>
<path d="M14525 29046 c-27 -7 -64 -20 -82 -29 -85 -45 -209 -212 -308 -413
-115 -234 -171 -471 -160 -671 12 -229 74 -361 195 -414 108 -48 203 -15 343
120 186 179 317 434 363 705 30 181 5 379 -70 541 -72 155 -142 195 -281 161z"/>
<path d="M15411 29011 c-36 -15 -67 -33 -69 -39 -5 -15 34 -16 43 -2 4 6 30
24 58 40 65 37 52 38 -32 1z"/>
<path d="M22045 28892 c-77 -26 -121 -66 -157 -140 -28 -56 -33 -76 -33 -141
-1 -245 196 -486 517 -635 230 -107 401 -156 642 -186 262 -33 369 -67 508
-161 70 -48 251 -218 276 -261 21 -36 37 -36 38 0 1 15 25 88 54 162 71 184
78 220 57 306 -35 140 -166 309 -328 421 -179 123 -554 314 -949 483 -395 169
-501 195 -625 152z"/>
<path d="M17490 28763 c-355 -18 -727 -69 -1200 -163 -238 -47 -434 -98 -832
-213 -285 -83 -338 -104 -338 -132 0 -39 -106 -333 -160 -441 -48 -99 -135
-240 -219 -355 -12 -17 -11 -19 11 -19 38 0 195 29 258 47 30 9 92 31 137 50
73 31 85 40 107 78 37 67 94 224 100 280 4 29 14 58 25 68 12 12 65 30 142 48
68 15 230 53 359 83 260 60 526 114 752 152 82 13 208 40 281 59 340 91 401
105 503 116 148 17 497 15 794 -5 500 -34 871 -88 1725 -256 138 -27 331 -61
430 -75 99 -14 189 -28 200 -31 50 -12 -97 56 -284 131 -607 243 -1135 396
-1786 514 -297 54 -703 80 -1005 64z"/>
<path d="M11933 28495 c-31 -13 -63 -59 -63 -89 0 -17 88 -66 118 -66 45 0 55
55 22 119 -23 47 -37 53 -77 36z"/>
<path d="M17540 28315 c-7 -8 -19 -15 -26 -15 -8 0 -14 -4 -14 -10 0 -5 -7
-10 -16 -10 -8 0 -13 -4 -9 -9 3 -5 -3 -12 -14 -16 -11 -3 -22 -12 -25 -20 -7
-18 6 -19 23 -2 10 10 10 6 1 -17 -6 -16 -8 -32 -4 -35 4 -3 9 0 11 7 3 6 11
12 18 12 8 0 -2 -15 -20 -34 -38 -35 -44 -49 -20 -40 15 6 18 -1 18 -38 0 -10
5 -14 14 -11 8 3 13 0 11 -8 -2 -11 10 -13 57 -10 33 2 69 8 80 14 11 6 34 13
50 17 17 3 30 10 31 15 0 6 4 23 9 39 5 18 4 36 -3 47 -7 11 -8 20 -2 24 13 8
5 51 -9 47 -9 -2 -9 3 -1 17 13 25 13 44 0 36 -5 -3 -10 -1 -10 5 0 6 -5 8
-12 4 -6 -4 -29 -8 -51 -10 -22 -2 -44 -9 -48 -16 -6 -9 -9 -6 -9 10 0 26 -12
29 -30 7z"/>
<path d="M8228 28309 c-10 -6 -18 -14 -18 -19 0 -14 37 -12 46 1 10 17 -9 29
-28 18z"/>
<path d="M13136 28134 c-8 -21 -8 -21 13 -27 14 -3 17 0 14 14 -7 26 -20 32
-27 13z"/>
<path d="M13157 28061 c-2 -10 -1 -25 4 -32 6 -10 9 -4 9 19 0 36 -5 42 -13
13z"/>
<path d="M15918 28043 c6 -2 18 -2 25 0 6 3 1 5 -13 5 -14 0 -19 -2 -12 -5z"/>
<path d="M15835 28029 c-57 -16 -350 -88 -385 -94 -29 -5 -38 -13 -56 -50 -26
-56 -12 -57 37 -4 33 35 47 42 111 56 75 15 350 91 357 99 7 7 -32 3 -64 -7z"/>
<path d="M12843 27960 c-34 -20 -39 -36 -34 -105 3 -35 36 -108 57 -126 11 -9
18 -8 35 7 22 20 149 199 149 210 0 37 -153 47 -207 14z"/>
<path d="M13630 27856 c-234 -116 -360 -194 -430 -265 -75 -76 -102 -135 -108
-238 -5 -96 3 -117 98 -244 32 -44 71 -105 86 -136 l26 -57 -28 -20 c-62 -45
-114 -100 -163 -174 -29 -42 -42 -64 -29 -48 124 158 179 203 346 285 150 75
435 195 535 226 49 16 87 33 87 40 0 7 -25 55 -55 106 -92 155 -158 361 -173
539 l-7 78 -185 -92z m116 -654 c-10 -11 -16 -12 -16 -4 0 7 5 12 10 12 6 0
10 8 11 18 0 11 2 13 6 4 3 -8 -2 -21 -11 -30z"/>
<path d="M17510 27934 c-14 -2 -65 -9 -115 -15 -139 -16 -355 -57 -410 -76
-44 -16 -47 -18 -22 -21 15 -2 100 9 190 25 153 26 178 28 452 28 280 -1 296
-2 479 -33 104 -18 191 -30 194 -27 3 3 -2 5 -11 5 -8 0 -68 18 -132 40 -191
64 -282 80 -452 79 -82 -1 -159 -3 -173 -5z"/>
<path d="M13097 27771 c-4 -18 -6 -54 -6 -80 1 -41 3 -38 10 23 10 75 7 113
-4 57z"/>
<path d="M15350 27714 c-16 -40 -30 -79 -30 -88 0 -8 -8 -20 -17 -25 -10 -6
-13 -11 -6 -11 27 0 43 14 43 39 0 33 47 131 66 138 21 8 17 19 -6 19 -15 0
-27 -17 -50 -72z"/>
<path d="M8770 27760 c0 -5 12 -10 26 -10 14 0 23 4 19 10 -3 6 -15 10 -26 10
-10 0 -19 -4 -19 -10z"/>
<path d="M20235 27672 c6 -5 51 -17 100 -26 171 -33 330 -65 345 -70 30 -12
110 -23 110 -16 0 24 -144 62 -340 89 -80 12 -163 23 -185 26 -25 4 -36 3 -30
-3z"/>
<path d="M21954 27630 c-114 -45 -194 -153 -194 -261 0 -156 78 -328 205 -453
154 -151 359 -254 1310 -661 94 -39 217 -96 275 -126 58 -30 108 -55 112 -57
3 -2 4 6 1 16 -3 12 19 66 55 138 101 199 106 214 106 339 1 107 0 112 -34
175 -44 81 -178 219 -280 287 -205 136 -488 279 -865 438 -311 131 -446 175
-555 181 -69 4 -94 1 -136 -16z"/>
<path d="M19268 27593 c7 -3 16 -2 19 1 4 3 -2 6 -13 5 -11 0 -14 -3 -6 -6z"/>
<path d="M19305 27585 c6 -2 136 -36 290 -75 154 -39 341 -89 415 -110 255
-74 492 -130 543 -130 78 0 91 16 21 25 -53 6 -206 44 -564 138 -184 48 -740
168 -705 152z"/>
<path d="M9185 27544 c-88 -28 -179 -112 -229 -211 -63 -125 -58 -348 11 -474
59 -109 188 -187 287 -174 149 19 294 168 337 345 20 82 16 194 -8 262 -71
194 -241 302 -398 252z"/>
<path d="M17225 27463 c-339 -16 -964 -106 -1550 -224 -151 -31 -683 -152
-915 -208 -68 -17 -134 -31 -145 -31 -51 0 -52 -4 -70 -340 -27 -501 -31 -605
-29 -609 2 -2 45 10 96 26 51 17 128 39 171 49 62 14 78 22 82 38 2 12 8 110
13 219 5 109 11 199 13 202 3 2 74 22 159 45 547 143 708 180 1070 245 613
110 671 124 900 210 195 74 275 95 293 75 9 -10 9 -13 0 -17 -22 -8 -15 -49
11 -62 23 -13 50 -12 137 4 27 5 39 2 50 -11 13 -16 12 -17 -6 -10 -11 4 -16
4 -12 0 4 -4 1 -14 -6 -23 -17 -22 29 8 133 87 120 92 126 94 335 100 335 9
532 -22 1142 -183 373 -97 594 -145 864 -185 238 -36 468 -76 492 -85 9 -4 17
-5 17 -2 0 7 -265 111 -485 190 -767 276 -1404 431 -2014 492 -139 14 -541 18
-746 8z m203 -280 c-10 -2 -28 -2 -40 0 -13 2 -5 4 17 4 22 1 32 -1 23 -4z
m-81 -9 c-3 -3 -12 -4 -19 -1 -8 3 -5 6 6 6 11 1 17 -2 13 -5z"/>
<path d="M24046 27461 c-9 -15 38 -61 62 -61 28 0 70 36 57 48 -16 15 -112 25
-119 13z"/>
<path d="M12988 27330 c-9 -19 -19 -49 -23 -67 -5 -27 -2 -34 18 -48 27 -17
68 -13 87 10 10 12 6 12 -18 3 -24 -9 -34 -9 -46 1 -18 15 -21 53 -5 82 5 11
9 28 7 37 -2 12 -8 6 -20 -18z"/>
<path d="M28201 27274 c0 -11 3 -14 6 -6 3 7 2 16 -1 19 -3 4 -6 -2 -5 -13z"/>
<path d="M28213 27200 c0 -25 2 -35 4 -22 2 12 2 32 0 45 -2 12 -4 2 -4 -23z"/>
<path d="M10548 27180 c-21 -13 -50 -111 -46 -153 2 -24 8 -33 25 -35 29 -4
58 42 75 117 11 49 10 55 -7 67 -22 16 -25 17 -47 4z"/>
<path d="M17077 27074 c-3 -4 -50 -21 -104 -40 -54 -18 -91 -34 -83 -35 59 -8
91 -7 130 3 54 13 81 34 73 56 -5 12 -1 14 15 10 12 -4 20 -2 16 3 -6 10 -38
12 -47 3z"/>
<path d="M13930 26801 c-370 -124 -748 -310 -860 -423 -116 -118 -180 -332
-135 -457 17 -49 5 -54 -37 -14 -34 32 -53 26 -81 -28 -33 -63 -6 -147 58
-178 25 -12 38 -12 109 6 l81 20 11 -46 c6 -25 13 -53 15 -61 3 -10 -10 -19
-41 -29 -25 -8 -39 -16 -33 -18 15 -5 169 47 413 139 339 128 536 196 618 213
22 5 33 13 36 28 5 23 32 508 42 760 6 122 5 147 -7 147 -8 -1 -93 -27 -189
-59z m3 -758 c-9 -27 -24 -43 -34 -37 -16 9 -10 42 9 47 30 8 32 7 25 -10z
m-97 -33 c4 -16 13 -35 20 -41 19 -15 18 -46 -1 -46 -8 0 -15 5 -15 10 0 6
-11 25 -25 43 -28 37 -31 50 -12 57 23 10 28 7 33 -23z m-108 -40 c2 -31 1
-33 -9 -15 -7 11 -18 24 -26 28 -17 11 -6 29 15 25 11 -2 18 -15 20 -38z m308
13 c-4 -26 -36 -29 -36 -4 0 14 6 21 19 21 13 0 18 -6 17 -17z m-369 1 c-3 -3
-12 -4 -19 -1 -8 3 -5 6 6 6 11 1 17 -2 13 -5z m-41 -79 c-1 -72 -9 -94 -20
-57 -11 34 -4 132 9 132 9 0 12 -21 11 -75z m308 60 c-4 -8 -8 -15 -10 -15 -2
0 -4 7 -4 15 0 8 4 15 10 15 5 0 7 -7 4 -15z m-384 -20 c-1 -6 -10 -13 -21
-17 -17 -7 -18 -5 -9 13 11 20 33 23 30 4z m-90 -33 c-37 -19 -37 -19 -25 -98
6 -37 4 -43 -25 -67 -38 -32 -55 -35 -40 -7 6 11 17 20 25 20 12 0 15 14 15
60 0 50 -3 60 -17 60 -12 0 -6 8 17 25 19 13 46 24 60 24 23 0 22 -1 -10 -17z
m68 -54 c11 -41 3 -68 -18 -68 -8 0 -21 91 -13 102 10 18 21 6 31 -34z m-180
-73 c-2 -16 -7 -29 -13 -28 -14 2 -29 59 -21 80 7 17 8 17 22 -2 8 -11 14 -33
12 -50z m-105 26 c-12 -45 -73 -76 -73 -37 0 9 61 53 77 56 0 0 -1 -9 -4 -19z
m-96 -127 c-3 -4 -2 -15 4 -25 7 -14 6 -19 -4 -19 -8 0 -13 9 -11 23 3 28 3
27 11 27 3 0 3 -3 0 -6z"/>
<path d="M12132 26788 c-20 -20 -14 -40 11 -36 14 2 22 10 22 22 0 24 -16 31
-33 14z"/>
<path d="M17313 26655 c-63 -17 -149 -60 -255 -126 -74 -46 -118 -60 -228 -73
-44 -6 144 2 360 14 350 19 703 8 899 -30 29 -5 68 -10 85 -10 l31 0 -30 16
c-144 78 -322 153 -455 192 -109 31 -325 40 -407 17z"/>
<path d="M15248 26623 c7 -3 16 -2 19 1 4 3 -2 6 -13 5 -11 0 -14 -3 -6 -6z"/>
<path d="M15135 26594 c-44 -14 -111 -31 -150 -37 l-70 -13 1 -187 c0 -175 -1
-187 -19 -193 -10 -3 -17 -7 -15 -9 2 -2 62 11 133 30 146 37 156 45 19 15
-49 -11 -92 -20 -96 -20 -9 0 2 323 12 333 4 5 68 29 141 53 121 40 158 55
133 53 -5 0 -45 -12 -89 -25z"/>
<path d="M12711 26586 c-9 -11 -10 -20 -1 -35 15 -29 40 -27 40 3 0 32 -23 51
-39 32z"/>
<path d="M10205 26518 c-41 -32 -85 -107 -85 -145 0 -30 28 -73 48 -73 24 1
64 68 96 162 25 76 -1 102 -59 56z"/>
<path d="M11847 26364 c-15 -15 -7 -45 11 -42 9 2 17 12 17 22 0 20 -16 31
-28 20z"/>
<path d="M21932 26338 c-65 -10 -121 -37 -167 -83 -57 -58 -78 -109 -83 -205
-10 -215 99 -397 303 -502 154 -79 451 -190 985 -368 343 -114 555 -205 665
-285 50 -36 50 -36 47 19 -2 29 8 135 23 236 15 101 25 201 22 223 -12 90
-149 233 -333 349 -142 89 -574 306 -884 443 -348 154 -467 189 -578 173z"/>
<path d="M12663 26224 c-8 -20 21 -49 41 -41 21 8 21 43 0 51 -25 9 -34 7 -41
-10z"/>
<path d="M15208 26233 c7 -3 16 -2 19 1 4 3 -2 6 -13 5 -11 0 -14 -3 -6 -6z"/>
<path d="M15158 26223 c6 -2 18 -2 25 0 6 3 1 5 -13 5 -14 0 -19 -2 -12 -5z"/>
<path d="M11092 26058 c-14 -14 -16 -48 -2 -48 10 0 30 32 30 49 0 14 -13 14
-28 -1z"/>
<path d="M17220 26064 c-690 -31 -1334 -124 -2300 -330 -173 -37 -349 -73
-390 -80 -41 -7 -75 -13 -76 -13 -1 -1 -4 -79 -8 -173 -6 -152 -26 -499 -41
-715 -2 -40 -1 -74 3 -77 4 -3 93 20 196 50 104 30 198 54 210 55 11 0 30 4
41 9 13 6 0 7 -38 4 l-58 -6 3 134 3 133 34 1 c46 0 49 17 9 35 -27 11 -33 20
-33 44 0 27 3 30 30 27 16 -2 50 6 75 17 25 10 75 28 113 38 37 10 67 21 67
25 0 4 -12 3 -26 -2 -14 -6 -67 -20 -117 -31 -51 -12 -102 -23 -114 -26 -33
-8 -31 32 3 53 114 75 929 233 1494 289 224 23 407 66 595 140 181 72 371 119
351 86 -4 -5 0 -12 6 -14 7 -3 1 -6 -13 -6 -54 -2 -361 -95 -454 -138 l-30
-14 30 5 c17 2 57 11 90 19 33 9 62 14 64 12 2 -3 12 0 22 6 10 5 36 11 56 13
21 2 52 7 68 11 28 8 29 7 15 -9 -13 -16 -12 -20 3 -31 9 -6 14 -15 10 -18 -3
-4 1 -7 10 -7 10 0 17 -4 17 -10 0 -5 9 -10 21 -10 11 0 29 -5 40 -11 11 -6
48 -12 81 -14 102 -6 104 -42 4 -74 -73 -24 -156 -58 -156 -65 0 -3 6 -4 13
-1 44 14 220 65 261 75 27 6 140 18 250 25 111 8 211 17 222 20 26 6 97 82 91
98 -2 7 -30 21 -63 32 -33 11 -65 24 -72 28 -22 15 -13 29 16 23 15 -3 203
-24 417 -46 509 -53 788 -84 1070 -120 127 -16 298 -36 380 -45 83 -8 186 -20
230 -25 44 -5 152 -14 240 -20 88 -6 182 -12 209 -14 l49 -3 -39 23 c-57 35
-204 90 -514 192 -564 186 -1092 307 -1620 371 -304 37 -832 65 -1050 55z
m688 -496 c2 -11 -8 -19 -30 -26 -32 -11 -272 -27 -253 -17 28 13 233 63 255
62 14 -1 26 -9 28 -19z"/>
<path d="M6775 25950 c-3 -5 -1 -10 4 -10 6 0 11 5 11 10 0 6 -2 10 -4 10 -3
0 -8 -4 -11 -10z"/>
<path d="M6289 25680 c-61 -10 -317 -157 -327 -187 -14 -47 234 58 347 145 35
28 25 49 -20 42z"/>
<path d="M10386 25596 c-21 -33 -21 -72 1 -80 25 -10 45 17 47 60 1 47 -23 57
-48 20z"/>
<path d="M12118 25594 c-12 -11 4 -34 24 -34 13 0 18 6 16 17 -3 18 -29 29
-40 17z"/>
<path d="M13900 25509 c-281 -74 -565 -182 -737 -280 -158 -91 -274 -230 -275
-331 -1 -105 43 -174 147 -233 l65 -36 0 -77 c-1 -162 -41 -276 -130 -363 -33
-33 -56 -59 -51 -59 5 0 40 24 77 54 76 59 120 83 269 146 150 64 622 220 687
227 53 5 58 8 67 37 5 17 12 117 16 221 5 176 31 628 39 703 5 40 10 40 -174
-9z m67 -883 c-6 -17 -38 -20 -48 -4 -5 8 -2 15 9 19 22 8 44 0 39 -15z"/>
<path d="M24064 25346 c1 -7 25 -39 54 -70 28 -31 66 -81 84 -111 41 -67 54
-71 27 -8 -23 53 -53 96 -113 161 -41 44 -56 52 -52 28z m31 -26 c10 -11 16
-20 13 -20 -3 0 -13 9 -23 20 -10 11 -16 20 -13 20 3 0 13 -9 23 -20z"/>
<path d="M12423 25283 c-19 -7 -16 -37 5 -64 12 -14 25 -20 35 -16 21 8 22 51
1 71 -16 17 -21 18 -41 9z"/>
<path d="M17240 25259 c-190 -17 -326 -52 -565 -144 -38 -15 -90 -31 -115 -35
-73 -14 112 -1 310 21 256 30 841 38 1070 15 91 -9 183 -21 205 -26 75 -18 80
-10 15 21 -286 136 -560 180 -920 148z"/>
<path d="M21773 25051 c-49 -13 -120 -58 -148 -95 -81 -106 -87 -292 -14 -440
79 -159 198 -230 664 -396 293 -104 545 -204 780 -310 217 -98 290 -126 362
-140 88 -17 148 -1 212 56 113 102 150 204 192 527 10 77 16 97 27 92 39 -15
243 -158 275 -194 43 -48 71 -133 61 -185 -8 -43 -52 -84 -132 -125 -60 -30
-208 -76 -279 -87 -66 -10 -53 -28 14 -19 144 18 276 67 380 141 101 72 117
144 57 255 -28 50 -90 119 -65 72 6 -12 16 -25 21 -28 6 -3 10 -10 10 -16 0
-21 -26 -6 -84 49 -62 58 -179 134 -293 191 -96 48 -147 64 -633 196 -346 94
-475 140 -860 310 -293 129 -450 171 -547 146z"/>
<path d="M14782 24993 c-22 -9 -2 -23 33 -23 40 0 54 15 22 24 -25 7 -37 7
-55 -1z"/>
<path d="M12275 24950 c-8 -13 20 -24 41 -16 20 8 9 26 -16 26 -10 0 -22 -5
-25 -10z"/>
<path d="M14780 24907 c1 -15 28 -52 34 -46 2 2 7 15 11 29 5 22 3 26 -19 28
-15 1 -26 -3 -26 -11z"/>
<path d="M12465 24856 c-43 -43 -6 -100 62 -94 35 3 38 5 41 37 6 62 -4 81
-44 81 -23 0 -43 -8 -59 -24z m59 -33 c4 -9 3 -20 -2 -25 -11 -11 -42 1 -42
16 0 29 34 36 44 9z"/>
<path d="M20461 24826 c2 -2 15 -9 29 -15 24 -11 24 -11 6 3 -16 13 -49 24
-35 12z"/>
<path d="M14908 24803 c7 -3 16 -2 19 1 4 3 -2 6 -13 5 -11 0 -14 -3 -6 -6z"/>
<path d="M10752 24753 c2 -10 10 -18 18 -18 8 0 16 8 18 18 2 12 -3 17 -18 17
-15 0 -20 -5 -18 -17z"/>
<path d="M24196 24723 c-33 -69 -118 -188 -179 -250 -39 -40 -55 -63 -45 -63
9 0 33 19 53 43 74 86 204 291 192 303 -2 2 -11 -13 -21 -33z"/>
<path d="M17155 24669 c-325 -22 -484 -42 -1095 -140 -467 -75 -675 -112
-1085 -195 -203 -42 -430 -87 -503 -102 -124 -25 -133 -28 -140 -52 -9 -33 -9
-946 0 -955 7 -7 56 5 243 59 50 15 140 38 200 51 92 21 100 24 50 20 -44 -4
-56 -2 -45 5 13 9 12 11 -5 9 -44 -3 -70 1 -57 10 21 13 3 61 -32 82 -20 12
-32 15 -35 8 -2 -6 3 -15 10 -20 11 -7 10 -9 -3 -9 -21 0 -23 -11 -5 -30 10
-12 9 -12 -5 -1 -16 12 -18 10 -18 -19 0 -19 -3 -31 -6 -27 -3 3 -3 40 1 81
l7 76 35 9 c35 10 73 37 73 52 0 4 -19 0 -42 -11 -23 -10 -46 -16 -50 -14 -4
3 -8 24 -7 47 0 28 3 36 8 24 9 -25 16 -25 43 -1 33 30 37 32 151 71 118 40
646 172 790 198 53 9 97 20 97 22 0 22 -618 -113 -843 -183 -62 -20 -121 -37
-132 -39 -11 -1 -39 -8 -63 -15 -49 -15 -56 -12 -43 21 7 21 30 30 157 68 354
105 739 192 1179 266 340 57 483 87 617 130 78 25 128 32 128 17 0 -10 30 -9
46 1 12 7 13 -37 1 -49 -10 -11 -9 -26 2 -19 5 3 12 1 15 -4 4 -5 -1 -11 -10
-13 -14 -2 -12 -8 10 -33 14 -16 41 -52 59 -80 18 -27 39 -51 47 -51 8 -1 43
-2 78 -3 40 -1 61 -5 57 -11 -4 -7 37 -9 122 -7 159 4 358 -8 398 -23 17 -7
59 -17 94 -24 53 -10 19 -11 -225 -8 -159 2 -329 -1 -378 -6 -83 -9 -90 -12
-128 -48 -22 -22 -60 -67 -85 -102 -25 -34 -54 -64 -66 -67 -12 -2 -31 -6 -42
-8 -66 -14 54 -4 148 12 62 11 157 25 212 31 117 14 917 19 1015 7 l65 -8 -65
36 c-134 74 -254 128 -304 135 -28 4 -43 8 -33 9 10 0 15 6 12 12 -4 6 0 9 10
7 16 -3 18 6 16 72 -2 83 39 284 62 308 11 11 31 9 118 -12 172 -42 295 -58
414 -55 61 2 118 5 128 7 17 4 17 5 0 19 -10 8 -13 12 -6 9 6 -3 19 -3 28 0
16 7 -120 51 -336 108 -164 44 -150 48 161 41 336 -6 816 -36 1055 -66 194
-23 736 -111 838 -135 191 -46 -10 47 -263 121 -107 31 -262 77 -345 101 -393
115 -947 226 -1355 270 -171 19 -938 28 -1145 13z m-245 -362 c0 -17 -31 -35
-130 -74 -81 -31 -84 -32 -55 -8 30 25 160 95 176 95 5 0 9 -6 9 -13z m-2270
-983 c0 -8 -4 -14 -10 -14 -5 0 -10 2 -10 4 0 2 -3 12 -6 20 -5 12 -2 15 10
10 9 -3 16 -12 16 -20z"/>
<path d="M12260 24539 c-10 -17 -9 -24 5 -38 15 -15 18 -14 36 8 23 28 20 45
-9 49 -13 2 -25 -5 -32 -19z"/>
<path d="M12607 24513 c-14 -13 -6 -43 14 -53 31 -17 74 13 59 40 -10 20 -59
28 -73 13z"/>
<path d="M11188 24339 c-18 -10 -25 -49 -10 -49 12 0 42 34 42 48 0 14 -9 15
-32 1z"/>
<path d="M13815 24085 c-263 -71 -458 -139 -605 -211 -140 -69 -224 -129 -288
-206 -112 -133 -113 -203 -7 -374 31 -49 67 -113 81 -142 24 -49 25 -58 16
-112 -8 -41 -30 -93 -71 -167 -77 -136 -80 -166 -16 -122 124 84 299 151 794
304 167 52 308 98 313 103 5 5 4 47 -2 98 -6 49 -14 267 -18 484 l-7 396 -190
-51z"/>
<path d="M12665 24026 c-20 -14 -15 -46 8 -46 19 0 50 36 42 49 -9 15 -27 14
-50 -3z"/>
<path d="M10407 23823 c-12 -12 -7 -50 8 -63 23 -19 50 -8 47 20 -4 39 -35 63
-55 43z"/>
<path d="M21650 23711 c-158 -48 -239 -239 -182 -428 38 -125 135 -258 246
-340 139 -102 455 -239 886 -383 459 -153 848 -280 859 -280 6 0 8 12 5 28 -4
20 5 56 32 118 84 201 103 326 63 413 -47 105 -257 270 -499 394 -245 124
-973 415 -1159 463 -93 24 -200 30 -251 15z"/>
<path d="M12458 23649 c-23 -13 -24 -76 -2 -107 17 -24 52 -29 76 -9 25 20 48
60 48 83 0 35 -82 57 -122 33z"/>
<path d="M11742 23620 c-27 -25 -28 -50 -3 -50 18 0 51 38 51 60 0 17 -25 11
-48 -10z"/>
<path d="M16638 23613 c12 -2 32 -2 45 0 12 2 2 4 -23 4 -25 0 -35 -2 -22 -4z"/>
<path d="M16528 23603 c6 -2 18 -2 25 0 6 3 1 5 -13 5 -14 0 -19 -2 -12 -5z"/>
<path d="M15108 23403 c6 -2 18 -2 25 0 6 3 1 5 -13 5 -14 0 -19 -2 -12 -5z"/>
<path d="M14971 23384 c-68 -12 -103 -24 -70 -24 15 0 158 28 174 35 21 8 -33
2 -104 -11z"/>
<path d="M7220 23178 c-29 -48 -61 -138 -54 -150 7 -11 29 26 70 119 27 60 15
82 -16 31z"/>
<path d="M9735 23139 c-13 -19 4 -59 25 -59 16 0 20 7 20 35 0 28 -4 35 -19
35 -11 0 -23 -5 -26 -11z"/>
<path d="M15499 22865 c-95 -30 -178 -135 -210 -265 -19 -79 -17 -304 5 -415
45 -235 177 -581 309 -815 26 -47 87 -140 135 -207 234 -327 407 -507 677
-700 390 -279 762 -427 1204 -478 379 -45 964 11 1017 96 4 7 -1 18 -11 25
-23 17 -169 65 -316 103 -355 93 -686 245 -1044 479 -470 307 -834 699 -1056
1137 -64 128 -79 163 -226 539 -40 104 -92 225 -116 269 -95 179 -242 272
-368 232z m126 -164 c0 -7 -15 -19 -33 -26 -32 -14 -32 -14 -21 8 20 37 54 48
54 18z m125 -91 c5 -10 10 -28 10 -39 0 -18 -3 -19 -32 -9 -46 15 -62 29 -47
39 7 4 18 5 26 2 16 -6 17 19 1 36 -11 11 -9 11 9 2 13 -6 27 -20 33 -31z
m-100 -5 c11 -13 10 -24 -2 -63 l-16 -47 -1 45 c-2 67 -10 74 -56 50 -41 -21
-51 -20 -42 4 5 13 30 21 83 25 12 0 27 -6 34 -14z m185 -25 c9 -17 13 -36 9
-42 -6 -10 -42 44 -44 65 -1 18 21 4 35 -23z m-282 -101 c7 -1 14 -1 17 -1 3
0 11 -6 18 -14 11 -12 9 -14 -11 -14 -33 0 -47 19 -45 60 l1 35 4 -32 c2 -18
10 -34 16 -34z m234 35 c7 -21 -15 -29 -69 -26 -68 4 -78 22 -14 22 25 0 48 5
51 11 8 11 27 8 32 -7z m57 -49 c3 -9 0 -15 -9 -15 -16 0 -27 14 -18 24 10 10
21 7 27 -9z m-49 -39 c16 -11 10 -14 -50 -18 -40 -4 -81 -1 -99 5 l-31 12 40
6 c71 11 121 9 140 -5z m-165 -53 c0 -19 -13 -9 -16 12 -1 8 2 13 7 9 5 -3 9
-12 9 -21z m240 13 c0 -8 -13 -16 -30 -18 -35 -5 -35 -5 -14 16 19 20 44 21
44 2z m-60 -37 c11 -6 9 -8 -10 -9 -15 0 -31 -5 -37 -11 -5 -5 -37 -9 -69 -7
-44 2 -59 7 -59 18 0 26 133 32 175 9z m445 -679 c3 -5 1 -10 -4 -10 -6 0 -11
5 -11 10 0 6 2 10 4 10 3 0 8 -4 11 -10z m248 -361 c26 -29 45 -54 42 -58 -10
-9 -145 140 -138 152 4 6 15 0 27 -16 12 -15 42 -50 69 -78z"/>
<path d="M16565 22794 c-74 -38 -144 -136 -171 -238 -39 -146 8 -392 121 -633
54 -116 110 -201 215 -332 205 -254 418 -441 760 -666 155 -102 600 -314 810
-386 332 -115 784 -224 1016 -245 79 -7 151 9 239 53 146 74 295 239 295 326
0 44 -12 49 -355 137 -559 143 -959 302 -1290 511 -252 159 -402 284 -660 550
-160 166 -253 281 -421 528 -139 204 -256 333 -343 379 -48 26 -70 32 -122 32
-38 0 -76 -6 -94 -16z m283 -331 c-10 -2 -26 -2 -35 0 -10 3 -2 5 17 5 19 0
27 -2 18 -5z m-107 -59 c-11 -15 -21 -23 -21 -18 0 14 31 56 37 50 3 -3 -4
-17 -16 -32z m104 -23 c-7 -13 -65 -41 -65 -33 0 8 51 41 63 42 5 0 6 -4 2 -9z
m42 3 c-3 -3 -12 -4 -19 -1 -8 3 -5 6 6 6 11 1 17 -2 13 -5z m63 -82 c0 -5
-13 -7 -30 -4 -16 2 -30 6 -30 8 0 2 14 4 30 4 17 0 30 -4 30 -8z m-83 -19
c-16 -16 -18 -16 -34 0 -16 16 -15 17 17 17 32 0 33 -1 17 -17z"/>
<path d="M14515 22766 c-60 -22 -100 -73 -126 -156 -20 -66 -21 -87 -16 -254
3 -99 12 -221 21 -271 97 -541 384 -1140 747 -1559 111 -129 286 -300 369
-361 261 -191 676 -378 965 -435 157 -31 411 -39 525 -16 84 17 160 50 167 73
4 12 -49 31 -177 63 -105 26 -290 99 -390 153 -237 129 -431 280 -671 524
-243 248 -367 407 -503 648 -131 232 -316 726 -430 1149 -75 276 -129 376
-231 428 -53 27 -193 35 -250 14z m232 -171 c24 -17 74 -101 65 -109 -9 -9
-102 -7 -102 2 0 5 9 18 20 30 23 25 25 36 7 50 -25 21 -56 2 -67 -39 -6 -22
-8 -44 -5 -49 8 -13 73 -30 120 -30 22 0 46 -4 53 -9 18 -11 10 -47 -9 -42 -8
2 -31 5 -51 8 l-36 5 5 -43 c9 -76 22 -94 71 -97 53 -4 54 11 3 37 -63 33 -66
82 -4 61 24 -9 35 -22 51 -63 24 -64 15 -82 -37 -73 -20 3 -49 7 -66 8 -27 3
-31 8 -41 47 -9 39 -16 47 -52 62 -49 21 -60 56 -14 45 51 -12 57 -11 57 8 0
13 -11 23 -35 31 -34 12 -35 13 -34 64 2 43 7 58 30 82 32 33 41 35 71 14z
m91 -7 c16 -16 15 -25 -2 -31 -9 -3 -21 4 -30 19 -15 22 -15 24 2 24 10 0 23
-5 30 -12z m35 -128 c9 -11 13 -20 7 -20 -5 0 -14 9 -20 20 -6 11 -9 20 -8 20
2 0 11 -9 21 -20z m46 -75 c8 -17 19 -39 24 -49 14 -29 66 -186 62 -186 -3 0
0 -11 5 -25 12 -32 -7 -34 -20 -2 -5 12 -9 16 -9 9 -1 -7 3 -21 8 -31 5 -9 6
-23 1 -30 -5 -9 -10 1 -15 30 -4 24 -12 49 -17 56 -5 7 -7 17 -3 24 6 8 9 8
15 -1 5 -7 8 -2 8 14 0 24 -2 25 -13 9 -8 -10 -15 -16 -18 -13 -10 13 -49 151
-43 157 3 4 0 13 -7 22 -8 9 -17 24 -20 34 -12 32 26 15 42 -18z m-231 -94
c26 -32 29 -40 16 -45 -38 -14 -45 -8 -64 57 -13 40 10 35 48 -12z m231 -123
c1 -4 -5 -5 -13 -2 -11 4 -13 0 -9 -15 3 -11 9 -19 13 -16 8 5 22 -28 45 -105
7 -25 33 -99 59 -164 25 -66 44 -121 42 -123 -2 -3 -9 5 -16 16 -6 12 -16 18
-22 15 -7 -4 -8 -3 -4 4 4 7 1 12 -6 12 -10 0 -10 2 -1 8 7 4 9 13 4 21 -5 7
-13 11 -18 8 -12 -7 -76 127 -93 193 -7 25 -15 50 -18 55 -4 6 -7 15 -8 22 -1
6 -12 25 -24 41 -24 33 -19 57 11 49 10 -3 18 -2 17 2 -1 3 2 17 7 31 8 25 8
25 21 -10 7 -19 13 -38 13 -42z m-205 40 c24 -34 20 -58 -8 -58 -18 0 -27 8
-35 31 -18 51 13 70 43 27z m87 -23 c3 -16 19 -57 36 -90 17 -33 33 -72 37
-87 5 -22 3 -25 -12 -21 -23 6 -43 39 -82 135 -36 88 -37 100 -8 96 16 -2 24
-12 29 -33z m-55 -82 c8 -21 20 -47 26 -58 6 -11 13 -32 14 -48 2 -15 15 -44
29 -64 22 -34 23 -38 9 -54 -11 -13 -22 -15 -37 -10 -17 6 -31 35 -63 132 -23
68 -39 127 -37 132 2 4 13 7 24 7 14 0 25 -12 35 -37z m298 -99 c3 -8 2 -12
-4 -9 -6 3 -10 10 -10 16 0 14 7 11 14 -7z m-207 -15 c6 -6 21 -16 33 -23 26
-14 114 -173 100 -181 -6 -3 -10 0 -10 8 0 8 -7 18 -16 21 -8 3 -12 2 -9 -4 3
-6 3 -10 -2 -10 -10 0 -63 83 -63 98 0 6 -13 27 -30 45 -29 34 -38 57 -22 57
4 0 13 -5 19 -11z m227 -53 c10 4 16 1 16 -9 0 -22 -17 -30 -37 -18 -10 6 -14
11 -9 11 5 0 2 8 -5 18 -12 15 -12 16 2 4 9 -7 24 -10 33 -6z m-319 -134 c-2
-2 -7 7 -11 22 -3 14 -12 26 -19 26 -17 0 -24 40 -10 62 8 15 13 6 27 -44 10
-34 16 -64 13 -66z m390 -40 c15 -48 36 -105 45 -127 10 -22 23 -51 28 -65 6
-14 22 -51 36 -83 14 -32 26 -60 26 -63 0 -15 113 -250 159 -331 29 -50 36
-71 25 -66 -12 4 -15 2 -12 -8 2 -7 14 -16 25 -19 12 -3 41 -34 66 -70 35 -52
42 -68 32 -77 -14 -13 -28 0 -76 67 -54 76 -239 423 -239 448 0 6 -15 41 -34
79 -31 63 -126 296 -126 309 0 4 8 -2 18 -13 9 -10 14 -14 10 -9 -5 6 -8 18
-8 28 0 10 -5 17 -12 16 -6 -2 -22 22 -34 52 -21 50 -21 56 -6 61 24 9 44 -26
77 -129z m-275 114 c0 -2 -7 -7 -16 -10 -8 -3 -12 -2 -9 4 6 10 25 14 25 6z
m-52 -34 c5 -17 -13 -15 -27 2 -10 12 -9 14 5 12 10 -2 20 -8 22 -14z m-91
-34 c-3 -8 -6 -5 -6 6 -1 11 2 17 5 13 3 -3 4 -12 1 -19z m237 -33 c3 -8 1
-15 -3 -15 -5 0 -11 7 -15 15 -3 8 -1 15 3 15 5 0 11 -7 15 -15z m116 -55 c0
-5 -2 -10 -4 -10 -3 0 -8 5 -11 10 -3 6 -1 10 4 10 6 0 11 -4 11 -10z m-228
-272 c-2 -10 -6 -18 -7 -18 -1 0 -5 8 -7 18 -3 11 0 19 7 19 7 0 10 -8 7 -19z
m22 -44 c3 -9 11 -12 18 -8 8 5 9 2 5 -10 -5 -13 -3 -17 6 -13 8 3 13 -3 14
-14 1 -10 -2 -19 -7 -19 -4 0 -6 -10 -3 -22 9 -36 -4 -17 -32 45 -13 31 -21
57 -16 57 5 0 12 -7 15 -16z m766 -594 c0 -4 -6 -10 -12 -13 -8 -3 -14 5 -14
20 -2 19 1 22 12 12 8 -6 14 -15 14 -19z m-30 -78 c-12 -4 -60 35 -60 50 0 5
16 -3 36 -19 20 -15 31 -29 24 -31z m-90 -3 c0 -19 -58 12 -75 40 -5 8 9 5 33
-9 23 -13 42 -27 42 -31z m211 -30 c32 -35 59 -66 59 -68 0 -2 -15 8 -32 23
-18 14 -50 38 -70 51 -47 31 -66 62 -37 60 11 -1 47 -30 80 -66z m-36 -44 c36
-22 38 -24 15 -25 -14 0 -36 11 -49 25 -29 32 -17 32 34 0z m-245 -35 c13 -8
13 -10 -2 -10 -9 0 -20 5 -23 10 -8 13 5 13 25 0z m115 -20 c24 0 27 -2 15
-11 -12 -9 -11 -10 8 -6 12 3 22 1 22 -4 0 -13 -81 -11 -109 4 -39 20 -39 38
1 26 18 -5 46 -9 63 -9z m104 -6 c17 -4 31 -13 31 -20 0 -19 -45 -18 -64 2
-26 26 -21 29 33 18z m181 -24 c17 -12 29 -24 27 -26 -7 -7 -136 36 -143 48
-12 20 82 2 116 -22z m-12 -69 c24 -7 42 -18 42 -26 0 -12 -5 -12 -27 -4 -33
12 -97 21 -172 23 -35 1 -56 6 -59 14 -3 10 8 12 42 11 25 -2 48 0 51 3 6 6
58 -3 123 -21z m-238 -6 c0 -8 -2 -15 -4 -15 -2 0 -6 7 -10 15 -3 8 -1 15 4
15 6 0 10 -7 10 -15z m45 -53 c-3 -3 -11 0 -18 7 -9 10 -8 11 6 5 10 -3 15 -9
12 -12z m99 -7 c3 -8 10 -15 16 -15 6 0 8 5 4 12 -5 8 5 9 37 5 24 -3 45 -11
47 -16 2 -6 8 -9 13 -5 5 3 9 -2 9 -11 0 -12 -5 -15 -16 -11 -9 3 -48 9 -87
12 -76 7 -111 19 -102 35 10 15 72 11 79 -6z m231 -31 c26 2 39 -2 46 -15 5
-10 9 -20 9 -22 0 -10 -96 6 -117 19 -31 20 -30 36 2 24 13 -5 40 -8 60 -6z
m-165 -65 c0 -12 -7 -19 -19 -19 -23 0 -35 15 -27 35 7 20 46 7 46 -16z m64
21 c36 -13 35 -42 -1 -38 -20 2 -29 9 -31 26 -4 25 -3 26 32 12z m-154 -10 c0
-5 -7 -10 -16 -10 -8 0 -12 5 -9 10 3 6 10 10 16 10 5 0 9 -4 9 -10z m361 -17
c13 -16 12 -17 -3 -4 -17 13 -22 21 -14 21 2 0 10 -8 17 -17z m-47 -22 c7 -6
16 -8 20 -4 4 4 4 -1 0 -11 -5 -14 -4 -17 4 -12 7 4 12 2 12 -3 0 -6 -7 -11
-15 -11 -8 0 -15 4 -15 8 0 9 -8 11 -57 13 -36 2 -63 16 -63 33 0 10 11 11 51
5 28 -4 56 -13 63 -18z m-148 -35 c3 -8 4 -22 2 -30 -3 -14 -7 -13 -36 4 -18
11 -30 25 -27 30 9 15 55 12 61 -4z m84 -52 c0 -20 -3 -22 -22 -15 -13 5 -24
17 -25 27 -3 18 -2 18 5 0 6 -15 11 -16 16 -7 5 7 3 18 -3 24 -20 20 -12 31 9
12 11 -10 20 -29 20 -41z m80 -5 c13 -22 -3 -34 -28 -20 -26 14 -27 50 -1 44
11 -3 24 -14 29 -24z m88 -48 c3 -8 -4 -12 -19 -9 -17 2 -25 11 -27 27 -4 24
-3 24 19 9 13 -8 25 -20 27 -27z m77 -41 c8 -13 -1 -13 -26 0 -10 6 -19 15
-19 21 0 11 35 -5 45 -21z m275 -170 c36 -13 46 -19 30 -19 -14 0 -43 8 -65
19 -51 25 -35 25 35 0z"/>
<path d="M15218 21473 c11 -21 27 -54 35 -73 13 -28 16 -30 13 -10 -5 35 -46
120 -58 120 -5 0 -1 -17 10 -37z"/>
<path d="M15516 20903 c3 -11 14 -25 25 -31 18 -12 19 -11 10 6 -5 10 -17 24
-25 31 -12 10 -14 9 -10 -6z"/>
<path d="M10860 22706 c0 -7 7 -19 15 -26 21 -17 51 6 34 26 -15 18 -49 18
-49 0z"/>
<path d="M28304 22666 c-20 -32 -15 -71 10 -71 21 0 58 59 49 81 -8 22 -41 16
-59 -10z"/>
<path d="M12220 22616 c0 -18 26 -40 34 -27 9 14 -4 41 -20 41 -8 0 -14 -6
-14 -14z"/>
<path d="M13885 22595 c-95 -52 -126 -139 -126 -360 0 -287 55 -544 197 -908
130 -335 379 -746 643 -1062 278 -333 678 -616 997 -705 95 -27 320 -60 412
-60 82 0 202 26 202 44 0 7 -75 45 -167 85 -212 93 -309 145 -453 242 -223
151 -495 389 -623 547 -184 226 -341 481 -483 784 -207 444 -295 712 -358
1094 -28 168 -54 249 -91 284 -32 30 -108 38 -150 15z"/>
<path d="M10036 22511 c-10 -16 5 -41 24 -41 25 0 35 18 20 35 -14 17 -36 20
-44 6z"/>
<path d="M13265 22483 c-76 -40 -145 -134 -171 -233 -46 -177 -1 -571 102
-884 58 -178 196 -465 315 -656 18 -29 24 -48 19 -56 -7 -7 -1 -19 16 -35 14
-13 77 -92 139 -175 148 -198 262 -315 459 -474 127 -102 196 -149 331 -224
340 -188 527 -271 730 -320 172 -42 186 -46 226 -73 30 -20 46 -24 71 -19 53
10 64 20 51 49 -7 14 -9 27 -6 30 2 3 30 3 61 1 57 -4 56 -4 -53 35 -188 66
-204 73 -365 170 -466 280 -795 595 -1100 1053 -237 357 -373 696 -546 1358
-82 315 -122 417 -177 451 -38 23 -62 23 -102 2z"/>
<path d="M10303 22471 c-72 -45 -74 -117 -6 -192 85 -94 204 -68 220 48 7 50
-18 105 -60 135 -42 30 -113 34 -154 9z"/>
<path d="M11883 22278 c-32 -42 -15 -76 30 -59 31 12 40 26 32 51 -7 23 -47
27 -62 8z"/>
<path d="M23778 22173 c-19 -23 -40 -105 -29 -116 14 -14 49 10 66 44 31 58 1
116 -37 72z"/>
<path d="M12804 22145 c-7 -17 21 -65 36 -65 13 0 13 36 0 61 -13 23 -28 25
-36 4z"/>
<path d="M18173 22123 c-23 -9 -15 -42 12 -49 34 -8 55 1 55 25 0 23 -37 37
-67 24z"/>
<path d="M10760 21852 c0 -21 27 -49 37 -38 4 3 1 12 -5 18 -16 16 -15 28 3
28 7 0 19 -8 25 -17 10 -16 10 -16 8 2 -4 29 -68 35 -68 7z"/>
<path d="M13061 21624 c0 -11 3 -14 6 -6 3 7 2 16 -1 19 -3 4 -6 -2 -5 -13z"/>
<path d="M30030 21550 c11 -22 23 -40 25 -40 3 0 -4 18 -15 40 -11 22 -23 40
-25 40 -3 0 4 -18 15 -40z"/>
<path d="M30075 21470 c9 -16 18 -30 21 -30 2 0 -2 14 -11 30 -9 17 -18 30
-21 30 -2 0 2 -13 11 -30z"/>
<path d="M11988 21423 c-9 -2 -19 -11 -22 -19 -6 -17 5 -19 21 -3 13 13 36 2
27 -12 -3 -6 2 -31 11 -55 15 -39 19 -43 33 -32 27 22 43 74 32 103 -8 21 -15
25 -47 24 -21 -1 -45 -3 -55 -6z m82 -39 c0 -20 -18 -54 -29 -54 -13 0 -19 48
-8 59 16 16 37 13 37 -5z"/>
<path d="M30110 21410 c18 -34 287 -510 432 -764 140 -244 334 -564 356 -586
13 -13 13 -12 -1 10 -143 239 -474 808 -720 1240 -55 96 -98 160 -67 100z"/>
<path d="M13070 21186 c0 -14 58 -66 73 -66 13 0 7 22 -14 51 -21 30 -59 40
-59 15z"/>
<path d="M22789 21053 c-13 -16 -12 -17 4 -4 16 13 21 21 13 21 -2 0 -10 -8
-17 -17z"/>
<path d="M22741 21019 c-16 -13 -18 -19 -8 -19 15 0 43 27 36 34 -2 3 -15 -4
-28 -15z"/>
<path d="M23046 20384 c-10 -27 5 -84 25 -95 27 -14 34 11 19 66 -13 46 -33
58 -44 29z"/>
<path d="M23350 20312 c-52 -28 -60 -49 -30 -73 14 -10 36 -28 50 -39 33 -26
55 -25 74 2 22 31 20 70 -5 102 -24 31 -42 32 -89 8z"/>
<path d="M23146 20228 c-22 -31 -20 -84 4 -108 25 -25 45 -27 34 -2 -5 9 -9
40 -9 69 0 61 -7 72 -29 41z"/>
<path d="M10090 20124 c0 -8 5 -12 10 -9 6 3 10 10 10 16 0 5 -4 9 -10 9 -5 0
-10 -7 -10 -16z"/>
<path d="M13856 20089 c-8 -40 -8 -103 0 -123 4 -9 18 -16 34 -16 31 0 100 26
100 38 0 15 -101 132 -114 132 -8 0 -16 -14 -20 -31z"/>
<path d="M9806 20084 c-4 -10 -13 -14 -22 -10 -17 7 -108 -36 -141 -67 -13
-11 -23 -27 -23 -35 0 -14 3 -14 90 3 14 3 40 8 58 11 18 4 32 12 32 20 0 8 8
14 18 14 14 0 15 -2 2 -10 -19 -13 -8 -13 25 0 24 9 27 30 4 30 -6 0 -7 -5 -3
-12 4 -7 3 -8 -5 -4 -8 5 -9 12 -2 19 6 8 3 19 -9 34 -15 19 -19 20 -24 7z"/>
<path d="M9840 20096 c0 -3 9 -10 20 -16 11 -6 20 -8 20 -6 0 3 -9 10 -20 16
-11 6 -20 8 -20 6z"/>
<path d="M22827 20008 c6 -35 30 -87 133 -303 118 -248 244 -591 291 -795 12
-52 27 -115 35 -140 l14 -45 -6 65 c-6 77 -36 221 -71 345 -66 233 -225 623
-326 804 -58 102 -81 125 -70 69z"/>
<path d="M20201 19984 c0 -11 3 -14 6 -6 3 7 2 16 -1 19 -3 4 -6 -2 -5 -13z"/>
<path d="M10687 19843 c-4 -3 -7 -12 -7 -20 0 -17 26 -17 33 1 8 21 -11 35
-26 19z"/>
<path d="M9522 19698 c5 -15 48 -18 48 -3 0 6 -11 11 -26 13 -18 3 -25 0 -22
-10z"/>
<path d="M21580 19545 c-10 -12 -10 -19 -1 -28 14 -14 46 2 46 24 0 20 -30 23
-45 4z"/>
<path d="M10965 19474 c-64 -33 -95 -80 -98 -144 -3 -72 76 -139 147 -126 110
21 182 151 130 232 -35 52 -118 70 -179 38z"/>
<path d="M17910 19449 c0 -5 5 -7 10 -4 6 3 10 8 10 11 0 2 -4 4 -10 4 -5 0
-10 -5 -10 -11z"/>
<path d="M12066 19368 c-22 -31 -20 -64 4 -88 23 -23 33 -24 63 -9 45 24 47
46 8 88 -34 37 -54 39 -75 9z"/>
<path d="M21163 19272 c-17 -26 -37 -60 -43 -77 l-10 -30 20 25 c21 27 72 121
68 125 -2 2 -17 -18 -35 -43z"/>
<path d="M15711 19265 c-18 -6 -38 -19 -43 -28 -7 -14 -4 -17 17 -17 21 0 24
-3 16 -17 -32 -64 -44 -124 -66 -328 -9 -82 -22 -211 -30 -285 -8 -74 -19
-151 -25 -170 -5 -19 -10 -82 -10 -140 0 -123 -24 -520 -45 -735 -13 -145 -47
-565 -80 -999 -16 -207 -16 -209 4 -230 l21 -22 -34 -49 c-19 -28 -78 -99
-131 -160 -814 -926 -1332 -1660 -1723 -2441 -190 -380 -394 -905 -462 -1191
-124 -516 -160 -833 -160 -1395 0 -524 30 -857 126 -1378 61 -330 156 -679
314 -1152 175 -524 435 -1127 694 -1608 247 -460 609 -1009 859 -1305 42 -49
76 -96 77 -102 0 -15 -19 -17 -39 -4 -7 5 -27 5 -43 1 -16 -5 -120 -23 -231
-40 -302 -47 -840 -156 -1142 -231 -637 -159 -984 -302 -1287 -532 l-66 -51
35 -55 c20 -31 51 -74 70 -96 61 -72 79 -102 35 -62 -16 16 -32 27 -35 25 -13
-8 -121 99 -138 136 -23 50 -13 8 12 -51 20 -46 80 -97 166 -138 28 -14 55
-30 58 -35 12 -20 127 -92 223 -139 387 -193 1016 -374 1692 -489 344 -59 362
-61 960 -117 439 -40 727 -60 1405 -96 332 -17 699 -17 760 0 52 15 86 34 44
24 l-24 -5 23 17 c12 9 20 20 17 24 -2 5 6 6 19 4 13 -3 27 0 30 6 4 6 2 11
-3 11 -14 0 -9 36 7 52 7 7 12 19 12 28 0 9 6 22 13 29 10 10 8 15 -7 26 -18
13 -18 15 3 43 11 16 18 32 14 36 -3 3 1 6 10 6 10 0 17 4 17 9 0 4 11 20 25
33 14 15 23 32 20 40 -6 15 46 68 66 68 5 0 9 9 9 19 0 23 82 96 148 131 26
14 86 52 133 83 47 31 91 57 98 57 7 0 25 8 39 18 41 29 243 124 249 118 7 -6
56 18 76 39 8 8 66 32 129 52 l113 38 6 65 c4 36 7 102 8 147 1 67 4 81 15 77
8 -3 16 -15 18 -26 3 -20 4 -20 36 6 20 17 32 23 32 14 0 -11 2 -11 9 0 4 8
12 14 17 14 5 0 31 11 58 24 27 14 51 23 53 20 3 -3 21 4 40 15 19 11 38 17
44 14 5 -4 9 -1 9 5 0 7 6 10 14 7 8 -3 20 1 26 9 7 8 21 14 31 14 9 0 24 6
31 14 10 10 19 11 32 4 13 -7 26 -6 45 2 14 6 46 14 70 16 51 5 68 14 27 14
-15 0 -25 4 -21 10 3 5 12 7 19 4 7 -3 19 2 26 11 15 18 37 20 42 4 3 -9 20
-7 58 6 30 10 69 18 86 17 17 -1 46 3 63 8 21 6 30 5 28 -3 -1 -6 6 -13 16
-15 10 -2 17 2 17 12 0 15 32 23 70 17 8 -2 38 -4 66 -6 29 -1 56 -5 62 -9 6
-3 13 -2 16 3 3 5 23 10 43 10 21 1 68 2 105 4 36 1 64 -1 63 -4 -2 -3 52 -6
120 -6 78 0 125 3 125 10 0 14 92 2 130 -18 17 -9 39 -14 48 -12 11 2 5 8 -18
15 l-35 11 40 -1 c22 -1 45 -5 50 -9 6 -3 26 -10 45 -14 32 -6 33 -6 16 7 -18
14 -18 15 3 21 17 4 21 1 21 -19 0 -25 14 -32 25 -13 5 6 22 8 47 4 33 -6 39
-5 32 6 -5 9 1 8 19 -3 37 -25 73 -23 80 3 5 17 10 19 29 13 13 -5 68 -9 123
-10 159 -2 173 -4 151 -13 -19 -7 -19 -8 2 -13 12 -4 20 -2 17 2 -3 5 0 12 7
16 18 11 161 5 169 -7 4 -8 13 -8 29 1 16 9 33 9 64 2 48 -12 204 -18 276 -11
14 1 45 -2 69 -6 31 -6 42 -5 37 3 -4 7 4 8 26 2 61 -16 185 -21 212 -9 20 10
28 9 41 -5 9 -9 21 -16 27 -16 6 0 8 3 5 7 -4 3 10 12 30 19 29 10 60 11 128
4 66 -7 91 -6 96 2 6 9 14 9 32 -1 13 -7 35 -12 48 -10 13 1 35 -1 48 -5 15
-5 26 -4 31 3 5 9 13 9 33 0 19 -9 34 -9 58 0 17 6 37 7 43 3 6 -4 38 -7 71
-6 33 0 70 -2 81 -7 13 -4 26 -3 34 4 10 9 11 9 6 -1 -7 -12 0 -14 64 -14 46
0 47 2 17 18 -15 8 -25 20 -21 25 4 7 -1 7 -15 0 -20 -11 -26 -8 -21 14 1 5
-1 7 -5 3 -9 -9 -85 31 -85 44 0 6 -7 8 -15 4 -8 -3 -15 -1 -15 4 0 5 -6 7
-14 4 -7 -3 -21 2 -30 11 -9 9 -20 13 -26 10 -5 -3 -10 -1 -10 6 0 6 -8 9 -20
6 -12 -3 -18 -1 -14 5 4 6 -2 8 -16 3 -13 -4 -20 -3 -17 2 11 18 -348 117
-623 173 -909 183 -1831 283 -2878 310 -216 6 -397 8 -402 5 -6 -4 -4 -20 5
-41 13 -31 13 -39 1 -63 -42 -81 -294 -181 -581 -231 -160 -28 -161 -29 -170
-295 -3 -88 -7 -263 -9 -388 -3 -126 -7 -231 -10 -234 -14 -14 -450 -24 -911
-20 -508 3 -523 4 -670 30 -309 54 -498 124 -527 195 -8 19 -12 169 -12 490
l-1 464 28 24 c39 34 47 30 47 -19 0 -56 12 -71 82 -101 190 -84 648 -149
1126 -162 614 -16 1160 48 1424 168 l67 30 3 87 c2 47 0 145 -3 216 -4 72 -7
687 -8 1367 -1 732 -5 1247 -10 1261 l-10 24 -299 8 c-240 6 -304 5 -323 -6
-13 -7 -28 -12 -32 -11 -5 1 -6 -1 -3 -6 3 -5 -10 -38 -28 -73 -19 -35 -51
-114 -71 -175 l-37 -112 -107 -1 c-58 0 -174 -4 -257 -7 -168 -7 -156 -12
-174 64 -9 36 -8 38 14 17 13 -14 15 -6 12 70 -1 46 0 88 3 93 8 13 55 36 47
24 -3 -6 11 -13 34 -17 37 -6 68 -35 62 -57 -1 -5 4 -9 10 -10 7 -1 -11 -4
-40 -7 l-54 -6 20 -22 c10 -13 22 -20 26 -16 3 3 6 -1 6 -9 0 -21 34 -31 93
-28 26 1 54 -3 61 -9 19 -16 135 -16 169 0 16 7 35 29 46 53 33 72 61 151 61
170 0 11 6 27 14 35 8 9 17 30 20 47 11 49 -20 69 -104 68 -37 0 -81 -6 -99
-13 -17 -8 -69 -14 -116 -15 -66 -1 -85 -4 -89 -16 -2 -9 -4 -6 -5 7 0 12 5
24 12 26 9 4 9 6 -1 6 -14 1 -87 -43 -97 -59 -3 -5 -16 -15 -28 -21 -16 -8
-13 -2 11 21 18 18 30 35 27 39 -3 3 -10 0 -14 -7 -4 -7 -15 -10 -24 -6 -13 5
-16 2 -11 -12 5 -16 2 -15 -14 4 -22 24 -48 29 -54 10 -3 -8 -11 -7 -28 5 -14
9 -19 17 -13 17 16 0 24 27 13 52 -5 13 -9 17 -9 8 -1 -8 -8 -28 -16 -44 -8
-15 -13 -32 -10 -36 3 -5 -8 -5 -25 0 -17 5 -32 8 -34 7 -12 -6 -134 109 -184
173 -32 41 -107 199 -136 284 -88 263 -108 653 -55 1061 11 88 20 178 20 200
0 22 -21 101 -46 175 -105 312 -138 525 -123 803 8 154 20 241 58 412 44 198
117 381 228 570 29 50 57 97 61 105 36 68 41 82 35 103 -6 27 -49 69 -59 59
-10 -10 11 41 40 98 15 29 24 54 22 56 -14 14 -152 -246 -233 -438 -32 -76
-60 -135 -63 -133 -2 3 -6 148 -8 323 -2 174 -7 625 -11 1002 -6 514 -11 691
-20 708 -12 20 -20 22 -96 22 l-83 0 -7 -46 c-3 -26 -7 -358 -7 -738 -1 -380
-5 -887 -8 -1126 -4 -239 -8 -367 -9 -284 -1 82 -6 154 -12 160 -5 5 -14 52
-20 104 -10 86 -20 139 -38 195 -6 20 -12 0 -28 -95 -3 -19 -12 -51 -20 -70
-10 -25 -17 -105 -23 -285 -6 -180 -8 76 -10 915 -1 641 -6 1185 -10 1209 -5
24 -15 47 -22 52 -36 23 -142 2 -159 -31 -6 -12 -10 -428 -11 -1137 0 -615 -4
-1140 -9 -1168 -5 -36 -8 -41 -9 -19 0 17 -5 44 -10 60 -6 16 -15 54 -21 84
-15 79 -24 90 -49 64 -15 -17 -21 -41 -25 -110 -2 -49 -9 -147 -14 -219 -6
-71 -11 -263 -13 -425 -1 -162 -6 409 -9 1269 -7 1522 -7 1564 -26 1578 -13 9
-40 13 -83 11 -62 -3 -65 -4 -73 -33 -5 -16 -9 -552 -11 -1190 -1 -863 -4
-1092 -10 -895 -5 146 -9 286 -10 312 -1 25 -6 44 -11 41 -5 -3 -7 9 -4 26 3
18 -1 55 -9 84 -7 28 -13 66 -13 83 0 19 -6 34 -15 38 -8 3 -15 18 -15 32 0
15 -3 24 -7 20 -5 -4 -8 -38 -9 -74 -1 -37 -5 -130 -9 -207 -4 -77 -7 -153 -7
-169 1 -16 -3 -35 -9 -42 -5 -7 -12 -111 -16 -240 -3 -126 -7 -231 -9 -233 -6
-7 -3 590 5 767 3 89 4 162 1 162 -14 0 -193 -291 -252 -409 -76 -152 -162
-373 -184 -470 -43 -191 -64 -373 -64 -549 0 -271 26 -421 126 -726 93 -288
210 -481 412 -684 l114 -113 -7 -122 c-10 -195 32 -461 115 -712 21 -66 45
-147 52 -180 15 -69 -1 -65 173 -47 138 14 652 35 666 27 6 -4 8 -13 5 -20 -6
-18 15 -25 76 -25 28 0 49 -2 47 -4 -7 -7 -861 -38 -906 -33 l-42 4 2 -1266
c1 -696 -1 -1274 -5 -1284 -8 -17 -10 -17 -39 3 -32 23 -355 366 -456 485
-159 187 -437 573 -616 856 -415 658 -664 1173 -852 1765 -242 761 -323 1426
-264 2174 24 309 131 790 240 1083 22 60 47 133 55 163 53 206 402 993 604
1364 274 505 697 1167 962 1505 138 177 146 184 165 143 25 -56 99 -133 172
-179 42 -27 79 -49 83 -49 4 0 30 -14 57 -30 l48 -30 -18 -88 c-9 -48 -29
-168 -44 -267 -33 -227 -43 -272 -105 -452 -28 -81 -48 -154 -45 -162 6 -15
23 -15 469 9 273 15 539 9 626 -15 189 -52 331 -165 419 -334 82 -158 108
-281 160 -751 17 -151 33 -290 36 -308 7 -39 -18 -55 -40 -26 -14 18 -14 18
-9 -1 4 -16 -9 -27 -72 -60 -251 -130 -434 -336 -607 -683 -84 -168 -143 -338
-184 -528 -25 -119 -27 -148 -27 -359 -1 -242 9 -318 64 -534 84 -329 296
-705 512 -907 262 -245 660 -429 983 -453 l100 -8 -80 -2 c-328 -5 -795 216
-1092 518 l-48 49 8 -102 c26 -340 64 -568 117 -697 74 -184 167 -250 466
-333 168 -46 401 -101 494 -117 104 -17 255 -38 329 -44 l74 -6 -7 28 c-4 15
-20 39 -37 53 -16 14 -29 33 -29 43 0 20 -2 20 46 4 56 -19 297 -23 311 -5 18
21 33 186 42 458 5 140 11 262 15 272 9 19 47 45 165 114 46 27 116 76 155
110 100 85 257 247 314 324 52 70 232 367 232 384 0 5 20 70 44 145 82 251
111 453 104 716 -13 423 -165 831 -433 1166 -150 187 -360 345 -596 451 -284
127 -651 168 -952 108 -104 -21 -254 -65 -272 -80 -7 -6 -9 130 -6 403 2 271
-1 432 -8 471 -6 33 -9 61 -8 63 2 2 49 -17 103 -41 193 -85 409 -151 600
-181 144 -24 396 -21 522 5 109 22 304 84 467 149 60 24 102 36 106 30 8 -13
112 467 106 490 -3 12 5 21 25 30 16 7 36 23 44 36 8 13 48 166 89 341 110
476 160 676 203 809 22 66 39 121 38 122 -1 1 -18 -12 -37 -29 -192 -176 -422
-300 -687 -369 -165 -43 -289 -40 -522 12 -52 12 -223 91 -290 135 -68 44 -73
44 -92 13 -18 -30 -48 -39 -48 -15 0 18 27 39 40 31 5 -3 10 -3 10 0 0 18 -29
57 -85 115 -151 155 -272 344 -331 515 -15 44 -35 87 -45 95 -19 16 -109 268
-109 306 0 12 -9 46 -19 76 -30 82 -60 223 -71 336 -6 57 -15 114 -21 129 -6
17 -6 30 1 38 8 9 8 15 0 20 -5 3 -10 17 -10 31 0 14 -6 35 -14 47 -8 13 -13
49 -12 89 1 38 0 68 -2 68 -1 0 -7 -10 -12 -22 -7 -18 -9 -19 -9 -5 -1 9 -5
17 -11 17 -6 0 -6 10 1 28 6 15 12 64 12 109 1 45 6 79 11 75 5 -3 5 1 0 9 -5
8 -7 22 -5 33 1 11 -2 16 -8 12 -6 -4 -5 8 3 31 7 21 12 49 11 63 -1 14 1 37
6 52 7 25 6 27 -12 18 -10 -6 -20 -15 -20 -20 -3 -19 -5 -25 -17 -47 -9 -17
-9 -23 1 -27 8 -3 7 -8 -5 -16 -22 -14 -23 -30 -2 -30 13 0 14 -3 4 -15 -7 -8
-10 -26 -8 -40 4 -17 -2 -31 -18 -46 -13 -13 -24 -17 -24 -11 0 6 5 14 10 17
16 10 12 65 -4 65 -15 0 -10 40 6 51 10 7 -1 69 -13 69 -5 0 -9 -4 -9 -10 0
-5 -9 -10 -19 -10 -11 0 -23 -5 -26 -10 -7 -11 -25 -4 -25 8 0 4 5 14 10 22 9
13 11 13 20 0 8 -13 10 -12 10 3 0 11 -8 17 -21 17 -11 0 -18 4 -15 9 4 5 1
11 -6 13 -9 3 -13 98 -14 394 -2 439 -18 622 -59 672 -8 10 -35 -14 -35 -32 0
-11 -12 8 -27 44 -66 164 -187 282 -332 324 -109 32 -276 14 -384 -40 -82 -42
-196 -122 -268 -188 -66 -61 -66 -61 6 10 40 39 75 79 78 88 4 9 14 16 22 16
18 0 47 25 39 32 -7 8 67 53 126 76 56 22 187 52 228 52 12 0 22 5 22 10 0 13
-8 12 -120 -9 -52 -10 -129 -33 -170 -50 -111 -47 -160 -63 -176 -57 -22 8
-17 25 11 38 27 12 28 34 2 32 -9 -1 -15 2 -12 6 6 10 -47 50 -65 50 -7 0 -10
7 -6 15 6 17 -9 21 -19 5 -4 -6 -16 -3 -31 6 -18 12 -23 22 -18 38 l6 21 -23
-21 c-23 -20 -56 -23 -44 -3 4 5 -1 6 -9 3 -8 -3 -25 0 -38 7 -31 18 -48 20
-69 8 -11 -6 -20 -5 -24 1 -3 5 -15 10 -26 10 -13 0 -19 7 -19 21 0 11 -5 17
-10 14 -17 -10 -50 5 -50 23 0 11 -3 13 -8 6 -4 -6 -15 -10 -24 -8 -11 1 -18
-4 -19 -14 0 -11 -2 -12 -6 -4 -2 6 -9 10 -14 6 -16 -10 -51 7 -45 22 3 9 -2
14 -14 15 -11 1 -26 2 -32 3 -8 1 -13 16 -13 39 1 40 -2 41 -54 22z m568
-1096 c83 -17 264 -80 391 -136 69 -30 169 -73 224 -96 244 -103 370 -163 382
-182 11 -17 10 -23 -4 -42 -39 -52 -586 -263 -689 -267 -22 0 -37 -4 -31 -7
12 -8 -110 -42 -127 -35 -8 3 -15 1 -17 -3 -2 -4 -23 -11 -48 -14 -43 -7 -44
-6 -20 8 14 8 32 12 41 9 8 -2 26 8 39 23 14 17 25 23 28 15 5 -17 22 -15 41
6 26 27 62 42 191 76 30 8 108 30 172 50 65 20 124 36 132 36 8 0 16 3 18 8 3
8 90 52 104 52 5 0 20 9 34 20 l25 20 -30 -9 c-16 -4 -52 -18 -80 -29 -83 -35
-173 -66 -315 -111 -74 -24 -146 -47 -160 -52 -54 -18 -195 -49 -225 -49 -54
0 -97 -20 -92 -41 3 -11 1 -17 -4 -14 -36 23 -62 281 -58 578 3 177 5 207 18
202 8 -3 35 -10 60 -16z m841 -1041 c120 -96 124 -105 118 -282 -4 -113 -10
-152 -27 -198 -31 -80 -50 -99 -136 -143 l-76 -39 -45 22 c-49 24 -58 22 -120
-25 -35 -26 -59 -30 -67 -9 -4 11 -16 13 -39 9 -23 -3 -38 0 -46 10 -11 12 -6
20 30 48 49 38 58 48 58 68 0 23 -82 7 -162 -31 -97 -46 -162 -97 -348 -265
-293 -266 -468 -461 -732 -814 -398 -531 -671 -965 -921 -1468 -67 -134 -123
-238 -125 -232 -6 17 25 180 59 311 129 503 356 965 664 1350 333 418 905 907
1429 1225 73 44 84 62 65 106 -19 48 -59 62 -189 66 -146 5 -177 10 -177 28 0
13 270 162 392 216 73 32 289 118 298 119 4 0 48 -32 97 -72z m427 40 c-3 -8
-6 -5 -6 6 -1 11 2 17 5 13 3 -3 4 -12 1 -19z m-1437 -343 c0 -15 -58 -50 -68
-41 -3 3 0 17 6 31 13 28 62 36 62 10z m-127 -42 c-7 -2 -13 -9 -13 -14 0 -4
7 -6 15 -3 18 7 20 -17 3 -34 -19 -19 -28 -14 -28 16 0 31 7 42 24 41 6 0 5
-3 -1 -6z m-479 -159 c5 -14 4 -15 -9 -4 -17 14 -19 20 -6 20 5 0 12 -7 15
-16z m-3 -104 c23 -13 25 -43 4 -60 -20 -16 -24 -11 -32 34 -6 39 -3 42 28 26z
m97 -46 c-2 -9 -12 -23 -24 -30 -19 -13 -20 -13 -16 16 3 22 10 30 24 30 13 0
18 -6 16 -16z m652 -661 c-11 -17 -11 -17 -6 0 3 10 7 31 7 45 l2 27 4 -27 c2
-15 -1 -35 -7 -45z m-225 -163 c-8 -22 -12 -47 -9 -55 7 -16 -11 -21 -20 -6
-6 8 30 101 39 101 2 0 -2 -18 -10 -40z m93 13 c-5 -25 -28 -28 -28 -4 0 12 6
21 16 21 9 0 14 -7 12 -17z m-15 -94 c-17 -17 -37 -1 -22 17 8 10 15 12 23 4
7 -7 7 -13 -1 -21z m93 -125 c-4 -14 -11 -22 -16 -19 -9 5 -8 13 6 53 9 25 17
-3 10 -34z m-17 -108 c-13 -45 -23 -45 -16 -1 4 22 7 49 8 60 1 16 2 15 8 -5
4 -14 4 -38 0 -54z m1883 -36 c4 0 8 -4 8 -10 0 -13 -133 57 -173 92 -21 18 1
9 62 -27 52 -30 99 -55 103 -55z m78 -40 c8 -5 11 -10 5 -10 -5 0 -17 5 -25
10 -8 5 -10 10 -5 10 6 0 17 -5 25 -10z m45 -20 c3 -6 -1 -7 -9 -4 -18 7 -21
14 -7 14 6 0 13 -4 16 -10z m105 -24 c0 -6 -5 -3 -11 7 -6 9 -15 14 -21 11 -7
-4 -8 -2 -4 5 9 14 36 -3 36 -23z m127 2 c-3 -8 -6 -5 -6 6 -1 11 2 17 5 13 3
-3 4 -12 1 -19z m-72 -28 c10 -11 14 -20 9 -20 -13 0 -41 20 -29 20 6 0 3 5
-5 10 -8 5 -10 10 -4 10 6 0 19 -9 29 -20z m74 -7 c-8 -10 -18 -21 -24 -25 -6
-5 -4 -8 4 -8 8 0 12 -3 8 -6 -3 -3 -10 -3 -16 1 -12 7 17 54 33 55 5 0 2 -8
-5 -17z m10 -47 c-9 -8 -10 -7 -5 7 3 10 7 24 7 30 1 7 3 4 6 -7 3 -10 -1 -23
-8 -30z m221 -31 c15 -19 6 -47 -14 -39 -17 6 -29 32 -20 45 8 13 20 11 34 -6z
m-2260 -171 c0 -14 -4 -23 -10 -19 -5 3 -10 15 -10 26 0 10 5 19 10 19 6 0 10
-12 10 -26z m480 -73 c0 -5 -7 -14 -15 -21 -12 -10 -15 -10 -15 2 0 8 3 18 7
21 9 10 23 9 23 -2z m147 -88 c-3 -10 -5 -2 -5 17 0 19 2 27 5 18 2 -10 2 -26
0 -35z m-478 -63 c0 -8 -8 5 -19 29 -11 24 -20 46 -20 50 1 12 39 -64 39 -79z
m-128 37 c-8 -8 -11 -7 -11 4 0 9 3 19 7 23 4 4 9 2 11 -4 3 -7 -1 -17 -7 -23z
m428 11 c11 -11 12 -10 6 2 -6 12 -5 12 5 3 17 -16 5 -45 -17 -41 -10 2 -19
13 -21 26 -4 25 7 28 27 10z m-474 -18 c3 -5 -1 -10 -10 -10 -9 0 -13 5 -10
10 3 6 8 10 10 10 2 0 7 -4 10 -10z m82 -55 c-15 -16 -19 -13 -11 9 3 9 10 13
15 10 5 -3 3 -11 -4 -19z m2 -36 c-19 -12 -29 -11 -29 2 0 5 5 7 10 4 6 -3 13
2 17 11 5 13 8 14 11 5 2 -7 -2 -17 -9 -22z m-99 -4 c0 -15 -6 -25 -14 -25
-11 0 -12 5 -3 25 15 31 17 31 17 0z m-80 -19 c0 -3 -4 -8 -10 -11 -5 -3 -10
-1 -10 4 0 6 5 11 10 11 6 0 10 -2 10 -4z m2328 -1881 c168 -37 344 -114 491
-215 349 -241 583 -574 666 -950 27 -122 34 -742 8 -716 -3 3 -7 90 -8 193 -2
214 1 204 -114 471 -168 392 -301 591 -504 755 -283 228 -593 337 -875 307
-336 -36 -597 -160 -810 -385 -209 -219 -368 -573 -403 -897 -15 -137 -6 -377
20 -495 46 -219 161 -493 276 -663 54 -80 73 -116 53 -104 -8 5 -9 -5 -4 -35
5 -30 22 -62 59 -109 89 -112 97 -134 22 -62 -165 160 -342 431 -440 675 -153
380 -166 859 -32 1251 71 208 219 458 361 610 190 205 403 314 741 380 93 18
391 11 493 -11z m38 -230 c112 -28 250 -93 370 -174 79 -53 220 -184 286 -266
80 -99 175 -272 222 -403 30 -84 69 -270 64 -307 -4 -37 -20 -35 -33 5 -11 33
-12 34 -23 14 -6 -11 -11 -54 -11 -95 0 -72 -15 -186 -26 -197 -3 -3 -5 40 -5
95 0 150 -34 244 -100 278 -44 23 -155 20 -180 -5 -23 -23 -44 -92 -65 -215
-22 -126 -49 -235 -58 -235 -5 0 -5 10 0 23 4 12 6 69 5 127 -4 100 -5 106
-30 127 -31 25 -38 21 -58 -33 l-15 -39 6 34 c33 208 32 431 -5 546 -85 271
-264 415 -514 415 -109 0 -196 -19 -285 -63 -92 -45 -259 -211 -320 -319 -104
-185 -171 -402 -171 -553 0 -113 39 -328 85 -471 5 -15 2 -21 -9 -21 -14 0
-46 62 -46 88 0 6 -13 29 -28 52 -16 23 -37 64 -47 90 -12 33 -21 44 -26 35
-7 -10 -9 -9 -9 5 0 9 -17 34 -39 55 -38 37 -81 105 -81 129 0 18 -60 83 -76
83 -22 0 -27 -65 -20 -250 9 -249 25 -386 63 -555 19 -82 81 -219 120 -265 12
-14 36 -46 73 -95 10 -13 2 -10 -23 9 -94 71 -232 306 -296 502 -74 228 -96
567 -52 784 27 129 85 305 140 424 132 285 388 531 643 616 192 64 388 72 574
25z m-1695 -108 c-10 -9 -11 -8 -5 6 3 10 9 15 12 12 3 -3 0 -11 -7 -18z
m1681 -360 c111 -50 184 -157 213 -311 17 -89 19 -224 5 -312 -10 -64 -79
-289 -85 -282 -3 2 0 21 6 42 7 26 7 47 0 68 -7 20 -8 35 -2 42 6 7 6 17 1 26
-14 21 -12 32 3 24 8 -5 8 -2 -2 9 -16 20 -25 23 -15 5 4 -7 -5 0 -19 15 -15
15 -27 32 -27 38 0 5 -8 9 -17 10 -10 0 -25 2 -33 3 -8 2 -70 7 -137 11 -107
6 -124 5 -129 -9 -7 -18 -36 -21 -65 -5 -16 8 -29 7 -54 -5 -18 -9 -52 -16
-75 -16 -22 0 -55 -7 -71 -16 -17 -8 -44 -17 -61 -19 -17 -2 -34 -8 -37 -13
-3 -6 -17 -12 -31 -13 -44 -7 -55 -35 -57 -144 -1 -55 -6 -131 -11 -170 -8
-61 -6 -78 13 -135 12 -36 34 -89 49 -118 15 -30 25 -56 22 -59 -11 -12 -87
171 -110 267 -55 228 -55 388 1 564 85 271 243 454 448 523 65 21 210 11 277
-20z m-2155 -419 c-3 -8 -6 -5 -6 6 -1 11 2 17 5 13 3 -3 4 -12 1 -19z m-360
-190 c-2 -13 -4 -3 -4 22 0 25 2 35 4 23 2 -13 2 -33 0 -45z m223 -85 c0 -5
-7 -17 -15 -27 -15 -20 -20 -10 -9 18 6 16 24 22 24 9z m2647 -165 c-3 -8 -6
-5 -6 6 -1 11 2 17 5 13 3 -3 4 -12 1 -19z m-236 -85 c-12 -20 -14 -14 -5 12
4 9 9 14 11 11 3 -2 0 -13 -6 -23z m-2984 -190 c-2 -32 -3 -6 -3 57 0 63 1 89
3 58 2 -32 2 -84 0 -115z m3718 112 c-3 -26 -8 -45 -11 -43 -2 3 -1 26 2 52 4
25 9 44 12 42 2 -3 1 -26 -3 -51z m-794 -58 c-10 -9 -11 -8 -5 6 3 10 9 15 12
12 3 -3 0 -11 -7 -18z m-41 -76 c-5 -11 -15 -23 -21 -27 -6 -3 -3 5 6 20 20
30 30 35 15 7z m-3007 -181 c3 -86 2 -113 -3 -75 -8 62 -13 222 -6 214 2 -2 6
-65 9 -139z m334 73 c-3 -10 -5 -4 -5 12 0 17 2 24 5 18 2 -7 2 -21 0 -30z
m-194 -73 c3 -39 2 -55 -3 -40 -8 25 -13 117 -6 109 2 -2 6 -33 9 -69z m231 3
c11 -6 9 -20 -10 -68 l-23 -60 0 85 c0 61 2 80 10 68 5 -10 16 -21 23 -25z
m2957 -6 c-10 -9 -11 -8 -5 6 3 10 9 15 12 12 3 -3 0 -11 -7 -18z m-1141 -15
c0 -15 -2 -15 -10 -2 -13 20 -13 33 0 25 6 -3 10 -14 10 -23z m232 -9 c52 -42
118 -106 113 -111 -11 -11 -145 101 -145 122 0 10 9 7 32 -11z m438 -6 c0 -2
-12 -14 -27 -28 l-28 -24 24 28 c23 25 31 32 31 24z m-2676 -136 c-7 -7 -12 3
-19 34 l-6 30 14 -30 c8 -16 13 -32 11 -34z m-167 -8 c-3 -10 -5 -4 -5 12 0
17 2 24 5 18 2 -7 2 -21 0 -30z m2606 20 c-7 -2 -19 -2 -25 0 -7 3 -2 5 12 5
14 0 19 -2 13 -5z m-2583 -115 c8 -40 15 -77 16 -83 1 -5 12 -53 23 -105 20
-87 51 -168 72 -180 5 -3 6 -22 2 -43 -3 -20 -9 -35 -13 -32 -6 4 -30 80 -45
143 -3 9 -16 62 -29 117 -33 135 -55 255 -46 255 4 0 13 -33 20 -72z m190 36
c0 -8 7 -17 15 -20 8 -4 15 -18 15 -32 0 -21 -4 -18 -25 22 -27 52 -30 60 -15
51 6 -3 10 -13 10 -21z m2120 -19 c19 -19 32 -35 29 -35 -3 0 -20 16 -39 35
-19 19 -32 35 -29 35 3 0 20 -16 39 -35z m-2110 -35 c0 -5 -5 -10 -11 -10 -5
0 -7 5 -4 10 3 6 8 10 11 10 2 0 4 -4 4 -10z m2196 -37 c-6 -6 -46 20 -46 30
0 4 11 0 25 -9 14 -9 24 -19 21 -21z m439 7 c-3 -5 -12 -10 -18 -10 -7 0 -6 4
3 10 19 12 23 12 15 0z m-2634 -23 c-10 -9 -11 -8 -5 6 3 10 9 15 12 12 3 -3
0 -11 -7 -18z m2259 -12 c14 -8 21 -14 15 -14 -5 0 -21 6 -35 14 -14 8 -20 14
-15 14 6 0 21 -6 35 -14z m619 -15 c-15 -40 18 -106 77 -159 55 -49 57 -61 3
-21 -23 16 -45 27 -50 25 -11 -8 -31 33 -23 47 4 7 3 8 -4 4 -16 -10 -51 51
-44 77 5 22 31 55 44 56 4 1 2 -12 -3 -29z m-2896 -62 c-8 -38 -19 -68 -25
-68 -5 0 -6 5 -3 11 7 10 14 44 18 84 2 17 18 46 24 41 1 0 -6 -31 -14 -68z
m2577 68 c0 -2 -7 -7 -16 -10 -8 -3 -12 -2 -9 4 6 10 25 14 25 6z m-250 -16
c0 -5 -2 -10 -4 -10 -3 0 -8 5 -11 10 -3 6 -1 10 4 10 6 0 11 -4 11 -10z m207
-6 c-3 -3 -12 -4 -19 -1 -8 3 -5 6 6 6 11 1 17 -2 13 -5z m-40 -10 c-3 -4 -23
-8 -43 -11 -20 -2 -39 -4 -43 -5 -18 -2 -31 3 -31 12 0 6 27 10 62 10 34 0 58
-3 55 -6z m793 -37 c0 -2 -10 -12 -22 -23 l-23 -19 19 23 c18 21 26 27 26 19z
m-70 -71 c0 -2 -8 -10 -17 -17 -16 -13 -17 -12 -4 4 13 16 21 21 21 13z
m-3243 -28 c-3 -8 -6 -5 -6 6 -1 11 2 17 5 13 3 -3 4 -12 1 -19z m3213 -152
c0 -2 -8 -10 -17 -17 -16 -13 -17 -12 -4 4 13 16 21 21 21 13z m-205 -126 c-3
-5 -12 -10 -18 -10 -7 0 -6 4 3 10 19 12 23 12 15 0z m-296 -84 c-2 -2 -29 -6
-59 -9 -34 -3 -47 -2 -35 3 19 8 103 14 94 6z m-12 -582 c-3 -3 -12 -4 -19 -1
-8 3 -5 6 6 6 11 1 17 -2 13 -5z m-64 -11 c-13 -2 -35 -2 -50 0 -16 2 -5 4 22
4 28 0 40 -2 28 -4z m-2451 -594 c15 -8 18 -17 13 -37 -10 -42 -34 -72 -56
-72 -17 0 -20 4 -14 28 3 16 1 40 -4 54 -5 14 -7 29 -4 32 10 9 42 7 65 -5z
m1064 -98 c39 -24 106 -123 134 -199 22 -59 74 -262 68 -267 -2 -1 -46 -5 -98
-9 -52 -4 -90 -3 -84 1 9 6 8 33 -2 103 -28 187 -79 360 -112 380 -13 7 -8 9
23 10 22 0 54 -9 71 -19z m-146 -99 c0 -7 -4 -10 -10 -7 -5 3 -10 16 -10 28 0
18 2 19 10 7 5 -8 10 -21 10 -28z m45 -254 c4 -62 4 -62 -5 -13 -5 28 -11 64
-14 80 -4 23 -3 26 4 13 6 -9 12 -45 15 -80z m22 -128 c8 -19 4 -52 -8 -64 -5
-6 -8 17 -8 60 1 38 4 58 6 44 2 -14 7 -32 10 -40z m178 -94 l160 -1 6 -30 c6
-27 14 -17 10 13 -1 8 18 12 69 12 46 0 69 -4 65 -10 -4 -6 -11 -8 -16 -5 -5
4 -9 2 -9 -3 0 -5 -10 -13 -22 -17 -13 -4 -26 -8 -30 -10 -5 -1 -12 -3 -17 -4
-5 0 -4 -15 2 -32 11 -28 10 -33 -10 -46 -13 -9 -23 -22 -23 -29 0 -11 27 -14
133 -16 123 -1 118 -2 -78 -10 -115 -4 -258 -7 -318 -6 -59 2 -107 2 -107 0 0
-29 -59 -256 -85 -326 -19 -51 -35 -97 -35 -100 0 -4 -27 -74 -60 -156 -33
-82 -71 -190 -85 -240 -14 -49 -34 -111 -44 -138 -10 -26 -22 -69 -25 -95 l-7
-49 243 8 c134 4 449 8 700 8 l457 1 6 -25 c3 -14 4 -58 4 -97 l-2 -73 -106 0
c-58 0 -113 5 -121 10 -11 7 5 10 52 10 44 0 68 4 71 13 2 6 12 12 23 13 10 0
33 6 49 13 28 12 29 14 11 25 -10 6 -32 25 -48 42 -18 19 -47 36 -73 43 -57
14 -315 15 -315 0 0 -13 -200 -11 -217 3 -13 10 1 -64 18 -96 7 -13 7 -16 0
-11 -6 3 -11 1 -11 -4 0 -12 24 -15 84 -12 21 1 43 -3 50 -8 7 -6 74 -13 149
-17 76 -4 136 -8 134 -10 -1 -2 -225 -6 -497 -9 -272 -3 -533 -8 -578 -11
l-84 -6 7 -46 c4 -26 9 -51 12 -56 3 -5 159 -7 357 -5 193 2 501 3 684 2 l334
-3 -7 -32 c-11 -59 -29 -118 -36 -118 -4 0 -7 -6 -6 -12 1 -34 -4 -48 -18 -48
-14 0 -13 3 1 25 12 18 13 25 4 25 -9 0 -7 7 5 20 11 12 13 20 6 20 -7 0 -10
4 -7 9 3 4 -5 17 -17 28 -49 43 -74 48 -226 48 -185 -1 -303 -6 -316 -14 -5
-3 -14 -6 -20 -6 -5 0 -9 -12 -7 -25 2 -14 3 -36 3 -49 1 -13 12 -34 25 -46
l25 -23 -338 -6 c-186 -3 -346 -7 -355 -8 -16 -2 -16 -4 0 -31 9 -16 30 -40
45 -53 l29 -24 268 0 268 0 7 -84 c4 -46 4 -103 0 -126 -5 -31 -4 -45 6 -51 8
-5 -33 -7 -101 -5 -113 4 -190 20 -284 61 -51 22 -55 14 -8 -17 65 -44 115
-65 192 -83 91 -21 295 -31 367 -18 65 12 60 1 -10 -24 -72 -25 -276 -24 -362
1 -185 55 -351 214 -448 431 -54 122 -75 202 -87 336 -22 243 7 383 160 769
147 370 190 522 190 678 0 47 3 61 12 56 7 -4 84 -8 173 -8z m611 -18 c-3 -13
-6 -28 -6 -34 0 -6 -7 -11 -15 -11 -8 0 -12 4 -8 9 3 6 -3 9 -13 7 -11 -1 -32
4 -49 11 -36 16 -39 17 -67 20 -37 4 37 17 106 19 56 1 58 0 52 -21z m4 -158
c0 -6 -33 -9 -82 -8 l-83 2 70 6 c39 4 76 7 83 8 6 1 12 -2 12 -8z m-335 -140
c99 -5 216 -10 261 -11 l81 -2 -6 -31 c-6 -27 -11 -31 -36 -30 -32 1 -100 11
-100 15 0 7 -101 6 -106 -2 -14 -24 4 -61 37 -75 19 -8 36 -13 40 -12 3 2 10
-5 15 -14 7 -13 20 -17 44 -15 18 1 33 4 33 7 -1 20 5 30 22 35 11 4 17 11 14
17 -4 7 -2 8 5 4 12 -8 35 10 42 33 3 7 12 -16 20 -50 l15 -64 -449 -3 -449
-3 7 28 c4 15 13 59 21 97 8 38 17 73 20 78 7 11 227 10 469 -2z m252 -335
c29 -2 61 -6 72 -10 10 -3 38 1 61 9 40 14 42 13 37 -5 -3 -10 -2 -19 3 -19 8
0 55 -160 48 -164 -7 -6 -218 7 -218 13 0 3 34 6 76 6 l77 0 4 44 c5 48 -12
76 -57 93 -14 6 -74 10 -133 9 -92 0 -114 -4 -143 -22 -19 -11 -34 -23 -34
-25 0 -14 32 -64 41 -64 6 0 17 -7 25 -15 10 -10 35 -15 71 -15 31 0 54 -2 51
-6 -3 -3 -156 -5 -339 -5 -184 0 -378 -3 -431 -7 -54 -4 -98 -7 -98 -6 0 5 64
172 72 187 10 20 16 20 387 12 207 -4 400 -9 428 -10z m-307 -327 c0 -18 3
-56 6 -84 l6 -51 113 -11 c62 -7 134 -13 161 -14 36 -1 26 -3 -36 -9 -47 -4
-280 -7 -518 -8 -343 -1 -433 2 -428 12 2 6 12 37 21 67 27 91 37 110 59 115
32 7 137 11 389 13 l227 2 0 -32z m37 16 c-3 -3 -12 -4 -19 -1 -8 3 -5 6 6 6
11 1 17 -2 13 -5z m589 -162 l7 -32 -89 2 c-51 1 -69 3 -42 5 36 3 48 9 53 24
4 10 13 19 21 19 8 0 17 7 21 16 8 21 21 5 29 -34z m-529 -668 c-3 -3 -12 -4
-19 -1 -8 3 -5 6 6 6 11 1 17 -2 13 -5z m403 -163 c-22 -32 -55 -71 -73 -87
l-32 -29 29 33 c17 17 31 40 32 49 2 9 8 19 15 23 8 6 5 14 -10 29 l-21 21 28
1 c15 0 36 4 47 9 11 5 21 9 23 9 2 1 -15 -25 -38 -58z m-110 -124 c0 -2 -12
-14 -27 -28 l-28 -24 24 28 c23 25 31 32 31 24z m-213 -103 c-3 -3 -12 -4 -19
-1 -8 3 -5 6 6 6 11 1 17 -2 13 -5z m-2630 -1076 c-13 -18 -28 -43 -31 -55 -7
-21 -55 -67 -63 -60 -8 9 67 133 88 144 33 17 35 9 6 -29z m-187 16 c0 -8 -5
-12 -10 -9 -6 4 -8 11 -5 16 9 14 15 11 15 -7z m100 -4 c0 -24 -1 -24 -36 -8
l-27 13 24 6 c37 11 39 10 39 -11z m2730 -974 c0 -2 -7 -6 -15 -10 -8 -3 -15
-1 -15 4 0 6 7 10 15 10 8 0 15 -2 15 -4z"/>
<path d="M16358 17743 c17 -2 47 -2 65 0 17 2 3 4 -33 4 -36 0 -50 -2 -32 -4z"/>
<path d="M16358 17513 c7 -3 16 -2 19 1 4 3 -2 6 -13 5 -11 0 -14 -3 -6 -6z"/>
<path d="M18395 11569 c-46 -24 -72 -47 -40 -34 72 28 93 34 120 35 31 0 83
-27 122 -63 33 -29 38 -15 9 21 -53 62 -139 79 -211 41z"/>
<path d="M18100 11419 c0 -5 9 -9 20 -9 11 0 20 2 20 4 0 2 -9 6 -20 9 -11 3
-20 1 -20 -4z"/>
<path d="M17428 7933 c7 -3 16 -2 19 1 4 3 -2 6 -13 5 -11 0 -14 -3 -6 -6z"/>
<path d="M17867 19020 c3 -69 7 -127 9 -129 8 -9 3 175 -6 214 -6 26 -7 -2 -3
-85z"/>
<path d="M12458 19039 c-24 -13 -23 -26 2 -39 27 -14 60 -4 60 20 0 27 -32 37
-62 19z"/>
<path d="M12286 18952 c-8 -14 5 -112 15 -112 12 0 11 107 0 115 -5 3 -12 1
-15 -3z"/>
<path d="M17852 18905 c0 -16 2 -22 5 -12 2 9 2 23 0 30 -3 6 -5 -1 -5 -18z"/>
<path d="M17852 18810 c0 -19 2 -27 5 -17 2 9 2 25 0 35 -3 9 -5 1 -5 -18z"/>
<path d="M10602 18747 c-31 -33 -29 -65 5 -73 33 -9 55 5 64 39 6 21 3 30 -14
42 -28 19 -30 19 -55 -8z"/>
<path d="M17851 18594 c0 -11 3 -14 6 -6 3 7 2 16 -1 19 -3 4 -6 -2 -5 -13z"/>
<path d="M17851 18554 c0 -11 3 -14 6 -6 3 7 2 16 -1 19 -3 4 -6 -2 -5 -13z"/>
<path d="M13567 18476 c-48 -18 -64 -31 -99 -85 -44 -69 -34 -118 37 -180 54
-47 100 -63 171 -59 156 9 218 165 111 276 -32 33 -107 62 -156 62 -14 -1 -43
-7 -64 -14z"/>
<path d="M9203 18243 c-18 -7 -16 -40 2 -47 25 -9 46 5 43 28 -3 21 -22 29
-45 19z"/>
<path d="M12660 18025 c-18 -22 15 -61 37 -43 18 15 13 52 -8 56 -9 1 -22 -4
-29 -13z"/>
<path d="M20869 17839 c-35 -37 -35 -40 -8 -57 18 -12 25 -10 55 13 33 25 33
27 18 50 -21 32 -30 31 -65 -6z"/>
<path d="M12277 17853 c-14 -13 -6 -43 13 -53 24 -13 40 -6 40 19 0 30 -35 53
-53 34z"/>
<path d="M14565 17649 c-18 -34 -10 -53 21 -47 14 2 19 12 19 37 0 45 -20 50
-40 10z"/>
<path d="M18882 17639 c-249 -42 -503 -229 -620 -458 -158 -306 -170 -664 -34
-980 126 -291 373 -516 672 -614 96 -32 311 -31 428 1 254 69 468 259 594 528
86 185 119 423 84 623 -47 268 -135 464 -278 617 -92 98 -250 198 -388 246
-122 42 -328 59 -458 37z m343 -98 c168 -44 288 -115 407 -239 127 -133 187
-257 239 -492 31 -142 34 -396 5 -510 -92 -367 -399 -605 -776 -603 -96 0
-128 5 -195 26 -375 123 -645 552 -622 987 15 269 92 464 240 611 195 193 474
280 702 220z"/>
<path d="M19376 17109 c-167 -34 -314 -159 -405 -347 -16 -31 -31 -69 -34 -83
-7 -27 -4 -26 -177 -70 -25 -7 -50 -13 -57 -15 -34 -9 -99 -478 -77 -561 6
-21 6 -21 25 -2 16 16 18 26 10 81 -10 77 -5 195 15 312 15 92 32 140 35 101
3 -44 7 -147 9 -265 1 -69 6 -142 12 -164 10 -40 52 -91 67 -82 4 3 11 -20 14
-50 4 -38 13 -64 28 -80 25 -27 125 -80 221 -118 254 -100 631 113 748 422 58
152 64 379 16 565 -29 115 -63 181 -129 253 -82 90 -199 127 -321 103z"/>
<path d="M18393 16623 c9 -2 23 -2 30 0 6 3 -1 5 -18 5 -16 0 -22 -2 -12 -5z"/>
<path d="M18470 16610 c19 -4 43 -11 53 -15 9 -4 17 -3 17 3 0 14 -26 22 -68
21 l-37 -1 35 -8z"/>
<path d="M17585 17569 c-4 -6 -5 -12 -2 -15 2 -3 7 2 10 11 7 17 1 20 -8 4z"/>
<path d="M14252 17348 c-14 -14 -16 -78 -2 -78 22 0 41 72 22 84 -5 3 -14 0
-20 -6z"/>
<path d="M13210 17265 c-15 -19 -9 -49 11 -53 11 -2 19 6 23 23 10 41 -10 60
-34 30z"/>
<path d="M14935 16714 c-85 -15 -220 -76 -239 -106 -11 -19 1 -52 20 -54 5 0
22 -4 38 -9 63 -17 409 98 423 142 7 20 -53 43 -109 42 -29 0 -89 -7 -133 -15z"/>
<path d="M12908 16599 c-22 -12 -23 -48 -3 -55 15 -6 45 11 45 25 0 4 -6 15
-12 24 -10 12 -17 14 -30 6z"/>
<path d="M13015 15564 c-33 -25 -79 -55 -102 -66 -22 -10 -49 -29 -60 -40 -18
-21 -18 -21 11 -14 17 4 45 21 64 38 19 16 54 38 78 48 44 19 84 52 84 70 0
17 -13 11 -75 -36z"/>
<path d="M19461 13634 c0 -11 3 -14 6 -6 3 7 2 16 -1 19 -3 4 -6 -2 -5 -13z"/>
<path d="M19451 13584 c0 -11 3 -14 6 -6 3 7 2 16 -1 19 -3 4 -6 -2 -5 -13z"/>
<path d="M17494 12848 c-3 -4 2 -8 10 -8 8 0 17 4 20 8 3 5 -2 9 -10 9 -8 0
-17 -4 -20 -9z"/>
<path d="M17486 12758 c-27 -15 -19 -34 15 -32 39 3 42 7 20 26 -12 10 -23 13
-35 6z"/>
<path d="M15141 9918 c-25 -58 -40 -150 -23 -133 12 11 56 175 49 181 -2 3
-14 -19 -26 -48z"/>
<path d="M17452 8548 c5 -15 28 -18 29 -3 0 6 -7 12 -17 13 -10 3 -15 -1 -12
-10z"/>
<path d="M17205 8530 c3 -5 8 -10 11 -10 2 0 4 5 4 10 0 6 -5 10 -11 10 -5 0
-7 -4 -4 -10z"/>
<path d="M17390 8170 c-13 -8 -12 -10 3 -10 9 0 17 5 17 10 0 12 -1 12 -20 0z"/>
<path d="M18675 5650 c3 -5 8 -10 11 -10 2 0 4 5 4 10 0 6 -5 10 -11 10 -5 0
-7 -4 -4 -10z"/>
<path d="M20788 4993 c6 -2 18 -2 25 0 6 3 1 5 -13 5 -14 0 -19 -2 -12 -5z"/>
<path d="M21423 4993 c9 -2 23 -2 30 0 6 3 -1 5 -18 5 -16 0 -22 -2 -12 -5z"/>
<path d="M21738 4993 c6 -2 18 -2 25 0 6 3 1 5 -13 5 -14 0 -19 -2 -12 -5z"/>
<path d="M23507 4503 c-235 -321 -876 -570 -2022 -789 -735 -139 -1587 -223
-2698 -265 -361 -14 -2080 -6 -2387 10 -477 26 -992 69 -1495 127 -864 98
-1634 268 -2158 475 -212 84 -377 188 -506 316 l-83 85 5 -269 c5 -273 10
-312 51 -390 28 -54 87 -116 169 -177 216 -160 339 -223 662 -339 257 -92 245
-88 245 -97 0 -30 -402 97 -585 186 -85 42 -97 44 -220 54 -152 12 -349 30
-420 37 -79 9 -50 -4 65 -27 63 -13 175 -25 280 -30 190 -10 225 -16 285 -49
l40 -21 -60 5 c-84 7 -811 18 -805 12 7 -7 787 -41 880 -39 17 0 94 -27 190
-68 121 -52 316 -96 346 -78 11 8 253 -17 299 -30 18 -5 25 -11 17 -16 -6 -4
-21 -2 -32 4 -30 16 -42 3 -38 -44 l2 -41 -109 2 c-403 5 -387 3 -383 47 2 25
8 32 31 34 39 5 33 20 -10 27 -46 8 -79 18 -158 46 -188 66 -281 79 -547 78
-122 0 -195 -4 -183 -9 11 -5 121 -13 245 -19 194 -10 348 -27 413 -47 13 -4
17 -14 15 -32 -4 -32 -32 -41 -58 -17 -15 13 -54 17 -256 21 -149 3 -233 1
-224 -4 8 -6 113 -13 233 -17 119 -4 220 -11 223 -16 3 -5 25 -9 49 -9 38 0
44 -3 49 -26 4 -15 5 -28 2 -31 -2 -2 -118 5 -257 17 -140 12 -330 27 -424 35
-93 8 -196 19 -228 25 -33 6 -61 9 -64 7 -2 -3 14 -8 36 -12 42 -7 117 -33
303 -104 402 -154 1506 -404 2148 -486 760 -97 1494 -162 2295 -202 268 -13
528 -18 1105 -18 799 0 943 5 1720 66 708 54 1056 92 1655 180 509 74 800 126
1250 224 169 36 590 148 780 206 336 104 420 131 430 140 13 13 4 12 -108 -11
-53 -11 -159 -24 -235 -30 -205 -15 -616 -38 -797 -45 -88 -4 -188 -8 -221
-10 l-61 -4 -6 67 c-3 37 -3 70 0 74 2 5 15 8 29 8 23 0 24 -3 24 -65 0 -36 4
-65 10 -65 18 0 32 43 28 91 -3 49 3 59 38 59 10 0 14 -15 14 -57 0 -58 12
-94 24 -75 3 6 7 42 7 80 l1 70 47 12 c94 23 340 104 476 157 330 129 565 289
625 426 48 107 55 167 55 439 -1 171 -4 261 -11 268 -8 8 -21 -2 -47 -37z
m-10582 -1325 c20 -9 25 -17 21 -32 -3 -12 -6 -31 -6 -44 0 -30 -27 -40 -45
-16 -16 21 -20 104 -5 104 5 0 21 -5 35 -12z m9205 -7 c0 -5 -16 -21 -35 -35
-19 -15 -35 -35 -34 -44 0 -14 2 -13 9 3 7 17 9 15 9 -11 1 -35 -12 -44 -60
-44 -37 0 -38 21 -4 62 14 16 25 36 25 43 0 14 41 33 73 34 9 1 17 -3 17 -8z
m-9163 -38 l-5 -28 18 23 c10 12 25 22 34 22 18 0 21 -15 6 -25 -5 -3 -10 -19
-10 -36 0 -26 -3 -29 -31 -29 -30 0 -30 1 -25 38 3 20 5 43 6 50 0 6 3 12 6
12 4 0 4 -12 1 -27z m9033 13 c0 -7 -7 -19 -14 -26 -8 -6 -20 -27 -26 -46 -11
-31 -15 -34 -51 -34 -48 0 -50 13 -9 60 26 32 29 33 30 13 0 -12 5 -25 11 -29
7 -4 10 4 8 22 -2 16 0 35 4 42 11 16 47 15 47 -2z m170 -68 c0 -26 -3 -28
-39 -28 l-39 0 16 43 c25 67 34 75 49 41 7 -16 12 -41 13 -56z m-297 54 c14
-16 14 -19 -3 -42 l-20 -25 0 27 c0 14 -3 33 -6 42 -8 21 9 20 29 -2z m-8221
-37 c-5 -51 -12 -58 -56 -50 -37 7 -46 25 -26 55 9 13 13 12 29 -8 23 -26 36
-14 27 24 -6 21 -3 25 11 22 14 -3 17 -11 15 -43z m8168 -10 c0 -44 -1 -45
-31 -45 -29 0 -30 2 -24 30 5 22 3 30 -7 30 -20 1 23 30 44 30 15 0 18 -8 18
-45z m-8037 29 c3 -3 -4 -21 -15 -41 -16 -27 -26 -33 -42 -29 -12 3 -24 6 -28
6 -5 0 -8 16 -8 35 0 35 0 35 43 35 24 0 46 -3 50 -6z m7923 -31 c-1 -42 -16
-57 -46 -48 -16 5 -18 12 -13 38 7 34 18 47 44 47 12 0 16 -9 15 -37z m-7896
-3 c0 -27 -22 -51 -35 -38 -5 5 24 68 31 68 2 0 4 -14 4 -30z m109 21 c9 -6
11 -18 7 -36 -6 -22 -11 -26 -39 -23 -32 3 -45 23 -33 54 6 16 43 19 65 5z
m7664 -23 l-3 -33 15 30 14 30 1 -27 c0 -32 -30 -53 -65 -44 -18 5 -22 11 -18
28 12 51 61 64 56 16z m-7553 -8 c0 -27 -3 -30 -30 -30 -27 0 -30 3 -30 30 0
27 3 30 30 30 27 0 30 -3 30 -30z m7458 -11 c-2 -16 -11 -25 -26 -27 -20 -3
-22 -1 -16 25 12 50 49 52 42 2z m-7373 21 c10 -16 -16 -43 -28 -31 -11 11 -2
41 12 41 5 0 13 -5 16 -10z m7281 -5 c6 -16 -12 -45 -28 -45 -15 0 -21 30 -8
45 16 19 29 19 36 0z m-7191 -10 c0 -5 -15 -11 -34 -13 -31 -3 -33 -2 -21 13
14 17 55 17 55 0z m7088 9 c12 -12 -6 -34 -29 -34 -17 0 -24 6 -24 20 0 14 7
20 23 20 13 0 26 -3 30 -6z"/>
<path d="M13728 3085 c-4 -20 -3 -23 8 -14 16 13 19 39 5 39 -5 0 -11 -11 -13
-25z"/>
<path d="M13887 3070 c-3 -11 -3 -20 -1 -20 2 0 8 9 14 20 6 11 7 20 2 20 -6
0 -12 -9 -15 -20z"/>
<path d="M12319 3599 c40 -16 75 -28 78 -26 5 6 -123 57 -140 56 -6 0 21 -13
62 -30z"/>
<path d="M12057 3550 c29 -12 178 -36 338 -55 71 -9 141 -18 155 -22 18 -4 22
-2 15 5 -15 16 -114 40 -197 47 -40 4 -122 13 -181 21 -59 8 -118 14 -130 13
l-22 0 22 -9z"/>
<path d="M23235 3522 c-27 -15 -108 -53 -180 -84 -279 -122 -487 -190 -610
-201 -30 -2 -30 -3 -33 -64 -3 -59 -2 -63 19 -63 17 0 19 3 10 14 -14 17 -4
86 13 91 6 2 54 11 106 20 211 38 514 161 695 282 60 40 49 43 -20 5z"/>
<path d="M10320 3449 c0 -17 -42 -50 -57 -45 -7 3 -13 2 -13 -3 0 -5 -12 -16
-26 -26 -15 -9 -23 -12 -19 -6 3 6 -13 -2 -37 -19 -24 -17 -55 -39 -70 -48
-16 -9 -28 -22 -28 -29 0 -6 -8 -14 -18 -17 -17 -6 -52 -72 -71 -136 -14 -48
-8 -160 9 -190 8 -14 15 -29 15 -35 0 -5 11 -23 23 -40 12 -16 22 -33 22 -37
0 -5 14 -21 30 -36 16 -16 27 -31 24 -34 -3 -3 26 -32 63 -64 454 -386 1712
-832 3013 -1068 467 -84 1134 -182 1505 -221 536 -55 651 -66 835 -80 113 -8
291 -20 395 -25 105 -6 258 -15 340 -20 83 -6 440 -15 795 -22 1169 -22 2264
14 3290 107 151 14 331 32 400 40 69 8 204 24 300 36 368 43 511 61 705 90
647 96 1063 172 1535 280 592 136 748 180 1255 356 304 105 616 239 762 328
127 77 207 137 193 145 -16 10 0 40 40 73 16 14 30 31 30 37 0 7 13 30 30 53
16 23 32 59 34 79 4 31 1 40 -22 58 -17 13 -23 23 -15 26 15 7 5 34 -12 34 -7
0 -15 -10 -18 -22 -10 -35 -20 -13 -26 55 -1 4 -9 7 -19 7 -10 0 -28 11 -40
25 -20 22 -20 25 -4 26 11 1 8 4 -8 8 -14 4 -24 12 -23 18 1 6 -7 19 -17 28
-11 10 -20 24 -20 32 0 7 -6 13 -13 13 -8 0 -33 22 -55 49 -23 27 -50 52 -60
55 -10 3 -26 20 -36 37 -18 30 -18 31 5 56 13 14 -45 -20 -130 -76 -236 -155
-481 -272 -795 -380 -170 -59 -275 -88 -681 -191 -617 -157 -785 -192 -1395
-289 -74 -12 -265 -45 -423 -72 -451 -78 -927 -137 -1327 -163 -455 -30 -568
-37 -920 -51 -890 -37 -2485 -44 -3340 -15 -699 23 -1354 70 -1892 135 -212
25 -369 45 -443 54 -38 6 -92 12 -120 15 -27 4 -86 13 -130 21 -44 7 -97 17
-117 20 -21 3 -38 10 -38 14 0 5 -10 6 -22 4 -13 -2 -57 3 -98 12 -41 10 -91
19 -110 20 -60 5 -166 24 -195 35 -15 6 -31 8 -35 5 -5 -3 -36 1 -69 10 -32 8
-70 15 -84 15 -14 0 -28 4 -31 9 -3 4 7 7 22 5 27 -4 27 -4 2 5 -14 4 -30 4
-36 -1 -7 -5 -16 -2 -24 7 -14 17 -35 21 -24 4 4 -7 0 -9 -12 -6 -11 3 -36 9
-56 13 -21 3 -36 9 -34 13 3 4 -19 7 -47 8 -65 2 -330 66 -320 77 4 5 -3 5
-16 1 -18 -5 -22 -4 -16 6 6 11 5 11 -4 3 -10 -9 -24 -8 -59 2 -26 8 -150 43
-277 78 -266 75 -626 194 -770 255 -114 49 -342 162 -460 229 -112 63 -201
126 -266 189 -42 41 -66 56 -93 60 -24 3 -36 1 -36 -8z m12550 -952 c0 -7 -9
-23 -20 -37 l-20 -25 0 37 c0 20 6 38 13 41 16 6 27 -1 27 -16z m-10937 -4
c-7 -2 -19 -2 -25 0 -7 3 -2 5 12 5 14 0 19 -2 13 -5z m767 -23 c0 -5 -5 -10
-11 -10 -5 0 -7 5 -4 10 3 6 8 10 11 10 2 0 4 -4 4 -10z m9969 -2 c-1 -7 -4
-24 -9 -38 l-7 -25 -8 27 c-7 28 -1 48 16 48 5 0 9 -6 8 -12z m81 -7 c0 -11
-4 -23 -10 -26 -6 -4 -10 5 -10 19 0 14 5 26 10 26 6 0 10 -9 10 -19z m-10000
-1 c0 -5 -5 -10 -11 -10 -5 0 -7 5 -4 10 3 6 8 10 11 10 2 0 4 -4 4 -10z m125
-10 c-3 -5 -11 -10 -16 -10 -6 0 -7 5 -4 10 3 6 11 10 16 10 6 0 7 -4 4 -10z
m9676 -47 c-9 -16 -10 -15 -11 8 0 14 3 29 8 33 12 12 14 -22 3 -41z m-10471
-47 c0 -2 -7 -7 -16 -10 -8 -3 -12 -2 -9 4 6 10 25 14 25 6z m10890 -22 c0 -9
-7 -14 -17 -12 -25 5 -28 28 -4 28 12 0 21 -6 21 -16z m-10005 -4 c-3 -5 -10
-10 -16 -10 -5 0 -9 5 -9 10 0 6 7 10 16 10 8 0 12 -4 9 -10z m-728 -71 c-14
-8 -22 -8 -30 0 -8 8 -3 11 19 11 25 -1 27 -2 11 -11z m10681 -16 c-5 -25 -28
-28 -28 -4 0 12 6 21 16 21 9 0 14 -7 12 -17z m-178 -2 c0 -6 -4 -13 -10 -16
-5 -3 -10 1 -10 9 0 9 5 16 10 16 6 0 10 -4 10 -9z m-9310 -11 c0 -5 -4 -10
-10 -10 -5 0 -10 5 -10 10 0 6 5 10 10 10 6 0 10 -4 10 -10z m-420 -40 c0 -5
-9 -10 -20 -10 -11 0 -20 5 -20 10 0 6 9 10 20 10 11 0 20 -4 20 -10z m10100
6 c0 -3 -4 -8 -10 -11 -5 -3 -10 -1 -10 4 0 6 5 11 10 11 6 0 10 -2 10 -4z
m-470 -45 c0 -6 -4 -13 -10 -16 -5 -3 -10 1 -10 9 0 9 5 16 10 16 6 0 10 -4
10 -9z m-8755 -11 c3 -5 -1 -10 -9 -10 -8 0 -18 5 -21 10 -3 6 1 10 9 10 8 0
18 -4 21 -10z m302 -6 c-3 -3 -12 -4 -19 -1 -8 3 -5 6 6 6 11 1 17 -2 13 -5z
m8773 -15 c0 -5 -4 -9 -10 -9 -5 0 -10 7 -10 16 0 8 5 12 10 9 6 -3 10 -10 10
-16z m-10160 -9 c0 -5 -9 -10 -20 -10 -11 0 -20 5 -20 10 0 6 9 10 20 10 11 0
20 -4 20 -10z m10545 -10 c-3 -5 -10 -10 -16 -10 -5 0 -9 5 -9 10 0 6 7 10 16
10 8 0 12 -4 9 -10z m-9565 -44 c-13 -13 -35 7 -25 24 5 8 11 8 21 -1 10 -8
12 -15 4 -23z m8870 19 c16 -19 3 -40 -16 -24 -15 13 -19 39 -5 39 5 0 14 -7
21 -15z m-9450 -9 c0 -15 -24 -28 -34 -19 -13 14 -5 33 14 33 11 0 20 -6 20
-14z m360 4 c0 -5 -7 -10 -15 -10 -8 0 -15 5 -15 10 0 6 7 10 15 10 8 0 15 -4
15 -10z m460 -23 c0 -4 -3 -6 -7 -4 -5 2 -16 7 -26 10 -10 4 -16 11 -12 17 7
11 45 -9 45 -23z m-603 -3 c8 -21 -13 -42 -28 -27 -13 13 -5 43 11 43 6 0 13
-7 17 -16z m-469 -56 c-7 -20 -48 -23 -48 -4 0 11 9 16 26 16 16 0 24 -5 22
-12z m972 -13 c0 -8 -7 -15 -15 -15 -8 0 -15 7 -15 15 0 8 7 15 15 15 8 0 15
-7 15 -15z m-1450 -15 c8 -5 11 -12 8 -16 -9 -9 -76 4 -83 16 -8 13 55 13 75
0z m1680 -26 c0 -17 -26 -19 -36 -3 -7 12 15 31 28 23 4 -3 8 -12 8 -20z
m9148 -1 c-4 -22 -38 -30 -49 -12 -11 19 -2 29 27 29 19 0 25 -5 22 -17z
m-9640 -15 c17 -17 15 -28 -4 -28 -23 0 -55 20 -49 31 9 13 39 11 53 -3z
m8787 -8 c-3 -5 -13 -10 -21 -10 -8 0 -12 5 -9 10 3 6 13 10 21 10 8 0 12 -4
9 -10z m-8410 -50 c3 -5 2 -10 -4 -10 -5 0 -13 5 -16 10 -3 6 -2 10 4 10 5 0
13 -4 16 -10z m230 -30 c3 -5 2 -10 -4 -10 -5 0 -13 5 -16 10 -3 6 -2 10 4 10
5 0 13 -4 16 -10z m8475 -9 c0 -5 -7 -14 -15 -21 -18 -15 -42 1 -31 19 8 13
46 15 46 2z m-9293 -18 c5 -15 -36 -28 -49 -15 -6 6 -7 15 -3 22 9 14 47 9 52
-7z m8749 -18 c-22 -17 -36 -19 -36 -7 0 14 12 22 34 22 21 -1 21 -1 2 -15z
m-8278 -47 c16 -16 15 -25 -4 -32 -24 -9 -47 13 -33 30 14 17 22 17 37 2z
m572 2 c12 -8 11 -10 -7 -10 -13 0 -23 5 -23 10 0 13 11 13 30 0z m160 -6 c0
-2 -7 -4 -15 -4 -8 0 -15 4 -15 10 0 5 7 7 15 4 8 -4 15 -8 15 -10z m-395 -56
c6 -4 2 -8 -7 -8 -10 0 -18 7 -18 17 0 9 3 12 8 7 4 -5 12 -12 17 -16z m6802
-94 c-3 -3 -12 -4 -19 -1 -8 3 -5 6 6 6 11 1 17 -2 13 -5z m-6040 -20 c8 -22
-16 -35 -41 -22 -19 10 -19 11 -1 24 24 18 34 18 42 -2z"/>
<path d="M25706 3327 c3 -10 9 -15 12 -12 3 3 0 11 -7 18 -10 9 -11 8 -5 -6z"/>
<path d="M25739 3268 c11 -18 25 -34 31 -35 7 -1 7 0 0 4 -5 2 -8 9 -4 14 3 5
1 9 -4 9 -5 0 -12 9 -15 20 -3 11 -10 20 -17 20 -8 0 -4 -12 9 -32z"/>
<path d="M25775 3210 c3 -5 8 -10 11 -10 2 0 4 5 4 10 0 6 -5 10 -11 10 -5 0
-7 -4 -4 -10z"/>
<path d="M22497 3197 c-4 -10 -7 -27 -7 -37 0 -11 -8 -24 -17 -29 -14 -8 -7
-10 32 -10 35 0 44 3 30 8 -14 5 -22 20 -25 47 -4 29 -7 35 -13 21z"/>
<path d="M9954 3181 c4 -5 1 -12 -4 -14 -6 -3 -5 -4 2 -3 15 3 23 26 8 26 -6
0 -9 -4 -6 -9z"/>
<path d="M22571 3158 l-1 -38 73 0 c95 0 227 11 227 19 0 4 -51 3 -112 -2
-158 -11 -171 -9 -179 28 -6 29 -7 29 -8 -7z"/>
<path d="M9943 3143 c-15 -5 -17 -39 -4 -47 5 -3 11 8 13 24 3 17 4 30 4 29
-1 0 -7 -3 -13 -6z"/>
<path d="M13220 3111 l0 -42 38 7 c50 9 52 11 51 47 -1 18 -3 25 -6 16 -4 -17
-47 -15 -70 4 -10 7 -13 0 -13 -32z"/>
<path d="M13350 3106 l0 -45 42 19 c43 19 43 19 66 -3 20 -18 24 -19 33 -7 5
8 8 26 7 40 -3 23 -7 25 -53 25 -27 1 -60 4 -72 9 -22 7 -23 5 -23 -38z"/>
<path d="M13116 3114 c-12 -32 -7 -45 13 -34 11 5 28 10 39 10 11 0 22 9 25
20 4 17 0 20 -33 20 -25 0 -40 -5 -44 -16z"/>
<path d="M25519 2643 c-13 -16 -12 -17 4 -4 16 13 21 21 13 21 -2 0 -10 -8
-17 -17z"/>
</g>
</svg>
